<?xml version="1.0" encoding="UTF-8"?>
<svg id="Layer_1" data-name="Layer 1" xmlns="http://www.w3.org/2000/svg" viewBox="0 0 124.17 217.85">
  <defs>
    <style>
      .cls-1 {
        fill: none;
      }
    </style>
  </defs>
  <path d="M37.24,201.86c-2.08.16-4.17.11-6.28-.2-2.09,4.68-4.07,9.4-5.94,14.19-.72,1.82-2.89,2.56-4.55,1.53-1.49-.92-3.38-2.08-5.35-3.3-3.06-1.87-6.33-3.88-8.65-5.32-1.67-1.03-1.98-3.31-.65-4.78,2.84-3.13,5.58-6.33,8.25-9.58,3.79-4.6,7.45-9.28,11.05-14,13.12-17.4,25.27-35.41,36.36-54.14,8.55-17.19,16.6-34.63,23.26-52.47-18.56,21.28-34.41,44.62-50.34,67.83-9.46,13.99-19.41,28.83-28.97,43.63-14.18-23.55,2.67-66.78,13.35-87.51C44.15,48.49,101.41,23.25,123.35.16c.34-.37.94-.03.81.46-8.33,28.72,2.07,87.43-23.55,136.46-13.08,25.04-37.02,62.69-63.36,64.78Z"/>
  <rect class="cls-1" x="20.68" y="-14.78" width="90.73" height="240.46" transform="translate(57.22 -18.66) rotate(27.99)"/>
</svg>