<?xml version="1.0" encoding="UTF-8"?>
<svg id="Layer_3" data-name="Layer 3" xmlns="http://www.w3.org/2000/svg" viewBox="0 0 3512.7 741.6">
  <defs>
    <style>
      .cls-1 {
        fill: #fff;
      }
    </style>
  </defs>
  <g>
    <g>
      <path class="cls-1" d="M2279.81,613.09c-1.05-1.2-1.05-3.73-1.6-6.2-.9-4.51-2.08-8.99-2.3-13.59-.55-7.12.9-15.25-.48-22.19-.78-3.22-2.55-6.35-2.62-9.76-.16-3.39,1.22-6.58,1.36-9.93.32-6.07-2.72-13.52-2.76-19.47-.14-3.48,1.18-7.1.59-10.57-.39-2.27-1.91-4.65-2.61-6.78-2.22-9.04.15-19.38-2.5-27.83-2.88-6.99-3.44-14.41-3.52-21.97-.05-6.07-1.33-11.57-2.35-17.44-.89-6.36-.24-12.61-.88-19-.69-8.14-2.19-15.85-4.05-23.45-.72-3.22-2.6-6.46-1.91-9.8.45-1.99,1.42-3.86,1.12-5.95-.29-2.74-2.08-6.57-1.81-8.22.1-1.02.88-1.4,1.95-1.52,6.13-.41,50.98-2.95,50.79,1.04.06,1.99-.43,5.2,0,8.07.63,4.04.61,7.69-.05,11.8-3.5,20.48-4.82,42.27-5.83,62.62.09,8.5-4.18,15.82-4.75,24.34-.97,14.64-1.12,30.02.66,44.63.24,2.24.27,4.59-.21,6.81-1.08,4.91-4.79,9.19-3.62,14.48.56,3.15,1.56,6.1,1.48,9.29-.16,9.73-1.81,21.36-.6,31.57.26,5.4,2.04,15.96-2.5,19.43-1.49.86-4.27.81-6.81.78-1.41-.04-2.99-.09-4.04-1.05l-.15-.16Z"/>
      <path class="cls-1" d="M2780.38,484.56c1.8,1.45,3.94-.66,5.58-1.54,3.52-2.43,8.32-3.21,11.79-5.06,1.89-.74,4.41-3.48,6.43-2.23.59.96.27,1.68-.03,2.79-.72,1.97-2.12,4.29-3.48,5.93-1.83,2.26-4.31,3.3-6.12,5.45-3.81,5.35-7.01,15.38-10.73,21.94-3.53,6.88-5.08,3.46-11.23,2.19-1.61-.15-3.22.13-4.86.33-4.66,1.11-9.17.03-13.79-.11-2.87.24-5.39,2.07-8.03,2.51-4.67.69-10.42-.62-15.4.09-2.29.26-4.13,1.59-6.29,1.93-1.94.25-3.55-1.11-5.2-1.98-3.04-1.73-6.71-1.28-10.37-1.83-3.44-.54-5.93-1.34-9.45-.13-2.45.76-5,1.61-7.48,2.4-9.27,2.77-10.91,5.53-10.68-6.65-.05-3.93.5-7.99-.64-10.01-1.87-2.66-3.6-6.61-5.97-8.35-.87-.67-1.69-1.28-2.19-2.34-.8-1.97-2.29-7.65-.15-9.24,3.48-1.37,5.34-.69,4.79-5.24-.59-6.87-1.17-14.16.34-20.89.97-3.28,4.29-2.11,7.31-2.12,3.13-.34,6.11.38,8.96,1.72,3.02,1.25,5.52,1.44,9.26,1.1,2.78-.58,8.7.69,8.24-3.46-.04-3.6-.27-12.02-.38-16.48.12-2.06-.73-3.6-2.05-4.78-1.95-2.36,1.5-3.5,2.88-6.2,14.64-26.68-2.75-49.9,27.54-68.35,1.95-1.62,3.45-3.46,3.5-5.07.1-1.99-1.95-3.62-3.53-4.98-2.53-2.03-5.16-4.3-8.01-5.78-2.89-1.54-6.08-1.44-9.49-3.38-2.11-1.18-3.96-2.78-5.44-4.72-1.12-1.5-2.08-3.19-2.74-4.95-1.29-3.13-1.16-5.78-2.93-7.4-1.66-1.57-4.04-2.36-5.54-4.11-1.05-1.17-1.59-2.64-2.46-3.93-1.43-2.29-4.62-4.02-6.19-6.84-2.79-4.58-3.21-10.66-7.04-14.55-.92-.9-1.98-1.67-2.89-2.58-3.12-3-2.77-7.96-3.91-11.95-.51-3.91-1.59-9.87-.05-13.9,1.53-2.62,4.19-4.81,5.83-7.45,4.64-8.98,15.25-12.72,24.96-11.38,2.99.25,6.4-.45,9.2.9,3.91,2.54,8.01,5.29,10.22,9.34,2.11,5.82,5.17,4.58,9.69,7.14,2.53,1.53,3.73,4.16,5.13,5.5,1.43,1.45,3.29,2.03,4.48,3.79,2.38,4.26,3.04,8.03,7.44,11.26,1.83,1.61,3.82,3.48,5.74,4.87,1.59,1.25,3.45,2.06,3.65,3.82,0,.78-.89,1.74-1.05,2.55.11.46.35.34.72.4,2.28-.05,2.97-.07,2.87,2.49-1.16,8.56,2.74,14.81,8.81,20.41,3.98,4.17,7.37,9.75,11.9,13.23,1.38,1.17,3.36,1.85,4.63,3,1.18,1.31.57,2.61,1.71,4.12,9.29,8.04,12.55,25.29,22.73,32.28,3.67,2.91.66,5.7,2.29,10.31.4,1.39.85,2.89,1.3,4.24.91,3.33,4.98,8.18,8.22,7.5,1.66-.69,1.5-4.29,2.15-6.22.47-1.55,1.48-2.65,2.45-3.97,1.78-2.2,2.45-5.75,3.64-8.87,3.53-8.32,5.35-17.38,7.98-26,1.12-3.94,4.29-7.54,4.73-11.59,0-1.71-1.34-2.34-2.77-2.1-4.62,1.03-5.68-1.19-6.38-5.36-.54-4.23-1.7-7.93-3.23-12.52-.91-3.06-2.15-6.16-2.2-9.31.33-5.59,2.2-13.04,2.77-19.45.94-6.9-2.04-12.59-2.26-19.56.04-4.23-.3-17.06,6.1-14.69,2.37.97,5.94,3.28,9.04,4.28,5.31,1.73,10.92,1.4,16.14,3.47,6.64,2.36,13.52,6.22,20.27,3.71,1.73-.59,3.49-.99,5.21-1.19,2.44-.01,6.1-2.03,8.74-2.61,1.95-.35,3.25.85,4.99,1.36,4.07,1.34,10.38-3.12,12.72-4.28.36-.15.72-.21.91.13.09.17.13.44.16.78.36,7.49,1.99,43.14,2.26,48.94.13,3.49.61,9.17.39,12.43-.27,2.28-2.69,1.11-4.23,1.08-3.59-.4-7.46,1.83-11.49,1.74-7.07-.11-12.88-5.12-20.08-4.36-2.63.08-5.53.28-8.02,1.06-2.2.64-3.53,2.4-5.32,3.66-1.87,1.45-4.36,1.9-5.37,3.91-2.07,7.37-1.13,16.52-1.94,23.67-.21,6.34,1.01,12.55-.68,18.84-2.04,10.19-6.45,28-8.65,33.11-1.14,1.94-3.04,2.53-4.11,4.77-1.25,2.76-2.67,7.08-.33,9.31,1.17.99,2.76,1.46,3.9,2.53,1.68,1.37,2.46,4.22,4.14,6.64,2.85,4.39,7.68,6.28,12.36,8.3,3.21,1.53,5.99,3.94,8.78,6.18,6.89,4.48,6.87,11.31,12.94,18.03,3.15,3.35,8.04,3.84,11.58,6.68,3.14,2.8,7.75,4.6,9.67,8.28.81,1.56,1.15,3.37,1.84,4.98,1.4,3.73,5.36,5.44,8.02,8.19,3.03,2.85,4.26,7.54,8.09,9.51,3.41,1.07,6.61,3.25,9.15,5.42,2.76,1.7,4.61,5.17,4.13,8.34-1.05,3.42-5.92,4.72-8.86,6.44-5.78,2.35-10.07,6.4-15.42,9.77-3.68,2.39-8.76,2.59-11.73,5.96-1.44,1.94-4.4,4.41-6.47,4.04-2.35-.1-1.26-7.71-2.21-9.76-1.49-6.73-5.96-11.46-9.39-17.33-1.51-2.48-1.93-5.71-4.23-7.61-1.86-1.52-5.3-2.17-7.44-3.79-2.07-1.46-3.52-3.77-5.05-6.16-2.36-3.03-1.7-6.45-3.34-9.68-1.48-2.41-4.45-3.93-6.28-5.93-.8-.7-1.01-1.02-1.97-1.38-.88-.25-1.56.09-2.4-.24-1.45-.8-2.63-2.52-4.22-3.61-2.02-1.47-4.33-2.65-6.02-4.52-3.37-3.93-4.99-10.91-10.29-14.06-2.45-1.93-5.88-3.15-7.9-5.4-1.15-1.42-1.55-3.72-2.61-4.22-2.24-.49-3.31,3.03-5.26,4.65-1.69,1.81-5.07,2.3-5.72-.71-.72-5.42,1.9-11.4-1.18-15.42-4.14-5.99-12.86-9.84-18.92-14.07-4.47-3.01-9.5-6.17-12.89-10.61-2.41-3.08-4.33-6.61-6.9-9.57-2.27-2.73-5.4-4.6-8.13-6.81-2.72-2.26-3.72-5.56-6.91-7.44-8.66-5.68-7.75,7.58-10.65,12.43-1.82,4.07-5.44,6.23-7.22,9.79-3.55,6.8-1.9,14.83-2.93,22.14-1.81,5.98-3.37,11.32-3.43,17.81-.16,3.14-.73,6.28.17,9.16.38,1.52-.1,2.89.48,3.75.95,1.06,2.94.26,4.43-.18,4.05-1.71,7.62-3.55,12.19-3.96,3.54-.19,16.1-3.41,17.23,1.5.4,7.8-.85,21.6-.13,28.86.08,1.1.31,2.47.93,3.23l.12.13Z"/>
      <path class="cls-1" d="M1964.36,509.16c-.65-1.14-.56-2.88-2.15-3.38-3.61-.49-8.41.17-12.25.69-2.79.62-3.4,2.85-6.15,3.71-5.34.78-10.17,3.68-15.66,3.25-8.29-.71-16.03-3.23-24.65-2.25-7.69.14-16.89,9.55-24.09,5.42-1.85-1.07-4.09-3.07-3.86-4.42,1.4-2.94,4.64,1.45,6.64,1.55,1.94.22,4.78-1.75,7.48-1.95,3.16-.16,7.57-3.53,2.55-4.92-.67-.14-1.4-.15-2.07-.01-2.06.25-2.75,2.31-4.03,2.45-1.17.02-2.38-1.53-3.52-1.57-.85-.1-1.49.25-2.26.43-1.31.2-2.29-1.22-3.67-1.82-2.23-1.01-5.23-1.92-6.64-3.92-3.73-5.15.14-13.26,2.47-19.09.29-2.25-.65-3.26.84-5.18,1.1-1.29,2.4-2.88,3.59-4.02,2.6-1.7,5.66.71,8.91.79,7.77.61,16.87.83,24.14-1.42,3.6-1.41,6.74-4.81,10.77-5.1,9.28-.73,20.34,3.01,29.14-1.45,2.44-.89,5.19-.83,6.31-2.12.74-.74,1.01-1.79,1.79-2.5,2.41-1.81,6.33-1.04,9.33-1.89,14.98-2.65,29.2-3.08,41.93-10.75,1.74-.94,2.34-1.89,2.68-3.55.66-3.26,1.56-10.42,1.9-14.32.64-6.13-1.36-12.42-1.97-19.3-.34-2.69.81-5,1.5-7.37.77-5.33-2.46-10.82-2.98-16.16-1.31-7.27.13-15.4-1.32-22.56-.65-3.01-2.6-5.89-3.2-8.9-.54-2.98.42-6.13-.28-9.13-.73-3.64-4.17-7.39-5.15-10.47-1.61-5.48-1.63-14.73-2.4-20.11-.11-2.69-2.59-3.7-4.96-4.15-6.29-1.09-14.08-3.65-20.17-1.34-1.81,1.11-2.59.07-4.62-.39-3.36-.38-7.2.64-10.5-.48-1.27-.4-2.42-1.09-3.54-1.79-2.5-1.42-3.72-3.96-6.16-5.08-1.59-.66-3.62-.32-5.34-.62-4.49-.66-7.87-6.55-12.33-8.56-1.73-.88-3.84-2.01-3.49-4.14.76-3.54,5-4.56,6.58-7.65,3.1-4.81,5.89-12.14,10.35-16.39,2.53-2.43,2.77-6.11,5.08-8.85,1.66-1.97,4.52-2.51,6.09-4.52,1.83-2.26,2.86-6.32,5.75-7.35,1.72-.61,3.61.19,5.29.72,2.88.98,5.45.37,8.43.99,4.62,1.4,10.19,3.99,15.2,1.3,1.77-.86,3.22-2.19,4.9-3.16,2.19-1.37,5.33-1.42,7.55-2.56,1.36-.65,2.61-1.5,3.97-2.13,1.92-.95,4.1-1.25,5.46-3.37.89-1.32,1.36-3.04,2.48-4.15,4.17-3.17,7.6,5,10.13,7.39,7.54,8.32,16.04,15.81,23.5,23.63,3.66,4.03,8.42,8.6,12.83,11.41,1.16,1.19.5,2.51.92,3.74.21.99,1.42,1.77,1.89,2.64.81,1.88-2.46,3.01-4.11,5.06-2.95,3.26-1.63,8.77-1.39,12.44.17,2.54-1.67,4.69-2.24,7.25-1.47,9.81,1.75,21.31-4.12,30.25-1.24,1.89-1.35,3.88-1.39,5.73-.49,1.26-1.69,2.18-1.52,4.48.86,4.38-1.45,7.53-2.91,11.51-1.79,7.12-2.01,14.54-2.89,21.81,0,2.17-1.34,3.57-1.88,5.48-.13.94-.11,2.07-.42,2.89-5.65,15.7-6.49,34.23-7.55,51-.13,2.06-.86,4.18-.94,6-.22,2.74,1.41,4.9,2,7.53,1.42,9.37.02,20.48.99,30.25-.28,2.83-3.54,2.98-3.6,6.41-.06,1.59.09,3.31.02,4.91.05,2.23-1.05,3.85-2.42,5.38-.87,1.2-.83,2.36-.64,4.03.09,1.41.42,2.45-.51,2.95-.54.17-1.15-.05-1.71.12-.8.14-1.16,1.27-1.53,2.03-2.48,6.91-13.46,16.46-17.91,7.6-1.66-3.18-1.48-7.71-3.42-10.7-3.01-2.68-10.91-.83-16.85-.74-1.28.05-2.88.24-3.81.82-1.51.9-2.53,2.31-4.38,2.58-3.43.4-8.85.33-11.68.22-.79-.05-1.58-.36-2-.97l-.1-.15Z"/>
      <path class="cls-1" d="M1800.51,244.32c.44,1.98,3.13,1.18,4.61,1.76,3.29,1.17,6.3,5.11,8.9,7.24,5.24,4.97,8.93,13.75,14.18,20.19,1.39,2.01,3.81,3.16,5.28,4.94.23.37.48.51.24.82-.24.19-.89.21-1.6.41-8.45,5.56-3.98,28.62-5.34,39,.35,7.92-9.92,18.14-4.6,25.07.29.13.59.04.86-.14,1.15-.8,2.56-4.2,4.68-4.8,4.63-.9.66,3.96-.62,5.66-1.46,2.07-2.62,4.28-3.48,6.64-3.9,10.54-2.42,20.06-4.44,30.08-2.01,9.48-7.33,17.71-6.3,27.64,1.1,11.64-.86,23.59,1.37,34.92.71,4.24,2.78,7.07,4.56,11.05,4.54,10.82,9.76,21.25,15.79,31.4,1.43,2.33,2.17,4.94,1.57,7.65-1.45,5.16-1.55,10.12-5.76,14.21-3.03,3.06-6.01,6.93-9.72,9.01-3.43,1.77-8.03,2.72-11.73.72-5.15-2.42-10.45-4.56-15.37-7.3-4.36-2.13-3.66-6.56-4.31-10.93-.33-2.39-.48-4.86-.67-7.27-.47-7.14-2.04-10.44-3.82-16.47-1.24-4.68-.6-8.85-3.55-12.48-1.34-1.62-3-5.64-5.48-4.19-5.83,4.42-9.54,13.46-14.15,19.48-4.58,7.3-10.84,10.18-18.81,10.66-12.24,1.06-22.92,7.62-34.18,10.67-2.48.52-4.55-.71-6.85-1.26-3.05-.69-7.51,1.66-9.44,3.91-.88.83-1.65,2.35-2.91,2.21-.8-.39-1.45-1.61-1.87-2.51-1.51-3.19-3.65-5.75-3.32-9.5.7-6.65-.68-12.99-1.99-19.39-.53-5.69-.33-12.08-.3-19.09.33-2.61-.54-7.55,1.7-8.58,1.51-.51,5.21.83,8.09.29,2.22-.32,4.33-1.19,6.6-1.06,7.59.65,16.13,6.7,23.36,1.45,2.39-1.61,3.93-4.37,6.68-5.39,2.54-.94,4.57.43,7.18.41,4.87-.2,9.61-1.86,13.35-5.1,6.39-8.2,15.27-14.92,22.34-21.53,4.43-3.99,8.17-9.52,12.38-13.88,3.5-3.32,8.24-2.21,9.37-7.63,5.47-21.9-8.58-55.27-17.68-74.83-1.33-2.03-2.65-4.86-3.86-6.52-.51-.59-.96-.81-1.52-.81-1.94.18-3.52.45-5.52.28-1.96-.11-3.84.36-5.41-1.11-.55-.48-1.07-1.13-1.54-1.8-1.2-1.74-2.22-3.28-4.41-3.69-2.23-.39-4.71-.35-6.51.95-.9.56-2.13,1.88-3.02,1.53-.75-.37-.66-.38-1.18-.9-2.5-3.14-8.29-1.01-11.64-2.96-1.95-.94-2.54-3.19-4.31-4.3-1.39-.92-3.72-.48-6.07-.37-3.09.09-6.1.09-8.91,1.05-8.38,2.95.68-12.8.68-16.19,2.32-10.3,3.71-20.99,7.73-30.82.67-1.87,1.28-3.42,1.46-5.29.16-2.06-.03-4.62.98-5.23,1.94-.84,4.22,2.57,6.19,2.91,1.91.53,3.29-.62,5.25-1.02,9.54-1.8,16.65,3.62,26.72,1.04,3.77-.75,6.89-3.93,10.83-3.19,7.4,2.69,12.06-5.03,17.93-6.53,1.97-.33,3.6,1.01,5.19,2.02,3.3,2.16,6.24,2.76,6.12,6.62l.03.17Z"/>
      <path class="cls-1" d="M2627.98,416.17c0,1.18.74,2.09.24,3.91-.17.69-.73,2.06-.89,2.54-1.04,2.66-.83,5.8-.2,8.46,4.24,16.57,2,33.99.77,50.55-.95,7.44,1.22,15.23-.04,22.49-.9,4.44-4.47,9.34-5.44,14.04-.49,2.69-.97,5.96-4.32,6.21-7.56.56-6.49-1.88-7.42-7.78-1.22-4.13-4.7-9.19-5.12-14.51,0-9.02-4.53-1.27-9.16-.69-8.79,2.45-19.94,2.41-28.87,4.77-6.12,2.83-12.69,1.64-19.28,1.27-.82-.02-2.15-.25-2.1-1.02.24-1.57.06-2.1-2.12-2.16-2.84-.03-7.98.4-11.19.76-3.11.09-4.95,2.64-7.86,3.39-2.15.53-4.58-.34-7.05-.13-5.87,1.18-11.65,2.85-17.72,2.75-3.86.33-14.97,8.34-15.77,1.14-.72-3.58.93-9.02-.74-12.14-1.36-2.09-3.54-3.34-3.99-6.05-.89-4.33-1.04-11.6.47-14.74,1.42-2.82,5.44-2.98,7.97-4.3,3.66-2.06-2.7-1.69-4.74-1.52-1.61.17-3.02-.68-3.17-2.4-.65-3.61-.38-11.16-.52-15.74.04-2.37-.87-4.6-1.31-6.87-.65-3.1,2.22-3.18,4.63-3.88.99-.29,2.02-.84,2.99-1.13.48-.14.87-.04,1.17.34,1.34,2.74,4.61,1.38,7.41,2.24,5.52,2.06,11.32,4.92,17.43,5.54,7.03.55,15.27,1.46,22.65,1.72,2.37-.28-.23-2.15.79-2.81,1.35-.51,3.59-.34,5.7-.86,15.66-5.93,33.36,3.3,50.09-.66,1.62-.1,2.27.78,4.02,1.06,3.11.47,5.53-2.42,5.42-5.4,1.46-20.77,1.17-41.55-1.86-62.35-2.18-8.19-3.52-15.85-4.73-24.13-1.46-13.02-2.59-26.16-.86-39.26,1.31-7.63-4.16-6.08-9.12-8.9-5.33-3.64-12-7.36-18.32-8.02-2-.14-4.34.48-6.01-.84-.69-.52-1.22-1.27-1.89-1.79-1.68-1.27-2.61,2.43-5.83,2.64-2.5.17-5.62.11-7.15-1.9-.7-.94-1.08-2.15-1.9-3.03-2.67-3.04-10.16-.52-13.43-4.56-6.31-9.66,3.22-32.38,4.9-43.71.7-6.23,7.41-3.37,11.92-4.77,12.01-3.3,19.5,6.67,32.4,5.02,6.94-1.1,13.5-3.66,20.13-5.77,4.36-1.67,6.07-.6,6.07,3.78.34,6.52,1.55,12.75,1.7,19.24-.25,7.9,1.54,15.8,9.41,19.32,4.95,2.31,9.02,6.04,11.52,11.27,4.68,10.6,9.5,26.87,11.29,39.61.42,4.91-1.31,12.84-1.01,18.96.4,4.45,2.94,8.24,1.63,12.79-1.65,8.78-6.84,20.62-8.81,29.12-1.26,4.53-.15,9.68-.98,14.27-.44,2-1.75,3.36-1.8,4.44v.16Z"/>
      <path class="cls-1" d="M3060.94,250.56c6.86,6.25,15.44,16.12,25.84,14.05,1.34-.09,1.85.64,1.41,1.79-3.9,7.08-5.43,7.61-1.53,15.85,2.31,6.69,11.62,6.61,15.83,11.8,2.6,3.45,1.16,8.82-1.1,12.06-1.87,2.41-4.86,4.49-5.45,7.7-.61,3.7,4.37,3.32,5.76,5.73,12.82,26.37,12.21,37.47,10.07,65.5-.27,19.33,1.99,39.93.92,59.2-.9,13.87.73,15.29,14.73,14.63,1.28-.09,2.55-1.27,3.72-.83,1.56,2.01,1.88,6.75,2.1,9.37-.03,1.69-2.99-1.12-5.45-1.13-1.34-.24-5.1-.11-2.2,1.47,2.75,1.34,6.03,2.83,7.36,5.82,1.01,2.15,1.46,5.47-.02,6.17-1.05.29-2.22-.44-3.26-.61-.53-.19-1.4-.01-1.31.77.39,3.08,4.98,2.88,6.72,4.82,1.36,1.62.78,4.94-1.31,5.19-1.04.11-2.08-.44-3.11-.51-1.72-.22-3.18,1.39-3.74,2.88-.42,1.24-.26,2.11,1.15,2.13,1.81.2,6.31-3,5.94-.05-1.18,4.06-1.08,8.17-1.94,12.52-.83,3.17-2.47,5.38-2.61,8.56-.12,1.3.04,3.14-.63,4.09-.47,0-.83-3.55-2.47-3.75-4.88-.83-12.87,1.2-18.47.43-5.05-.86-10.67-5.01-17.23-4.42-2.61.22-5.17.74-7.78.3-3.43-.5-7.74-2.24-10.13-1.29-.94.32-1.78.92-2.72,1.18-2.06.59-3.83-1.11-5.62-1.94-4.4-1.68-10.6-1.27-15.24-1.26-2.25-.04-3.44,1.67-4.99,2.96-2.27,1.53-6.08,1.41-8.8,1.71-13.01.64-27.46-2.97-40.76-1.39-2.81.55-4.95,2.84-8.21,3.07-1.84.16-3.66-.65-4.97-1.97-1.3-1.29-2.36-2.84-2.95-3.08-.77-.5-1.61,2.17-2.11,1.7-.72-.64-.81-2.96-1.65-4.62-4.83-6.86-6.61-15.55-9.37-23.48-1-2.06-3-2.94-4.02-5-.95-2.22-1.71-5.84-1.13-8.42.7-1.93,3.67.21,5.74-.75,4.66-2.35,4.66-11.98,11.21-10.62,3.99,1.02,8.78.47,12.53.62,2.9.22,5.84.72,8.78.8,12.3.6,23.62-5.56,34.77-2.98,2.06.65,5.28,1.32,7.11,1.89,1.51.51.72,1.48,1,2.54.13.32.55.54,1.24.69,3.92.47,8.74.17,12.8.13,4.25,0,7.06-1.25,10.84-1.79,5.41-.55,11.02-.53,16.44-.11,3.36.41,4.49-1.61,4.2-4.69-.41-9.83,1.55-19.64-.48-29.72-1.14-6.41-3.59-12.6-3.73-19.12-.2-7.01,2.14-16.21-5.11-20.15-.33-.31-.52-.67-.69-1.07-.26-1.47,1.98-2.79.74-4.02-2.38-2.36-4.39-5.19-4.96-8.58-1.46-6.09-3.51-18.94-4.23-25.38-.81-3.92,1.29-9.32-.32-12.76-.91-1.57-2.78-2.18-4.41-2.84-3.73-1.51-6.77-2.72-11.01-3.58-5.48-1.25-11.94-2.16-13.4-8.53-2.61-4.55-1.81-10.4-5.14-14.62-1.68-2.1-3.53-3.25-4.4-5.35-2.13-5.62-1.73-12.79-3.28-18.68-.69-2.77-.43-5.54.29-8.27.99-3.85,1.15-8.8,2.85-11.71,1.34-2.44,4.89-3,6.47-5.21,1.72-2.77,1.62-7.36,5.32-8.86,5.55-2.14,14.85-.45,19.34,2.86l.2.17Z"/>
      <path class="cls-1" d="M2281.72,240.03c11.3,8.6,24.32,4.38,36.9,7.42,10.02,3.71,20.05,2.1,29.47-3.41,1.7-.97,3.33-2.43,5.28-2.59,2.78.03,5.58,2.32,8.37,3.04,9.96,3.21,16.43,1.48,26.36.55,6.5-1.04,13.08,1.15,19.55.08,2.18-.39,5.86-1.65,6.74-.55.96,1.35-.96,3.03-2.26,3.44-2.2.88-4.63-.89-6.48,0-1.25.7-.74,2.27.26,3.05,2.38,1.91,7.23,1.41,10.3.49,3.04-1.06,4.37-2.86,7.47-2.88,4.66-.03,7.9,1.37,8.4,6.44,1.32,4.68,2.59,9.66,3.72,14.51,1.02,3.75,4.81,4.93,8.21,5.55,5.58,1.51,11.76,4.84,15.15,9.3,2.31,3.19,2.9,6.23,3.95,10.54,2.38,11.03,4,24.06,3.95,34.58.44,7.94-4.31,14.76-7.24,22-6.37,21.1-11.93,38.17-22.75,53.44-9.45,14.18-22.53,28.64-29.92,44.71-6.08,7.44-17.35,14.68-25.09,20.98-6.34,4.71-13.04,10.83-19.34,15.48-1.23.87-2.48,1.19-3.56.83-2.26-.78-1.74-3.62-.2-5.31,4.1-5.12,8.88-9.88,12.31-15.39,1.49-2.41,3.28-4.59,5.2-6.69,7.58-8.2,7.35-20.78,16.29-28.08,13.38-13.36,14.71-25.86,22.29-41.24,2.61-5,7.22-9.37,8.95-13.89.68-2.11.4-4.35.55-6.55.48-5.54,3.42-10.95,4.42-16.44,1.76-7.45-2.6-15.31-4.25-22.44-1.27-4.64.1-9.89-1.49-14.42-1.16-3.12-4.23-6.78-5.26-9.82-2.33-8.54,7.37-15.29-7.42-16.04-1.64.11-2.47.48-3.76.21-.69-.17-1.25-.53-2.04-.66-4.41-.51-16.95-.51-25.31-.39-3.44.13-6.36-.11-9.56.8-2.79.75-7.14,3.02-10.21,4.14-2.4,1-4.86.26-7.1-.78-2.09-.85-4.2-1.38-5.56-2.41-1.24-.83-2.08-2.05-3.34-2.87-3.23-1.73-7.46-1.44-11.1-1.5-5.98-.02-10.82,2.26-16.6,2.69-9.49.73-19.07-2.77-29.07-1.42-4.82.58-10.23,1.89-15.26,1.73-4.08-.12-7.8-.72-11.93-.59-4.83-.01-11.58-.08-14.79-3.94-1.48-1.94-1.35-3.49-.36-5.31,3.41-6.73,17.8-35.09,21.21-41.82.54-1.32,1.51-1.06,2.74-1.1,1.43-.13,2.82-.73,4.69-.24,2.68,1.01,5.91,1.81,8.29,2.63l.25.11Z"/>
      <path class="cls-1" d="M2195.19,308.5c-1.59.97-3.96,3.32-4.85,5.65-10.28,22.26-23.05,42.57-34.15,64.07-2.62,3.17-7.23,21.54-11.09,19.26-1.56-1.41,0-5.09,1.07-6.93,10.95-19.37,17.69-40.75,26.62-61.03,1.54-3.82,4.2-7.37,5.95-10.83,1.09-2.1.86-4.97,1.72-6.78.49-1.38,1.87-2.23,2.14-3.54.06-.73-.36-1.63-.51-2.36-.45-1.73,1.63-1.5,1.91-3.43.38-4.63-3.13-6.64-7.33-5.56-1.87.32-2.71,0-4.91-.31-2.32-.27-4.78.54-7.12.7-5.04.58-9.59-2.71-14.65-3.06-3.61-.24-7.06,1.1-10.26-.84-3.85-2.52-8.53-.17-13.04-.33-1.6,0-3.21-.1-4.82-.08-4.34.12-7.5,1.46-11-.77-.59-.23-1.25-.43-2.03-.47-7.73.54-8.41,1.78-14.16-4.29-3.19-2.7-6.55-5.25-9.81-7.86-1.23-.98-2.53-2.26-2.61-3.85.07-3.05,2.12-5.91,3.43-8.67,6.21-10,15.47-17.33,18.42-29.11,1.64-5.22,4.19-2.11,6.94.18,2.56,1.99,5.88,1.72,8.97,1.93,7.91.72,16.29,1.63,24.4.88,7.29-1.51,14.81,0,21.87-2.93,2.6-1.14,4.12-2.17,6.37-2.3,2.54-.22,5.41.07,7.57-1.56,1.91-1.37,3.89-4.21,5.36-5.23.99-.74,1.64-.63,2.16.14.72,1.16,1.79,3.46,3.27,6.32,4.38,8.62,13.21,25.97,15.7,30.9.91,1.73,1.02,3.53,1.05,5.53.09,5.06-.63,7.74-2.68,13.27-2.02,5.7-4.46,12.2-6.65,17.67-.94,2.2-1.72,4.65-3.08,5.5l-.16.12Z"/>
    </g>
    <g>
      <path class="cls-1" d="M972.27,253.43c.89.77,1.62,1.68,2.39,2.57,2.31,2.58,4.89,4.29,6.62,7.01,1.16,1.44,3.52,1.22,5.04,2.59,1.22,1.13,1.91,2.84,2.88,4.22,3.62,4.98,8.18,8.74,10.43,14.78,1.88,4.56,1.25,8.41,2.74,12.45,2.31,5.47,5.3,11.6,7.98,16.49.83,1.55,1.69,3.68.91,5.11-.45,1.18-1.12,1.76-1.33,3.03.06,3.34,4.01,5.26,5.54,8.07,7.77,11.27,16.74,25.14,30.05,30.33,1.55.4,3.11.15,4.69.31,2.06.08,3.96.91,5.33-.17,1.61-1.36,2.38-3.92,3.48-5.74,2.76-5.09,8.29-9.09,12.45-13.51,2.85-3.01,7.51-6.99,9.3-10.09.18-.77-.7-1.1-1.32-1.48-1.98-.91-3.52-2.96-5.18-4.39-3.02-2.5-7.27-.67-10.68-1.96-3.96-1.45-7.94-3.66-11.69-5.71-2.19-1.51-5.87-2.81-6.35-5.14-.17-1.49,1.42-3.3,2.46-4.6,4-4.82,8.74-9.67,13.18-13.58,4.34-3.89,10.1-6.4,13.57-11.2,1.59-2.19,2.01-5.1,2.58-7.38.84-3.26,4.02-5.44,7.04-6.69,3.04-.86,6.3-1.86,8.93-.03,1.35.97,2.58,2.46,4.16,3.16,2.48,1.18,4.73.21,6.94-.2,1.58-.34,3.24-.33,4.81-.75,3.06-1.18,4.5-1.09,7.29-.51,7.34-.19,13.49-8.67,20.26-10.52,1.14-.32,3.76-.95,2.74.83-.16.42-.58.9-.4,1.36.17.4,1.27.48,2.88.38,2.8-.28,6.02-.12,8.57-1.46,1.29-.7,2.18-1.98,3.02-2.96.64-.61.8.52.96,1.04,1.5,7.4,7.87,39.09,9.35,46.5.23,1.16.13,2.02-.8,2.3-1.38.48-4.35-.36-5.84-.43-1.33-.07-1.85.55-2,1.76-.47,6.07-.56,24.86-1.21,31.51-.38,1.38-.64-.78-2.88-1.69-3.06-.98-7-.73-10.2-1.62-9.58-2.5-19.04-6.49-29.3-6.77-3.47.23-8.46-1.5-11.19.78-1.63,1.95-1.43,4.92-1.98,7.32-.65,4.48-1.9,8.99-1.73,13.47.09,2.83.46,5.58-.32,8.35-1.34,4.68-3.77,10.89-6.64,15.06-1.7,2.27-4.27,3.48-5.78,5.93-1.09,1.7-1.77,4-1.78,6.03-.05,2.92,2.3,4.66,4.55,6.51,1.1.92,2.16,1.57,3.14,1.79,2.96.26,5.16,1.18,7.64,3.07,10.02,5.52,12.35,17.69,23.12,23.46,4.14,2.76,9.16,2.32,13.42,4.67,4.11,2.17,5.91,5.94,9.12,9.93,3.21,3.63,7.37,6.98,9.49,11.27,1.38,1.88,3.69,1.71,6,3.51,1.92,1.48,2.9,3.88,4.8,5.37,1.34,1.1,2.92,1.79,4.24,2.88,2.36,2.07,4.31,6.18,7.06,8.82,2.37,3.16,6.53,6.47,7.14,10.24-.27,2.87-3.91,4.84-6.54,6.68-7.37,4.84-13.91,7.85-20.13,12.25-4.46,3.32-9.87,7.9-15.4,8.52-1.32-.12-2.87-1.91-3.82-3.25-2.51-3.23-3.99-6.65-5.31-10.4-.53-1.4-1.09-2.79-1.89-4.04-1.38-2.25-3.9-3.98-4.69-5.85-.4-.75-.72-1.5-1.21-2.2-.89-1.25-2.02-2.07-3.19-3.08-1.88-1.38-2.93-3.9-4.69-5.11-1.53-1-3.38-1.03-4.99-1.92-3.5-2.17-6.74-6.96-9.14-10.19-2.21-3.17-1.46-7.15-3.79-10.19-5.06-8.1-31.47-10.52-30.11-22.1-.13-.77-.58-1.01-1.21-1.5-1.14-.75-1.99-1.93-2.84-3.09-1.91-2.62-5.2-4.82-8.09-5.74-2.44-.75-5.17-1-7.36-2.43-1.76-1.11-3.12-2.71-4.68-3.81-2.32-1.68-5.13-2.51-7.24-4.47-5.66-5.09-13.44-14.57-20.67-22.07-4.99-4.61-8.44-9.66-14.78-10.75-4.24-.11-9.04,1.69-11.48-2.74-2.54-3.27-5.53-9.51-9.61-10.43-.99.2-1.02,2.31-1.64,5.32-1.58,9.87-4.55,22.96-5.72,32.79-.3,4.59,2.76,12.69,1.8,18.09-.54,2.81-1.8,5.47-1.44,8.38.63,4.78,2.56,9.68,2.9,14.55.51,5.4-1.34,10.92-1.05,16.49.06.54.06,1.17.5,1.35.45,0,1.53-2.85,2.48-2.64.12.02.23.07.34.16,1,1.11,1.1,2.55,1.3,4,.55,7.69.69,15.48,1.35,23.19.39,3.39,1.56,6.47,1.14,9.86-.93,6.96-5.31,15.96-5.96,23.67-.14,1.03-.19,2.16-.41,2.96-.09.28-.13.45-.38.5-.52.08-2.28-2.01-4.99-2.43-1.44-.26-3.03-.26-4.41.17-1.8.44-3.04,1.96-4.91,1.66-1.8-.48-3.54-2.03-5.4-2.56-3.3-1.07-6.11.22-9.3-.15-1.88-.17-3.83-.49-5.7-.11-1.33.23-2.64.69-3.92,1.08-2.48.89-4.6.8-6.95,2.25-3.63,2.07-10.64,8.58-14.04,5.16-2.06-4.98.3-11.59-1.35-16.8-.73-2.67-1.79-5.56-2.15-8.45-1.57-14.21-3.48-27.86-3.72-41.99.42-3.98,2.98-4.44,6.85-2.77,3.31,1.52,7.35,1.4,10.67,2.25,2.78.92,4.58,2.99,7.73,2.31,2.01-.32,4.1-1.41,6.11-1.5,2.33-.18,4.45,1.31,6.89.93,1.45-.25,2.68-1.14,3.55-2.32,3.15-4.32,2.65-13.14,2.32-18.88-.21-6.03-2.25-14.82-2.16-19.97,1.08-8.15,4.36-16.41,6.57-24.55,2.46-7.62,3.78-14.01,8.24-21.04,2.26-3.94,5.04-8.44,7.08-12.34,1.06-2.07,1.46-3.24.67-4.9-1.71-3.33-8.28-9.67-12.97-11.95-2.52-1.1-5.15.08-7.29-2.03-3.26-3.43-8.39-8.76-11.2-13.22-1.52-2.52-4.6-3.49-6.63-5.47-1.52-1.64.01-3.94-1.3-6.35-2.37-3.52-6.29-7.43-9.95-9.55-2.04-1.27-6.38-.22-7.02-.85-.33-.32-.3-.4-.43-.69-1.6-5.51,4.53-9.17,7.39-13.19,4.78-6.08,10-13.05,13.09-20.17.99-1.32,2.51-2.13,3.94-2.97,6.22-3.99,8.93-12.07,14.63-17.29,1.94-1.83,3.9-4.75,6.45-5.49,1.62-.22,3.35,2.17,5.73,3.95,1.77,1.43,3.9,2.27,5.65,3.69l.22.18Z"/>
      <path class="cls-1" d="M1373.53,244.71c-14.64,3.33,6.41,4.65,9.66,3.7,2.9-.35,4.34-4.16,7.38-3.3,6.09,2.93,11.32,9.2,17.29,11.62,2.5,1.54,6.45,1.79,7.97,4.39.71,5.25-1.76,11.48-1.36,16.88.3,12.87,3.62,25.82,6.03,37.88,3.33,24.18.26,57.69-.64,78.81-.85,5.87,2.31,12.52-1.13,17.99-1.85,2.52-4.56,3.9-5.58,6.92-5.79,18.39,5.5,9.31,12.14,18.31,2.35,3.87,1.47,9.02,1.35,13.41-.12,2.74-2.07,4.53-3.92,6.28-1.62,1.66-1.88,3.43-3.74,4.53-1.02.57-2.24.87-3.4,1.21-4.01.72-7.06,4.22-10.96,4.51-4.72-1.51-10.9-2.11-15.24.97-2.77,2,3.53,2.61,4.8,2.92,1.84.24,4.37-.74,5.54.96.33.54-.02,1.14-.61,1.3-1.92.49-4.21-.58-6.47-.14-1.55.18-3.06.59-4.56,1.05-8.18,2.74-19.45,7.51-26.52,12.1-2.86,2.14-3.91,5.21-7.38,5.99-5.57,1.09-12.74,2.32-18.06,2.52-8.1-.95-10.83,8.27-17.05,11.1-1.7.7-4.06.4-6.18.98-2.35.6-4.49,1.73-6.91,2.33-12.09,2.75-25.25,2.22-37.51,4.63-3.66.53-6.56,2.76-10.12,3.21-2.7.27-6.05-.02-7.99-.96-3.68-1.98-4.21-8.59-5.93-13.44-1.54-6.32-8.73-7.79-4.48-14.97,1.73-3.98,2.23-8.62,5.21-11.22,1.57-1.5,3.79-2.28,5.09-4.03,1.59-2.46,1.98-6.23,2.31-9.22.32-4.22-1.43-7.77-1.12-10.83.59-4,1.22-7.92-.23-11.92-4.54-10.44-4.29-20.64-9.29-31.2-1.53-3.07-3.47-5.98-4.24-9.32-.52-4.24-1.46-8.44-3.45-12.26-.58-1.68-.29-3.45.05-5.19,1.17-5.34,2.01-11.41.22-16.73-.88-3.01-2.17-7.19-3.17-9.74-.66-1.65-1.36-2.42-2.84-2.32-.55.03-1.13-.57-1.32-.96-.61-1.11-1-2.44-1.51-3.64-3.11-5.97.33-13.81-1.48-20.09-3.17-5.56-2.28-12.63-3.7-18.54-1.24-4.98-5.1-9.24-6.52-14.08-.66-2.76.29-5.9-.5-8.88-1.67-4.55.44-8.05,4.94-10.52,13.1-5.2,25.36-12.11,38.21-17.94,6.42-3.48,5.74,3.1,7.37,7.27,1.44,4.69,6.82,6.99,7.13,12.13.11,2.81-1.18,5.15-.98,8.26.17,2.84.09,6.06.91,8.76.99,2.52,3.7,1.89,4.38,4.54.35,1.25.23,2.73.33,4.07.54,5.05,1.91,8.47.77,13.03-.36,4.49,2.96,8.91,3.28,13.49.26,2.8-1.26,5.27-1.9,7.79-1.52,10.39-.02,21.07.89,31.65,1.03,8.42,2.37,16.21,1.62,25.24-.33,4.07-.74,8.19-.72,12.25-.14,4.55.47,9.23.16,13.76-.14.41-.01.92-.47.8-.53-.5-3.03-2.6-4.83-1.23-3.85,2.27.68,5.18,2.25,7.31,2.16,4.08,4.75,11.42,6.31,15.66,3.01,5.04-5.95,17,3.73,16.66,4.95-.53,10.62-2.42,15.75-2.46,8.94-.22,16.34.06,25.78-2.59,5.13-1.42,9.79-2.83,15.09-3.63,10.1-1.37,20.37-3.39,29.75-6.92,2.82-.52,3.81,3.49,6.63,2.83,5.89-1.71,12.03-8.33,16.45-12.83,1-1.68.51-3.91,3.29-5.03,1.78-.71,4.05-.74,5.83-1.16,3.46-.72,1.86-7.71,1.96-10.85-.37-3.51-2.89-5.94-3.78-9.41-6.78-31.31-1.8-71.26-.2-103.47.65-6.85,4.93-18.3-1.91-23.2-1.65-.97-3.88-.93-3.56,1.85.48,3.45,2.04,8.89-2.26,9.89-5.08,1.74-14.94,2.51-21.11,3.88-2.13.66,1.72,2.36,1.22,3.36-8.07,3.34-14.96,5.68-18.17,14.91-3.61,7.89-5.73,17.14-11.31,23.84-4.31,4.7-13.62,10.27-19.44,14.7-3.32,2.4-6.07,6.42-9.95,7.91-3.23,1.2-7.55-1.21-7.5-4.74-.06-1.29.24-2.75.35-4.31.41-7.82,1.35-18.87,1.29-25.97.19-4.36-2.58-8.09-1.87-12.51.53-5.91,3.74-10.73,6.31-15.87,3.02-6.78,2.43-14.91,3.65-22.34.42-6.42,5.87-10.4,8.42-15.95,1.42-2.74,2.33-7.29,3.53-8.72,2.31-1.89,5.87-.29,8.67-1.99,5.19-2.21,10.94-6.47,16.34-7.15,5.39-.47,12.33,1.03,17.45,1.42l.02.03Z"/>
      <path class="cls-1" d="M862.13,251.58c1.68,1.66,1.76,6.14,3.12,8.78.62,1.48.65,2.77.62,4.31-.11,1.94.82,5.16.97,7.81.08,2.41,1.35,4.56,1.73,6.89.19,1.6-.47,3.52-.23,5.66.36,2.5,1.17,5.16-1.54,6.71-9.91,4.31-13.01,15.66-19.19,23.28-1.15,1.11-4.03,5-5.45,3.99-.56-.68-.03-4.3-.6-4.85-.15-.18-.34-.17-.55-.06-.97.63-1.65,2.09-2.01,3.22-1.06,2.67,1.14,4.71-.49,6.78-20.34,12.8-28.55,33.81-42.82,52.29-10.62,8.84-16.9,24.01-26.02,33.68-4.95,4.78-6.67.62-3.51-4.06,8.63-14.41,23.86-27.98,30.86-43.95,1.97-4.78,3.45-10.17,5.15-15.16,1.42-3.86,2.16-7.07,4.97-9.72,2.21-1.9,5.93-4.33,6.68-8.04,1.38-4.92-1.72-10.37-1.92-12.91-.07-1.05.83-1.68,1.4-2.38.82-1.08-.59-2.14-1.13-3.07-1.51-1.69-1.4-4.42-2.28-6.31-.81-1.5-2.51-2.21-3.96-3.03-2.89-1.49-5.21-3.92-8.48-4.59-2.35-.58-4.74.1-6.75,1.24-1.68,1-3.71.89-5.52.98-.68.05-1.2.29-1.31,1.04-.31,4.87-13.84-2.32-17.44-1.81-5.87-.35-12.83-1.01-18.43.67-2.27.72-3.93,2.9-6.03,3.56-1.34.4-2.64-.27-4.78.15-2.06.47-4.38,1.14-6.57.94-3.11-.19-5.53-1.69-7.78-2.2-3.7-1.06-10.61.63-11.38-4.45-.76-7.67,4.06-31.49,7.24-38.15,1.92-3.26,6.49-6.61,10.4-6.76,1.59,0,3.34.49,5.12,1.1,4.19,1.46,8.32,3.77,12.79,4.17,7.15.46,14.81-2.6,21.19-4.8.62-.42.91-.56,1.54-.95,1.64-.91,3.98-.37,5.83-.14,4.72.56,9.9.91,14.57-.27,4.66-1.96,8.87-5.46,13.91-6.89,18.69-9.14,26.45-2.51,43.96,3.91,4.05,1.75,10.95,1.11,13.94,3.26l.17.16Z"/>
    </g>
    <g>
      <path class="cls-1" d="M272.25,239.53c3.32,2.41,7.42,1.92,11.23,2.05,4.9.22,9.75,4.82,14.63,6.21,4.8.96,9.64-.34,14.51.76,1.27.11,2.64.52,3.7,1.14,1.02.55,1.45,1.03,2.04.8,1.08-1.22,1.36-3.43,5.05-2.2,7.97,1.6,17.34-2.23,25.14-3.84,5.23-.6,7.62,4.84,9.59,8.76,1.91,3.49,5.23,5.67,7.82,8.65,4.36,4.88,7.24,10.3,10.77,15.88,1.66,3.39,5.17,6.66,4.36,10.27-.5,1.12-2.22-.06-2.76.07-.7.87.04,2.55-.15,3.63-.1,1.85-1.45,1.82-2.97,2.99-.88.66-1.65,1.58-2.17,2.61-1.73,2.99-1.21,7.53-2.2,10.05-.73,1.8-1.9,3.41-2.38,5.35-.56,1.92-.14,3.96.06,5.89.3,2.41-.77,3.8-.6,6.6.93,4.86,2.05,10.39,1.94,15.52.18,13.16,2.87,22.32,5.59,34.4,1.13,3.55,6.56,30.32,11.84,25.89,1.33-1.65,1.58-4.18,2.07-6.23.46-2.82,2.2-5.2,2.07-7.47-.04-2.29-1.65-4.22-2.07-6.42-.82-5,2.26-9.63,3.42-14.38,1.81-6.31.96-12.57,2.87-18.34,1.79-5.71,5.43-11.29,5.39-17.41-.06-5.75-5.68-9.41-6.96-14.84-1.2-4.11-.17-8.43-.97-11.8-.86-3.89-3.8-7.4-6.61-9.96-.45-.51-.44-1.07-.21-1.53,1.2-1.88,1.75-3.48,3.27-5.59,1.79-2.06,4.36-4.25,6.28-6.39,6.46-7.58,11.18-14.56,17.97-21.57,2.65-2.91,6.22-5.42,7.12-9.32,1.28-3.41,4.93-.46,8.17-1.35,5.43-1.56,10.65-3.45,16.15-4.83,2.89-.55,4.19,1.37,7.19,2.91,2.95,1.22,4.53,4.41,7.25,5.75,1.15.46,2.44.57,3.56,1.12,1.82.81,2.87,2.92,4.81,3.81,2.42,1.02,5.04.4,7.61.11,2.38-.56,5.47-.17,6.67-2.58.6-1.48.32-4.38,1.28-6.01.38-.69,1.01-1.32,1.73-.94.77,7.63-8.67,63.89-9.25,72.35-.1.46-.28.66-.67.49-.85-.35-2.93-2.78-5.01-2.28-3.29,1.31-6.08,3.95-9.82,4.23-6.12.99-3.98,5.13-6.73,7.68-2.11,1.4-4.26-1.47-5.87-1.04-1.45,1.11-2.32,3.06-4.03,4-3.08,1.93-7.39,2.53-10.48,4.46-5.94,3.4-7.25,10.54-8.59,16.7-1.77,7.73-5.8,16.05-8.95,23.75-2.95,9.28-7.43,6.29-13.04,11.99-5.25,5.59-5.04,13.38-9,19.45-1.38,2.27-3.19,4.71-3.08,7.46.09,3.72,3.61,6.2,5.39,9.35,2.05,3.07,1.81,7.93,5.33,9.82,1.79.82,3.92.75,5.88.82,5.54.16,9.56.21,11.19-4.62.19-.3.32-.33.46-.01.21.56.5,2.11.55,2.98.2,9.18,5.16,18.22,4.42,27.33-.02,1.82,1.39,4.58-.85,4.64-2.49-.4-3.26-3.6-3.56-6.47-.46-5.06-.41-6.19-2.06-1.82-1.54,3.16-2.27,5.58-.33,8.46,1.21,1.96,2.16,4.72,4.12,5.85,1.24.1,2.22-3.4,3.75-2.64.87.64.68,1.6.46,2.97-.67,2.84-1.66,5.76-1.35,8.73.87,10.29,11.12,24.58.18,31.99-5.24,1.15-4.39,1.86-5.58,6.09-.11.11-.22-.26-.38-.94-.09-.41-.22-.94-.36-1.49-.9-6.24-6.83-2.82-12.35-2.41-2.76.57-6.6-.98-8.98-.28-.15.31.38,1.18.32,1.76-.24.74-.96.53-1.75.4-8.89-2.2-18.54-2.77-27.65-3.82-.55-.09-1.04-.23-1.44-.46-1.78-.9-1.39-3.34-2.22-4.55-.4-.54-1.13-.74-2.2-.73-3.16.16-8.21.79-11.57,1.78-4.39,2.35-8.33,6.43-12.95,8.3-1.97.47-4.18.23-6.21.55-3.35.38-6.49,1.81-9.05,1.09-2.28-.63-4.19-2.22-6.37-3.15-4-1.8-7.9-1.79-12.48-2.04-7.48-.45-14.63.5-21.74,2.72-2.65.41-4.21-.79-6.57-.6-1.4.07-2.92.66-4.37.75-3.88.59-6.79-2.76-10.24-3.34-2.58-.46-6.52.2-8.87-.3-2.41-.48-2.85-2.58-3.05-4.75-.61-7.48-1.54-15.19-1.5-22.71.07-5.78.9-11.51.6-17.33.23-3.79-.92-9.4,2.04-12.2,1.59-1.16,4.71-.3,7.14-.81,3.21-.63,5.7-3.84,9.24-3.32,3.93.98,7.57-.27,11.34,1.01,1.3.47,2.67,1,4.07,1.19,3.65.39,6.9-1.18,10.15-.31,1.92.25,3.74-.17,5.57-.25,2.06-.13,4.27.59,6.39.23,7.81-1.78,15.81-6.54,24.45-2.3,3.7.91,8.55-1.35,12.79-.62,1.26.09,2.64.23,3.84.13,3.04-.37,4.53-2.38,7.32-2.87,5.71-.76,9.99-4.84,15.68-6.43,3.55-1.38,7.52-.57,11.06-.67.16-.11.22-.06.34-.39.06-1.05-.56-1.92-.82-2.94-1.08-3.04.51-6.36-.27-9.8-2.72-11.45-16.58-15.45-19.4-26.77-2.11-5.27-5.7-9.87-8.9-14.48-4.03-5.06-6.46-12.97-10.27-18.69-2.19-2.8-6.38-2.3-8.53-5.05-3.12-3.69-5.71-11.68-8.9-16.07-1.16-1.63-2.88-2.33-3.92-3.89-1.13-1.93-.86-4.01-2.32-6.23-3.02-5.65-8.36-8.16-13.32-11.65-5.58-4.45-9.56-9.5-13.94-14.63-.76-.94-1.41-1.88-1.62-3.04-.34-2.8,2.69-8.74-1.98-10.05-1.96-.46-5.66.72-8.5.1-2.95-.64-5.36-2.94-8.51-2.7-4.28.28-9.49-1.17-13.16-4-2.14-2.47-1.3-6.39-.51-9.51,1.02-2.97,4.12-4.24,4.67-7.36,1.34-7.93,5.47-15.07,5.91-23.21.29-4.22,3.21-7.24,4.15-11.02.59-1.78.97-2.43,3.22-.93l.25.15Z"/>
      <path class="cls-1" d="M119.22,237.75c-.94.61-4.33.62-5.24,1.37-1.35,1.51,4.37,1.7,5.69,1.71,7.88.31,14.97,1.47,19.86,8.13,2.67,3.53,3.3,8.02,5.54,11.76,2.36,4,5.99,9.2,7.7,14.01,3.92,8.88-4.7,15.07-9.83,20.98-4.14,5.25-6.25,13.36-9,19.63-1.58,4.1-6.03,6.13-7.98,9.97-1.28,2.63-1.18,5.94-2.85,8.9-1.55,3.05-5.1,5.62-7.28,7.16-3.49,2.24-3.04,6.41-5.09,10.3-1.54,2.93-4.8,4.45-5.93,6.84-.87,1.68-1.26,3.56-2.39,5.13-1.14,1.68-2.82,2.95-4.09,4.52-2.87,3.47-2.83,7.51-5.88,10.39-1.26,1.33-2.7,2.7-3.86,4.17-3.08,3.69-3.99,8.04-7.27,11.21-2.62,2.73-7.67,5.35-6.06.02,3.58-7.7,8.13-14.75,11.59-22.13,1.7-3.53,4.66-6.4,6.18-9.98,1.45-3.48.57-7.97,1.84-11.58,1.54-3.77,4.76-6.81,5.05-11.09.7-5.15.5-10.25,2.3-15.27.75-4.05,8.55-9.99,4.32-12.6-4.6-2.21-17.29-1.22-24.17-1.31-.83.04-1.31.21-1.47.5-.29.89.07,1.89-.75,2.71-1.72,1.89-6.04,1.65-7.88,2.12-.61.63.59,1.53.24,2.14-7.2.72-27.64.02-35.63.26-2.01.11-2.42-.45-2.6-2.07-.25-4.01-2.72-5.2-6.54-7.01-1.33-.71-2.58-1.63-3.84-2.45-2.38-1.68-5.01-2.02-6.63-4.43-1.81-2.92-3.73-6.87-4.12-10.35-.21-2.34-.19-4.72-.78-7.05-1.75-8.09-8.99-19.82.5-25.42,3.03-2,4.1-5.37,7.12-7.37,1.17-.79,2.46-1.42,3.74-2.09,6.54-3.34,9.97-5.63,12.41,2.18.45,1.07,1.52,1.24,2.61,1.09,2.77-.34,8.16-1.69,11.76-2.27,3.39-.85,7.29.26,8.15,3.99.58,3.36,2.3,2.77,5.66,4.28,1.68.77,2.83,1.67,4.79,1.78,3.68-.17,6.3-3.18,8.48-5.83,2.01-3.35,5.26-3.91,7.77-7.19,1.2-1.73,2.42-3.77,4.25-4.86,2.18-1.33,4.06-1.08,6.11-1.72,2.31-.75,4.67-1.61,7.09-2.07,4.65-1.08,12.64-2.63,16.38-1.16l.02.04Z"/>
      <path class="cls-1" d="M238.46,178.89c2.34,2.09,4.75,3.2,8.03,3.8,2.31.55,4.51,1.07,5.44,2.26,1.58,2.13.9,5.85,1.23,8.96.6,5.75-5.39,8.19-9.14,12.23-2.01,1.85-3.01,4.33-3.72,6.93-4.14,14.22-16.16,22.12-22.53,36.08-1.08,2.32-2.29,4.34-4.1,6.13-2.91,2.75-7.13,8.03-10.27,11.41-1.43,1.34-2.64,3.1-3.96,2.38-1-.91,1.16-7.99-2.04-4.37-1.82,2.04-.99,7.32-3.66,6.12-4.09-2.86-.6-8.95.05-12.87,2.38-12.02,5.64-23.52,8.46-35.31,2.4-9.51,7.87-17.87,9.35-27.58.49-3.09-.3-6.19.73-8.89,1.32-3.42,4.16-8.14,4.8-12.42.62-3.98,5.23-.93,7.65-.39,5.28,2.13,9.14,2.88,13.49,5.39l.2.15Z"/>
    </g>
  </g>
  <g>
    <path class="cls-1" d="M3391.58,51.18c.54.36,1.05-1.22,1.82-2,.24-.21.51-.45.81-.6,2.91-1.22,6.22-2.28,9.32-2.66,6.72-.95,12.83,1.06,19.42,1.04.48.08,1.44.3,1.91.67,1.67,1.13,2.17,3.42,4.29,4.23,3.63,1.2,3.37,3.64,4.96,6.82.82,1.33,3.77,3.2,1.03,4.32-6.91.99-8.36,3.64-10.13,9.09-.28.89-.91.64-1.77.61-.56-.03-1.23.02-1.83.29-3.88,2.87-10.18,4.9-14.63,6.26-1.15.36-2.02-.37-2.94-.92-2.11-.86-4.64.68-7.17.55-.5.02-1.03.08-1.48.24-.7.26-1.21.8-1.74,1.32-1.43,1.39-4.34,1-5.13,3.15-1.51,3.2-4.32,12.59-4.84,15.8-.09.64-.08,1.19.13,1.8,1.06,3.19,7.55,7.16,10.83,9.8,2.34,1.76,3.18,5.07,5.21,7.04,5.96,5.66,16.08,10.62,21.97,16.54,1.97,2.49,3.48,5.88,5.25,8.67,1.2,1.8,1.89,3.19,3.92,3.35,1.48.09,3.14-.32,4.5.38,3.84,1.7,8.78,7.87,13.7,8.47,1.65-.08,3.27-1.07,4.86-.41,4.33,1.51,9.17,6.72,12.92,9.79,1.37,1.17,2.55,1.86,4.23,2.23,2.16.39,4.47,1.64,5.79,3.49,3.06,3.82,5.87,9.58,9.98,12.28,6.2,4.34,11.09,6.12-1.16,6.48-6.57.3-11.74,6.08-18.43,4.51-6.24-1.81-11.3-4.04-17.2-5.66-1.62-.59-2.88-1.65-4.4-2.73-3.06-2.43-6.22-4.26-8.07-7.61-2.17-3.66-4.13-7.89-6.85-11.38-1.36-1.85-4.09-3.87-5.39-5.67-.86-1.67,1.24-.9,2.2-.06.77.57,1.4,1.06,1.6.95.18-.18.03-.43-.07-.74-.49-1.23-2.03-3.27-3.09-3.84-.58-.37-1.07-.07-1.39.35-.41.52-.52.78-.62.22-.13-1.05-.21-2.36-1.17-3.17-1.58-1.4-3.56-2.83-5.31-4.04-1.67-1.03-4.07-.91-5.52-2.53-4.23-3.99-5.66-10.27-9.85-14.27-4.74-4.89-10.5-10.07-14.84-15.49-2.4-3.04-3.93-7-6.37-10.06-.79-.93-1.63-2.02-1.97-1.24-.11,1.55-1.34,2.83-1.78,4.49-2.53,8.92-5.27,15.86-8.7,24.46-.8,1.84-2.71,3.49-2.51,5.45.23.92,1.68.94,3,1.32,7.63,2.27,17.1,10.24,18.1,16.88.44,5.87.1,18.95-4.34,22.32-3.73,1.82-8.57-3.75-11.49-5.84-2.26-2-5.46-4.4-7.03-6.73-2.82-4.93-2.38-13.45-3.7-18.24-.35-1.16-1.01-2.88-2.41-2.81-2.61.58-2.98,6.8-5.48,8.44-6.92,4.35-10.72,12.01-17.69,16.51-1.28.91-2.65,1.73-3.93,2.63-1.95,1.35-3.73,3.47-5.98,4.8-2.95,1.38-5.21,3.48-7.98,5.39-1.08.89-.97,2.1-1.89,2.49-4.42,1.36-10.87,3.23-14.51,3.53-4.33-.29-8.12-.37-12.5.41-2.73.52-11.15.74-8.38-3.97,1.88-1.85,5.18-1.85,7.35-3.34,5.08-3.17,7.32-10.48,11.63-13.9,6-4.83,14.33-6.46,20.16-11.52,2.41-2.19,4.58-4.73,7.24-6.57,5.18-3.78,14.47-8.89,19.82-13.83,2.28-2.08,1.91-5.87,3.16-8.71.57-.98,1.44-1.96,1.72-3.05.19-.59.39-1.02.78-1.17.55-.21,1.19-.1,1.73-.38,2.46-2.29,2.87-6.76,3.94-9.96.64-2.53,1.33-4.96,2.81-6.92,1.27-1.81,2.44-2.9,3.77-5.45.89-2.21,2.67-4.03,3.17-6.32.23-.98-.22-3.03-1.37-2.23-.38.27-.71.9-.88,1.64-.22,1.1-.29,3.87-1.75,1.98-1.81-2.61,1.83-9.92,1.85-12.88-.09-1.86-3.21-1.53-4.38-.89-.8.51-1.58.63-1.1-.52.54-1.35,3.87-.19,4-1.69-1.82-2-7.22.66-9.42,1.44-2.45.76-3.73,3.3-5.89,4.3-5.13,2.22-12.58,1.64-17.65,2.59-2.46.43-4.58,2.47-7.15,2.33-2.87-.07-9.85-.71-14.49-1.24-2.52-.28-4.17-.44-6.38-1.29-1.71-.77-4.28-.52-5.09-2.52-.26-.81.06-1.58.86-1.88,4.53-1.19,9.59-.79,14.21-2.05,5.54-1.46,10.57-4.31,16.34-4.98,5.21-.96,9.18-4.92,14.31-5.17,2.27.04,3.92,1.34,6.03.93,2.32-.39,5.15-.95,7.31-1.94.92-.55-1.97-2.01-1.23-2.53,4-1.36,7.8-2.52,8.32-7.2.23-2.11.85-4.05,2.11-5.76.87-1.4.95-3.12.78-4.95-.09-2.66-.95-4.6-2.22-6.64-.68-2.55-.22-7.05-.28-9.51.06-1.62,1.73-2.07,2.4-3.52,1.59-4.39,1.72-9.18,2.83-13.68,7.04-9.29,10.82-2.51,15.35,4.5,1.44,1.94,3.76,2.93,4.5,5.4,1.29,3.65,3.57,8.44,3.19,12.11-.24,2.82-2.28,7.27-.53,9.74l.09.06ZM3377.99,83.04c-.99-.72-2.71-1.46-3.98-.99-.07-.02-.35.4-.26.79.06.68.12,1.46-.16,2.09-.36,1.04-1.49,1.15-2.03,1.98-.55.99.64,4.52,1.02,5.42.26.52.72.33,1.25.17.68-.19,1.73-.76,2.4-.53.29.1.43.4.57.73.42,1.03.88.73.49-.53-.17-.71-.4-1.44-.28-1.67.05-.11.15-.16.29-.19.52-.03,1.2-.23,1.63-.79,1.41-1.78,1.78-4.99,1.92-7.07-.03-.6-.66.6-.85.84-.92,1.51-1.33.98-1.89-.1l-.12-.14Z"/>
    <path class="cls-1" d="M3463.1,250.34c1.35,1.49,2.36,3.5,3.76,5.03,2.17,2.39,1.26,6.25,1.25,9.24-.1,1.01-.44,1.54-1.25,2.13-1.65,1.14-3.69,2.33-5.34,3.57-5.14,3.81-10.54,5.19-15.33,9.28-1.97,1.97-4.03.18-6.35.48-4.49.5-8.7,1.77-12.81,2.88-2.97.57-6.67,1.02-9.59.64-1.16-.15-2.75-.56-3.82-.42-1.19.23,1.23,1.85,1.13,2.5.06.25.07.51.03.79-.6,4.4-7.32,13.08-9.71,18.06-.51,1.03-.87,2.01.69,1.78,2.91-.18,10.57-1.99,11.95-.57-.39.9-2.7,1.32-3.39,1.97-.37.3-.18.52.41.67,3.14.73,6.97.16,8.63-2.56.69-1.05,1-.81,1.68.19,1.89,2.47,6.69,3.47,9.62,1.97,2.04-1.05,2.9,2.18,3.75,3.39,4.51,11.39-.24,25.33,1.74,36.93.78,8.05.41,17.15-.67,24.81-.34,2.93-1.88,5.5-2.42,8.23-.39,2.14,1.37,5-.56,6.07-.47.32-.74.88-.78,1.34,1.9,7.96-3.31,13.64-6.84,20.57-1.42,3.3,1.61,2.07,3.03.7,2.02-1.34,4.79-.61,7.11-.53,5.35.6,9.44,3.06,14.73,3.12,5.59.19,11.95-1.08,16.72,1.22,1.66.85,2.69,1.38,4.57,1.95,3.71,1.27,10.54,3.6,13.14,4.49,1.16.2,1.59,1.51,1.1,2.49-.21.42-.63.64-1.3.82-1.58.38-3.44.82-5.07,1.21-3.7.86-6.29,2.52-9.62,4.27-2.15,1.19-4.78,2.57-6.83,3.62-.75.37-1.23.63-1.83.53-1.45-.39-3.1-1.22-4.73-1.02-6.37.44-12.69,6.1-19.57,5.91-4.11-.02-8.17-1.47-12.08-2.58-6.17-2.2-12.65-.5-19.33-2.01-2.75-.55-5.68-3.4-8.47-1.65-.5.29-.96.62-1.39.63-.24.04-.72-.14-.75-.17-1.02-.58-1.97-1.33-3.22-1.38-8.26-.93-17.98-2.85-26.51-2.77-2.08-.05-4.76.72-6.41,1.58-.53.23-1.32.53-1.69.08-.51-.43-.69-1.68-.03-2.46,1.51-1.59,4.11-.78,5.99-1.55,6.4-1.95,17.64-6.78,24.59-8.04,2.79-.48,5.81.72,8.76.61,1.76.07,1.93-1.94,3.29-2.39.47-.03.75.16,1.02.38,1.25,1.24,2.45,4.95,4.38,4.49,1.91-.76,3.97-2.95,5.67-4.28,1.46-1.25,2.23-2.08,3.14-3.52,4.68-7.53,5.21-16.25,5.59-24.91.55-5.7,2.68-13.32,2.43-18.33-.19-1.09-1.94-1.64-2.05-3.18-.04-.4-.01-.81.03-1.23.36-3.58,1.89-9.8,2.03-12.58.06-.93-.32-1.85-1.25-2.17-1.01-.71-5.57.86-4.88-1.17.35-.53,1.28-.98,1.31-1.38.06.02-.07-.4-.11-.39-.39-.48-.92-1.03-1.02-1.67-.07-.47-.35-1-.97-1.07-.92-.09-1.15-.89-1.62-1.65-.64-.96-1.62-2.09-2.09-2.51-2.59-1.05-9.92,15.27-10.89,19.53-.36,1.28-.32,2.41.4,3.54.72,1.15,1.65,2,.75,3.46-3.22,6.19-.98,13.56-3.27,20.02-.73,3.2.28,7.28-3.14,7.28-2.95-.17-6.72-2.33-9.31-3.3-.3-.15-.71-.33-.91-.57-.56-.55-.18-1.44-.14-2.55.03-1.4-.86-2.96-.73-4.59.12-1.85,1.34-3.41,1.54-5.24.49-3.4,1.43-10.41,1.58-14.56.09-.82-.15-1.24-1.05-1.17-.81.04-1.17-.59-.94-1.4.43-1.9.92-4.07.91-6.1.04-1.34-.39-2.76.1-3.49.34-.67,1.35-.95,1.46-1.73-.3-1.77-3.6-2.28-4.98-1.69-2.37.91-3.16,4.24-4.47,7.04-.96,2.08-2.81,3.7-3.25,5.95-1.65,6.6-.64,18.5-3.18,25.14-.8,1.5-2.88,4.95-4.8,4.12-.54-.45-.56-1.49-.78-3.02-.45-3.81-.82-10.36-1.22-14.72-.29-2.81-.59-4.16.05-6.62,1.65-7.92-.34-16.15,5.27-22.9,1.87-2.3,5.83-4.04,8.69-5.57,2.35-.97,3.89-2.61,5.96-.79,3.06,2.1,6.91,1.26,10.54,1.64,1.58.15,2.98.35,2.95-1.83-.02-1.64.57-2.79,1.95-3.53,3.4-2.2,6.87-5.61,10.56-6.52,3.25-1.36,11.29,3.3,11.18-2.47-.61-5.29-5.47-1.88-8.45-1.33-7.17,1.48-14.97,3.88-22.24,5.04-2.38.34-5.64.1-7.88-.58-.74-.34-.85-1.26-1.3-2.84-.56-2.16-1.21-5.08-1.7-6.9-.45-2.59-3.08-5.09-2.47-7.71,2.42-2.69,21.85-20.47,28.1-26.56.21-.22.1-.29-.44-.31-.31-.01-.76,0-1.27-.01-8.1-.09-15.72-4.12-23.56-2.59-1.45-.15-1.35-1.36-.26-2.02,1.39-.76,3.25-1.52,4.47-2.78.92-.86,1.68-1.82,2.41-2.79,2.61-3.91,8.13-3.79,11.77-6.31,2.05-1.08,2.44-3.88,4.46-4.84,3.16-1.32,10.26-2.8,14.05-4.32,4.42-1.78,8.4-5.83,12.92-7.02,6.61-1.1,13.22-1.06,19.83-.87,2.94.35,6.33-.22,9.06.82l.15.11Z"/>
    <path class="cls-1" d="M3380.5,525.01c.26.11.67-.01,1.17-.27,1.72-.99,3.68-1.87,5.26-3.12,2.93-2.3,4.12-6.08,7.25-8.54,3.4-2.85,7.62-4.47,11.22-6.63,2.83-1.56,4.71-4.41,7.7-5.68,3.28-1.48,6.22,1.04,7.61,3.73.46.85.24,1.33-.19,2.39-3.23,7.35-5.81,14.09-11.26,19.65-.54.57-1.21,1.5-.09,1.63,1.14.14,2.83.11,4.1.39,4.02.72,9.58,1.68,13.47,2.91,1.2.33,2.22,1.29,3.11,1.92,1.94,1.17,5.56-.28,7.4.99,1.28.83.38,2.83-.78,3.43-1.5.87-3.34.08-4.82.92-1.57.87-3.52,2.16-5.48,2.61-11.86,3.14-19.01.1-30.4.09-1.54-.16-2.97-.55-4.14-.35-1.34.21-2.57,1.25-3.69,2.15-2.54,2.12-4.41,4.21-7.53,5.5-2.14,1.15-4.86,1.88-6.15,4.04-.9,1.6-2.63,5.4-3.51,7.51-.8,2.03-2.41,5.81,1.26,5.42,4.77-.53,9.14-1.64,13.55-3.76,2.15-1.01,4.46-2.17,6.63-2.82,3.13-.9,6.83-1.23,10.01-2.37,3.64-1.13,7.57-3.81,11.15-4.1,3.97.47,13.83,3.71,19.24,5.88,2.04.86,2.87,1.17,4.17,3.18,1.82,2.49,2.85,5.28-1.63,3.86-.65-.23-1.33-.68-1.96-.26-.76.52-2.03,2.1-3.84,2.94-1.72.83-3.4.82-5.03,1.7-1.89.93-3.94,1.93-5.83,2.85-.63.45-2.9,1.02-2.31,1.67,1.03,1,7.3,6.4,9.99,8.77,1.51,1.1,1.66,2.32,2.26,3.93,2.72,7.38,10.84,8.75,13.94,15.2,9.46,20.37,33.45,27.29,53.84,31.67,1.26.37,2.43.85,1.66,2.08-3.43,3.97-33.35-9.56-39.76-11.53-9.28-3.57-19.37-3.73-28.25-8.31-3.1-1.81-4.49-4-7.22-6.34-3.52-3.12-8.16-4.7-11.97-7.87-3.27-2.92-5.21-7.3-7.93-12.39-1.1-2.4-2.29-4.37-2.72-6.88-.31-1.94.17-5.39-1.41-6.52-1.83-1.31-3.86,1.05-5.69,1.27-.64.11-1.29.03-1.91-.13-3.83-1.56-8.77-.61-12.57-.08-2.36.37-5.23.32-7.69,1-2.59.97-6.55,2.96-8.79,4.98-5.79,6.37-14.01,24.84-21.07,31.17-3.44,3.58-8.42,8.38-11.49,10.55-1.68,1.5-4.55,1.59-6.63.53-.43-.3-.3-.69.18-1.18,5.32-5.35,8.82-11.35,13-17.36,1.62-2.98,14.06-17.23,12.23-19.77-.31-.11-.88,0-1.59.18-2.98.89-6.41.8-9.25,1.62-15.59,6.18-31.2,13.82-47.15,19.4-3.15.74-5.87,3.94-8.12,5.66-.74.47-1.35.25-1.63-.47-.76-2.5,2.33-4.9,3.76-6.66,11.41-13.68,29.13-18.27,44.51-25.63,1.53-.49,3.56-.9,5-1.49,1.66-.68,3.04-1.66,4.76-2.41,5.14-2.16,10.63-3.29,15.76-5.64,2.57-1.17,2.43-4.18,3-6.54.43-2.89,3.59-4.77,3.28-7.81-.83-2.41-4.53,1.39-5.94,1.94-4.62,2.8-9.97,3.19-14.83,4.18-2.14.42-3.25,2.36-5.36,2.17-5.05-.02-13.16-1.45-17.02-2.81-1.89-.52-18.12-8.64-10.26-7.83,13.3,5.57,24.83-1.04,36.73-6.14,1.29-.52,2.82-.9,4.16-1.05.88-.14,1.46-.09,1.86-.67.54-1.43.24-3.94,1.63-5.09,2.58-1.73,9.94-3.86,12.33-5.31,1.32-.65-.28-2.38,1.34-2.79.82-.25,1.95-.31,1.96-1.4.05-1.87-.42-6.16-.57-8.57-.45-3.62,1.29-7,1.92-10.5.83-5.84-.98-10.96-.21-16.17.25-4.16.62-9.76,1.08-12.94.28-1.75,1.42-4.01,2.59-5.1,1.79-.93,4.72.92,5.07,3.03.97,3.33,2.47,6.42,3.26,9.86,1.39,8.12,1.78,17.01,1.41,25.1-.21,2.06-1.29,4.43-1.5,6.51-.04.53.03.93.26,1.09l.09.05Z"/>
    <path class="cls-1" d="M3359.12,309.26c1.17,1.52.19,2.02-1.2,2.05-5.66.67-12.07,1.82-16.1,6.1-2.68,2.86-2.54,7.56-4.3,11.72-.65,1.41-1.77,2.6-.84,4.15.28.61.55,1.31.42,1.91-.09.41-.27.8-.4,1.19-.42.94.21,1.84.47,2.73.29,1.47-1.95,1-2.3,2.13-.84,2.61-.5,6.07-.64,8.87,0,2.5-.43,5.04-.56,7.57-.15,3.95-.1,7.61-1.77,11.25-.52,1.94.52,1.73,1.67.55,8.75-8.26,16.75-17.29,24.54-26.44,1.16-1.56,3.15-2.7,4.32-3.99,1.09-1.27,1.56-3.47,2.82-4.71.49-.48,1-.54,1.22-.14.29.45.1,1.51-.38,2.32-1.58,2.32-3.88,3.55-5.13,6.02-5.9,9.29-11.71,18.1-18.99,26.65-3.9,5.25-9.77,8.45-11.69,14.97-.51,1.74-.91,3.9-1.23,5.9-2.56,16.6-2.32,34.11-8.75,49.76-.2.52-.4,1.03-.56,1.55-.44,1.13-.18,2.65-.85,3-.34.05-.57-1.13-.53-2.14,0-.49-.09-.95-.26-1.22-.23-.28-.34-.39-.72-.12-.57.6-.68,1.64-.9,2.47-.35,1.09-.24,2.25.77,2.96.53.46.99.88.99,1.55-.18,1.86-1.07,3.9-1.75,5.59-.58,1.31-1.59,1.44-1.83-.1-.22-2.26,1.29-4.23,1.2-6.35-.34-4.95-.64-10.23-.55-15.11-.05-5.47-.22-10.72.24-15.7.46-4.94,1.52-9.89,2.47-14.79.29-2.27,1.26-5.02.97-7.23-.29-.49-1.01-.04-1.45.18-3.07,1.82-6.61,3.51-8.95,5.78-2.22,2.1-4.33,4.57-7.12,5.92-4.9,2.44-9.69,2.45-14.79,3.6-.48.13-1.17.23-1.5.01-.5-.3-.01-1.64-.28-2.87-.47-2.46-2.73-4.76-2.54-6.69.07-.84.46-1.6.69-2.42.39-1.12.22-2.64.16-3.67-.02-.63.06-1.08.3-1.6,1.22-2.47,6.08-10.33,8.82-14.68,6.6-10.31,14.31-20.42,23.27-28.59,1.87-1.47,3.19-3.84,5.18-5.16,1.26-.73,3.03-.18,3.33-.78.36-1.17.07-2.45.32-3.73.09-.79.08-1.42-.18-1.78-.38-.72-2.11-.47-2.31-1.42-.02-.88.96-1.56,1.23-2.38.59-1.49-.32-4.03-.65-5.96-1.28-3.12-4.59,3.71-6.42,4.13-5.48,3.15-10.5,4.24-16.14,8.71-1.91,1.42-3.77,2.74-5.64,4.1-.82.64-1.8.39-2.48-.28-1-.88-1.71.3-3.22.39-6.18.43-15.34.69-22.16-.68-3.75-.86-8.28-2.8-12.07-4.82-1.01-.44-2.1-2.01.14-1.62,2.68.78,5.65,1.61,8.29,1.58,2.55.12,6.7-1.87,9.85-3.24,2.95-1.27,6.09-2.29,7.05-5.56.1-.43.24-1.07.07-1.39-.25-.63-1.11.99-2.1.98-2.93-.3.05-4.26.85-5.52,3.74-4.99,11.56-8.67,14.01-15.14.41-.63,1.09-.27,1.67-.67.48-.35.34-1.66,1.32-2.42,4-2.79,9.03-2.97,13.64-3.72.46-.08.91-.19,1.29-.36.92-.35,1.21-1.16,2.05-1.23,1.25.32,2.48.99,3.82.18,1.22-.72,2.68-.88,4.03-.99.41-.08.59-.33.6-.72,0-1.33-1.08-4.13-1.16-6.12-.11-4.51,3.11-9.49,4.01-13.69.85-3.49.52-7.73,2.8-10.69,1.62-1.98,4.47-1.98,7.27-2,2.69.08,6.54.45,7.03,3.65,1.42,7.57,5.98,17.32,4.35,24.74-.37,1.58-2.06,3.59-1.92,5.26.04.21.14.38.28.54,2.02,1.87,12.41,4.46,15.36,7.77l.12.16ZM3297.87,396.22c1.69-1.05,4.01-1.43,5.76-2.16,2.01-.63,5.18-3.04,7.34-4.65,2.05-1.5,5.55-3.82,7.31-5.26,1.67-1.33,1.08-3.78,1.31-5.76.47-3.22.92-6.91.87-9.56-.17-4.29,2.09-8.4,2.3-12.69.03-1.9-.51-.86-1.53.3-2.32,3.04-5.82,6.18-7.41,9.48-3.61,7.31-9.08,12.94-12.89,19.67-1.44,2.42-3.56,6.09-4.82,8.42-.55,1.07-1.02,1.72-.97,2.48.03.56.68,1.1,1.33.83.5-.22.85-.63,1.25-.99l.15-.12Z"/>
    <path class="cls-1" d="M3391.93,594.48c.82,5.79-6.03,11.14-9.68,15.12-.29.32-1.11,1.04-.74,1.35,2.64.58,9.52,1.25,13.66,1.85,2.08.1,2.7.56,4.16,2.15.85,1.05,2.29,2.19,2.21,3.59-.07.62-.54,1.42-1.08,2.35-1.16,2.06-1.9,3.23-4.04,4.31-1.53,1.08-4.2,1.86-4.71,3.8.26,2.43,2.08,7.59,2.87,9.9.17.41.36.84.64,1.11,2.78,2.53,18.56,1.69,24.6,4.14,1.04.55-.02,1.38-.66,1.85-5.18,3.75-12.16,6.37-18.3,8.42-1.09.45-2.72.46-3.67.6-.37.08-.62.25-.72.57-.27,1.51.67,3.67.93,5.18.78,3.85-1.61,8.19-1.72,12.43-.27,3.55.56,7.59.06,11.05-.12,1.14-2.07,1.21-2.32,2.01.12.92,1.47,1.64,1.87,2.53.6.92.61,2.7-.5,3.06-1.17.34-.65-.71-.35-1.26.31-.53.39-1.18-.26-1.48-1.01-.48-2.02.04-2.15.99-.62,2.87-.64,11.03.02,14.04.33,1.63,2.76,1.85.83,3.56-2.94,3.15-10.35,9.23-12.7,10.59-.64.35-1.19.42-1.97.4-1.97-.03-6.19-.26-8.05-.54-1.34-.18-1.32-1.59-2.39-2.41-6.91-4.02-9.61-9.79-12.08-16.69-.76-2.87-3.71-5.87-3.57-9,.7-1.89,4.44-.5,6.08.11,4.33,1.66,8.61,4.46,14.32,4.97,6.81.74,5.36-5.5,5.81-10.08,1.46-5.97,2.07-12.13,1.76-18.36-.1-2.37-.76-4.56-.37-6.83.27-1.9,2.94-5.05-.9-4.64-17.4-2.2-32.7-3.5-50.27-1.55-3.98.14-8.45,1.9-12.37,1.76-1.44-.03-2.36-.82-1.54-1.6.92-.8,3.13-.35,4.3-.28,1.74.17,2.78-1.11,4.61-1.71,9.58-2.26,19.47-2.74,29.14-4.2,1.82-.13,3.6-1.18,5.27-1.44,1.27-.15,2.54.94,3.13.76.73-.31.81-.92,1.54-1.49,2.28-1.45,5.46-1.75,8.13-2.49,2.62-.56,5.39-1.23,7.63-.86,2.57.48,3.65-.65,3.5-3.34-.07-1.22-.37-2.67-1.37-3.42-1.21-.94-2.96.24-4.47.09-1.38-.14-2.76-.8-4.23-.74-9.59-.17-19.95,1.03-29.76.96-1.54-.02-3.4-.78-1.16-1.95.23-.25,3.32-1.4,2.06-1.55-.52-.05-1.63,0-2.49.01-3.53.06-3.25,1.09-2.65,3.72,0,.9-.57.91-1.29,1.03-3.86.24-7.88.99-11.65,1.73-1.97.55-3.49-.88-1.09-2.23,1.28-.71,3.27-1.23,4.97-1.65,7.76-1.82,13.5-6.81,20.35-10.44,6.19-3.38,13.54-4.52,18.22-10.26.7-.65,1.58-1.64.62-2.39-1.42-1.29-5.2-3.16-4.2-5.48,1.77-2.79,4.24-6.69,7.32-8.93,1.7-1.46,2.57-2.28,4.56-2.82,1.84-.58,4.03-1.24,5.95-1.76,2.52-.67,3.36-1,5.27-.4,1.58.64,3.7.92,4.99,2.01l.09.13Z"/>
    <path class="cls-1" d="M3487.56,353.17c.58.91,2.17,1.41,3.41,2.25,18.55,11.64-3.07,30.47-14.51,38.39-1.39,1.08-4.21,3.03-5.52,2.99-1.44-.45,1.87-3.43,2.4-4.07,5.65-5.99,9.24-11.84,11.23-20.87.54-2.65,1.1-5.93-1.95-7.15-1.15-.44-2.93-.93-3.47.57-5.52,12.97-18.1,29.32-31.1,35.12-1.61.68-3.46,1.28-5.32,1.55-.48.04-.81-.05-.94-.26-.23-.32.04-.97.56-1.64,1.63-2.11,4.78-3.16,6.17-4.98,2.07-3,2.45-7.08,4.3-10.19,2.7-5.34,4.95-9.19,6.01-15.41.17-1.06.4-2.57-.87-2.88-2.96-.59-6.54.99-8.71-.2-1.03-.48-2.15-1.83-2.91-3.21-.91-1.39-.23-2.74,1.14-3.48,4.72-3.08,9.78-5.82,15.41-6.28,2.43-.17,1.4-3.4,2.81-4.87.74-.69,2.81.92,3.38-.26.03-.6-1.88-1.13-1.88-2.04.06-1.18,1.32-2,1.84-2.94,2.47-4.78,5.25-13.33,5.62-18.56-.11-2.75-1.27-3.23-4.08-2.48-4.69,1.1-9.94,3.09-14.49,4.78-2.61.98-4.81,1.88-6.23,2.39-.66.22-1.35.2-1.96-.17-1.45-.74-3-3.81-3.19-5.03-.09-.95.87-.85,1.8-1.55,7.91-8.02,21.49-15.14,32.23-17.54,2.69-.4,6.6-.73,9.12.14,2.17,2.18,4.41,6.78,5.88,9.52,4.12,9.61-5.58,26.27-6.51,36.74-.04.55.01,1.03.23,1.44l.09.15Z"/>
    <path class="cls-1" d="M3348.82,509.96c-1.43,2.74,1.92,9.61,1.79,13.8.07,1.75-1.29,3.14-2.18,4.53-.57.96-.18,2.08.58,2.81,2.21,2.22,6.39,1.08,9.22,1.06,1.37-.11,6.37.06,4.11,2.17-1.89,1.25-3.58,1.25-5.79,1.7-4.47.59-9.89,2-12.16,1.6-2.53-1.06-6.21-2.97-8.66-4.3-1.31-.73-1.93-1.07-2.47-2.12-4.09-8.51,1.03-20.27,10.28-22.72,1.96-.5,10.56-1.83,5.4,1.37l-.1.11Z"/>
    <path class="cls-1" d="M3325.19,628.58c-6.12,4.19-30.17,18.26-33.84,20.62-.08.03-.16.01-.28-.09-.29-.38-1.9-2.06-1.23-2.87,4.67-2.82,10.4-4.04,15.16-6.83,5.03-2.91,10.15-6.98,14.13-11.56.49-.57.85-1.12,1.32-1.26.72-.37,4.08,1.7,4.68,1.95l.06.04Z"/>
  </g>
</svg>