<?xml version="1.0" encoding="UTF-8"?>
<svg id="Layer_2" data-name="Layer 2" xmlns="http://www.w3.org/2000/svg" viewBox="0 0 424.8 738.99">
  <g>
    <path d="M269.37,563.46l20.91-5.06c10.49-.89,20.49-.31,30.99-.03,1.53-9.25,8.51-41.54,13.84-47.47,1.32-1.47,3.66-.57,3.89-.8,1.41-1.43-3.17-10.05-6.41-9.61l-56.01,18.75-8.49,14.99c-3.59-1.02.47-11,.01-11.41l-18.98,5.06c3.48-3.38,16.42-4.77,18.89-8.34,2.05-2.97,7.24-31.49,9.6-38.64,1.29-3.92,4.3-15.15,8.22-15.88,1.42-1.54,1.58-.09,1.25,1.23-1.61,6.27-16.78,46.95-15.16,48.93,1.93,2.36,2.72-1.66,3.11-2.52,6.6-14.35,10.58-31.99,15.89-47,2.2-.3,1.19,2.89,1.25,4.42.66,17.75-8.06,30.51-13.91,46.38l65.82-23.49c-11.9-12.74-32.31-15.2-45.49-25.5-2.49-1.95-9.23-10.7-10.63-10.58-12.44,8.09-24.47,18.18-33.73,29.77-1.82,2.27-10.73,13.94-11.16,15.48-2.45,8.73,4.8,10.27-10.41,9.26l8.51-90.69c-11.95-19.82-32-41.99-26.21-66.83,1.27-1.28,7.4,18.21,8.24,20.3,4.46,11.13,9.02,22.7,15.19,33.02l-17.07-54.02c-.04-5.65,5.59,2.85,7.1,3.09,1.63.26,3.54-2.62,5.52-2.42-19.35-10.56-2.61-16.39,10.77-16.47,4.71-.03,15.04,3.64,18.84,2.6,2.24-.61.33-8.49,3.81-7.6.76.19,9.29,3.32,9.63,3.71,1.47,1.66-2.84,5.65-2.55,6.94.48,2.09,22.8,7.88,25.33,12.1h-29.75c-1.88,0-4.18,6.4-1.99,9.61,1.3,1.9,13.78,9.23,17.14,12.03,10.08,8.39,19.14,18.22,29.77,26.01-7.2-1.49-53.41-21.89-55.68-19.71-1.85,4.71-5.06,35.48-6.35,36.83-.74.77-21.08-1.54,1.25,5.73-5.64,11.81-7.4,28.53-8.82,41.94-.46,4.3-2.56,25.09-1.95,27.3.95,3.45,1.49.69,2.26-.29,3.82-4.83,7.06-10.6,11.14-15.21,7.47-8.44,32.56-31.89,43.56-31.56,14.47.43,46.33,29.39,47.7,45.6,19.53-1.08,39.25,4.73,54.26,17.34-22.42,1.5-44.06-5.71-65.83-9.52l8.5,12.19-5.96,52.58c2.65-.76,2.64-4.1,3.19-6.31,3.51-14.17,4.67-30.04,6.94-44.49l3.89,15.89c2.91,8.99-14.91,52.25-13.9,55.67.33,1.12,14.74,12.17,17.63,15.42,9.84,11.04,17.87,26.14,17.68,41.31l-9.1-20.7c-6.28-9.31-13.13-19.78-23.78-24.4,10.61,10.24,22.24,24,24.67,38.75-12.66-19.49-30.03-35.18-47.43-50.26-2.34-2.03-5.8-1.36-6.38-5.61,7.29-3.1,14.28,1.38,21.52,2.52v-17.78c0-.6-11.15-1.54-11.81-1.34-2.14.62-.82,5.24-3.37,5.15-.25-1,.3-6.34-.01-6.34h-49.38ZM257.96,355.14c-9.49-1.43-11-.78-1.88,3.77l1.88-3.77ZM251.52,378.19c-.55-.97-16.74-8.87-18.86-11.62l10.12,41.92c3.47.38,2-.14,2.51-1.9.96-3.3,6.94-27.14,6.23-28.4ZM336.46,541.87c-2.88,3.73-8.74,11.78-10.15,15.87-1.09,3.14,2.04,4.13,4.81,4.23,7.45.28,2.46-14.47,5.35-20.1ZM340.27,568.55c-2.9-2.78-3.3,5.64-2.51,7.6s2.84-7.3,2.51-7.6Z"/>
    <path d="M112.38,104.88c8.71-11.24,18.48-23.06,32.91-26.66,1.87,1.54-27.84,34.81-31.62,36.55-2.42,10.93,1.13,22.48.14,33.77,5.29,2.73,10.43,3.95,15.87,6.94,16.97,9.33,33.02,22.85,47.26,35.77-18.45-5.96-37.19-12.48-53.57-23.08-3.53-2.29-7.93-10.29-8.46-2.97-.16,2.24.43,11.67,0,12.1-.31.31-8.56.31-8.88,0-.72-.72.46-17.91-2.51-20.32l-29.13,53.33c-1.28-15.5,2.84-30.85,9.04-44.91,3.84-8.7,9.67-23.6,21.33-18.6l-2.53-49.54c-2.64,1.97-7.89-.86-9.73-2.92-5.06-5.69-10.48-19.14-16.89-26.88-5.82-7.02-13.32-13.15-20.19-19.11,9.42,2.48,17.11,9.05,25.19,14.09l21.62,20.85-3.79-50.8,13.37,1.22.56,71.17ZM115.52,151.92c-1.77.01-1.53,2.01-.89,3.38,2.2,4.75,37.28,22.11,44.55,25.18-5.14-3.89-40.84-28.58-43.66-28.56Z"/>
    <path d="M63.62,361.48c16.09,1.92,32.13,10.9,44.93,20.32l-25.96-64.76,34.82,73.65-5.05-60.96h13.92s2.55,96.53,2.55,96.53l20.26-31.75c1.73-.33,1.25.49,1.3,1.92.24,8.16-5.29,29.06-9.5,36.22-1.57,2.68-5.86,9.32-9.53,8.22l14.57-34.91c-3.92,8.72-14.3,23-16.38,31.65-1.83,7.62,3.55,29.16,1.84,34.79-.79,2.61-9.44,2.62-10.22,0l-2.46-67.13c-.3-2.36-2.38-8.63-3.8-10.25-2-2.28-3.51-.22-4.72-.85-.37-.19-.51-1.7-1.37-2.09-21.22-9.72-45.26-15.07-63.58-30.6,5.87.5,12.63-.69,18.36,0Z"/>
    <path d="M188.34,281.46l-6.17,52.55c11.59,7.09,20.14-.65,24.55,16.01,6.35,23.97-2.38,49.21-13.96,69.91,2.57-19.35-5.14-38.37-3.22-57.87.44-4.45,6.44-18.74,5.86-19.66-.68-1.08-12.46-6.74-14.08-3.83l-4.37,58.49c-1.73-.29-8.46.42-8.88,0-4.14-4.13,8.61-103.11,6.33-116.88l13.94,1.28Z"/>
    <path d="M126.29,575.53c-.42-1.29-13.48-6.34-16.95-9.67-9.71-9.31-14.44-27.13-23.54-37.35,15.13,11.19,25.79,27.08,39.21,40.03-.48-7.77-9.03-12.79-13.19-19.14-10.34-15.76-11.8-35.6-17.17-53.26l9.5,11.41,20.86,47.02-5.05-76.21h13.92s2.54,141,2.54,141c-1.33-.36-10.14.5-10.14,0,0-7.89,1.56-39.09,0-43.83Z"/>
    <path d="M117.44,181.1c1.5,1.51-.28,36.53-.06,42.61,1.24,33.61,5.04,67.57,5.83,101.02-14.86,7.4-8.2-16.62-10.84-25.5-9.29.54-19.62-3.23-26.59-9.53,5.86-.48,12.86,1.39,18.58,1.7,1.48.08,2.51.18,1.66-1.68-1.48-3.26-7.31-9.46-9.74-14.37-5.55-11.21-8.99-23.39-13.05-35.18l27.85,41.27-6.32-100.34c2.13.34,12.19-.5,12.67-.01Z"/>
    <path d="M175.67,515.83c-.97,3.12-9.53,2-10.18-.22l.05-114.73h13.93c1.66,4.48-2.31,4.71-2.64,6.9-.67,4.53-.96,13.88-1.22,19.08-.73,14.54.63,29.33.06,43.87,1.48,2.01,12.18-14.03,13.27-15.25,6.61-7.41,14.37-14.79,22.14-20.96-10.8,15.05-17.97,33.36-29.68,47.7-1.09,1.33-5.75,3.81-5.75,4.4,0,5.89,1.19,25.39,0,29.22Z"/>
    <path d="M127.56,672.07c-.36-1.26-14.36-15.5-16.98-19.81-2.74-4.53-5.54-9.84-5.8-15.13l22.76,26.68c-2.9-10.97-12.99-20.14-18.97-29.86,6.17-4.41,16.31,20.29,18.98,17.15-1.03-3.59-.52-15.82-1.84-17.83-1.27-1.94-18.18-5.72-21.56-7.59-4.56,22.92-32.1,32.42-38.65,53.37-5.42-5.57-1.36-17.22,1.04-23.73,2.62-7.11,17.08-31.31,23.98-33.09,10.36-2.67,25.93,5.08,35.75,8.56l-1.25-7.61c3.92,2.49,13.39-2.01,13.4,2.59.03,8.96-4.04,12.09,8.11,15.18-.15-14.16,3.63-38.48,13.93-48.9,2.3-2.33,6.46-3.61,7-4.4,2.15-3.13-.65-9.53-.72-13.33-.33-18.07.68-36.15-2.48-54.03l15.18,1.28c-3.1,2.43-3.66,10.01-3.84,14.54-.15,3.71-1.68,13.94,3.21,12.15,1.15-.42,11.66-16.6,14.58-19.71,6.36-6.77,16.13-14.18,24.02-19.08-6.73,8.87-14.47,17.18-19.98,26.94-4.85,8.59-8.83,24.9-13.62,30.79-4.16,5.11-10.02,3.06-6.96,14.54.46,1.72,9.21,1.88,11.48,2.68,20.19,7.1,28.49,37.48,41.77,52.73v-24.77c0-.59-2.71-3.84-.63-4.45h12.02c.73,1.77-1.26,3.78-1.26,4.45v51.45l18.5-29.08c6.57-6.8,11.2-16.17,19.46-21.11l-31.6,54.66.61,1.87c6.36-7.16,14.04-13.2,23.4-15.89-7.88,5.8-13.21,16.93-20.15,22.93-2.41,2.08-8.81,4.29-9.59,5.66-3.69,6.46,5.62,13.72-9.49,11.45-1.97-1.97.76-49.52-1.92-55.87-1.35-3.2-24.5-24.34-29.11-29.23-6.01-6.38-13.26-17.06-19.23-22.57-4.16-3.84-5.65-.79-3.32,3.48,2.58,4.72,14.02,14.06,18.1,19.74,13.95,19.43,15.84,44.15,24.06,66.04-14.06-12.17-22.57-31.81-29.7-48.94-3.09-7.42-6.4-22.87-9.49-28.34-.75-1.34-3.46-1.19-3.82-.85-2.11,2.01,2.35,3.93,2.62,5.63,1.44,9.16-1.57,21.41,1.17,31.2-2-.32-10.95.47-11.41,0-.68-.68,1.75-19.56-2.51-15.25-1.31,1.33-9.67,23.58-12.47,27.12l16.24,14.79-2.52-22.85h15.19c-3.76,37.36,2.01,75.53,3.81,113.05h-11.41s-3.82-79.37-3.82-79.37c-.14-11.08-10.8-16.15-18.34-22.22-8.51,19.89-3.39,2.02-7.66-5.04-1.63-2.7-5.55-3.64-8.15-5.15,1.74,8.28-2.29,19.73-1.21,27.21.91,6.32,8.5,15.02,10.07,21.68-3.19-.22-10.14-10.82-10.14-2.53v65.42c0,.44-8.86.44-8.86,0v-79.39Z"/>
    <path d="M315.49,292.37c.16.32,1.41.57,1.88,1.55,1.9,4.01,13.91,34.29,12.76,35.81-19.22-20.77-42.15-44.27-49.35-72.41,16.06,15.81,23.82,38,38.59,54.63,3.53,2.93-.84-3.76-1.05-4.06-11.51-16.86-20.1-35.91-32.46-52.49,15.1,5.42,22.89,23.33,29.63,36.97Z"/>
    <path d="M90.8,134.16c.41,8.54-8.33,10.29-14.5,12.67-17.56,6.76-38.94,10.84-57.62,12.67,3.39-3.13,8.53-6.04,12.63-8.27,17-9.2,39.94-22.01,59.5-17.07Z"/>
    <path d="M294.81,438.84c-3.38-5.41,9.96-13.81,13.84-15.71,15.92-7.79,38.3-10.51,55.65-14.02-13.42,9.73-30.09,19.44-45.57,25.4-3.96,1.52-21.2,8.68-23.92,4.33Z"/>
    <path d="M22.48,606.64l19.64-3.77c11.13-1.13,41.43-3.18,49.4,5.01,8.78,9.03-13.98,7.83-17.75,7.65-16.74-.81-34.87-5.58-51.29-8.89Z"/>
    <path d="M244.04,560.92c.72.21,2.69.45,2.56-.74-1.14-7.63,1.75-13.81,3.79-20.85l4.4,21.58c5.49-3.24,6.01-9.55,10.71-14.66,11.28-12.24,37.5-22.07,53.23-27.24-16.13,12.88-31.06,30.08-49.73,39.64-4.2,2.15-12.66,1.38-14.83,7.97,6.02,7.53,9.05.66,15.69.76,6.6.1,25.59,8.96,31.56,12.83,7.38,4.78,18.41,13.48,19.24,22.61-6.25-6.29-17.35-9.91-25.96-9.51,8.51,4.15,10.2,6.69,14.13,15.04,7.98,16.9,11.54,32.85,13.7,51.65l-7.93-10.51c-4.9-11.29-10.02-22.54-13.91-34.24-1.54-4.63-2.98-16.96-4.64-19.48-5.16-7.82-32.92-6.39-37.41-17.09-1.65-3.93.62-9-5.81-10.78-2.35-.65-12.27,5.47-12.59,6.64-1.06,3.89,1.41,28.2.02,29.58-.36.36-9.78.36-10.14,0-.54-.54.4-12.85.02-15.26-6.43.69-40.76-4.97-41.79-10.81-.79-4.5,11.4-3.33,14.53-3.13,9.12.6,18.3,4.66,27.24,6.32l1.26-43.18-40.51,23.49c3.42-13.88,8.79-20.29,20.69-27.51,3.79-2.3,19.07-7.95,19.66-8.86,3.46-5.39-7.37-12.47,12.84-9.97l-1.25,7.6,7.56-.64c-1.39,2.54-5.48,3.96-6.86,5.8-3.03,4.05-4.83,27.33-.71,31.68-.71-.22-2.7-.45-2.55.74l.03,9.41,7.57-4.44c-1.6-.93-2.7-3.56-3.78-4.45ZM230.11,583.81c-2.7-2.47-24.23-4.99-29.11-5.09l27.48,7.37c2.2,1.22,2.01-1.93,1.63-2.28Z"/>
    <path d="M244.04,560.92c-.72-.21-.88-.86-1.27-1.27.8.25.91.98,1.27,1.27Z"/>
    <path d="M231.38,707.64c-.12-1.46-2.93-9.22-2.53-9.51h13.93s-2.52,53.35-2.52,53.35c-1.22-.31-8.87.44-8.87,0,0-13.94,1.09-30.21,0-43.83Z"/>
    <path d="M321.27,219.23c-1.19,1.74-7.45,2.36-9.51,2.5-8.64.61-31.19.98-38.63-1.85s-2.84-7.2,2.81-8.69c14.59-3.86,31.44,4.47,45.34,8.04Z"/>
    <path d="M46.51,214.12c-2.69-2.26.04-10.59.93-13.68,6.2-21.64,22.2-40.83,40.25-53.61-14.75,21.53-33.69,41.7-41.18,67.29Z"/>
    <path d="M378.24,568.54l-13.03-25.65c-2.3-7.93-2.45-15.67-2.15-23.87,2.97-3.41,9.99,16.53,10.45,18.08,2.96,9.95,4.62,21.03,4.72,31.44Z"/>
    <path d="M332.04,444.05c16.93,1.71,38.2,11.21,49.39,24.11-9.95-7.43-22.38-10.11-33.87-14.28l-42.75-9.83c8.77.64,18.6-.87,27.22,0Z"/>
    <path d="M50.96,98.53c-1.05.06-6.38,3.5-6.96.01,12.21-1.74,24.98-3.66,37.4-2.61,19.44,1.65,8.83,7.94-3.81,8.99-11.6.96-23.32-.95-34.85-1.33.29-1.1,7.79-2.53,8.22-2.53h26.59c.24,0,2.02-1.76,1.9-2.54-9.44.4-19.06-.55-28.49,0Z"/>
    <path d="M171.87,217.95c-8.55,10.95-22.63,14.61-35.45,17.76,9.88-8.27,22.31-16.45,35.45-17.76Z"/>
    <path d="M99.7,132.83c-10.61,1.41-14.76-11.26-22.79-16.5,8.55,2.26,24.44,4.91,22.79,16.5Z"/>
    <path d="M289.31,439.96c-.6.66-1.95,1.02-2.86,1.01-9.91-.06.63-22.37,5.68-24.86-2.1,5.36.27,20.42-2.83,23.85Z"/>
    <path d="M88.93,590.17c4.42,1.36,21.36,18.89,12.63,21.55-6.16,1.88-9.76-17.88-12.63-21.55Z"/>
    <path d="M252.91,262.4c-.09.03-.92-.92-1.27-1.27.25-.08.87,1.02,1.27,1.27Z"/>
    <path d="M208.6,163.33l-6.32,24.13c25.02-17.41,62.65-2.45,89.87,3.83l-87.99-2.57c-3-.92-4.85,9.73-4.43,10.16.23.24,4.37.61,6.42,1.83,2.93,1.75,6.13,4.24,8.79,6.42,5,4.09,24.83,27.27,26.61,28.03,2.49,1.06,6.16-1.92,8.21-3.22.74,3.11-5.56,3.02-5.78,4.49-.44,2.9,3.82,7.43,5.79,9.44,3.57-.04,1.19-5.63,2.55-8.84,4.96-11.73,15.4,5.35,17.67,10.15,9.57,20.18,10.29,44.51,10.95,66.5.89,2.32,22.2,6.54,23.27,13.48-2.43-2.19-21.38-8.47-22.16-7.59-4.6,5.19,12.71,6.14,13.91,8.87-28.15-3.64-55.89,4.83-83.55,8.9-4.69-4.41,17.66-17.93,20.91-18.97-2.25-21.41,2.87-43.07,10.8-62.84-3.53-1.35-11.87-10.78-14.59-10.88-5.55-.22-27.96,16.21-36.12,16.47l34.16-18.41-29.74-29.85c-3.04,13.34-7.47,30.42-8.22,43.93-.25,4.57.07,2.94,2.52,5.59-6.64.39-1.8,12.45-4.97,14.72-1.75,1.26-9.9-.13-10.28-1.52-1.69-6.19,2.47-7.22,2.56-7.72,2-10.2,1.72-21.81,3.21-32.13l-51.28,45.71c9.88-23.73,28.37-49.28,49.45-64.08,1.91-1.34,5.59-1.63,6.39-2.77,1.33-1.9,7.68-39.86,8.58-45.72.41-2.68.11-5.42.17-8.1l12.66,2.54ZM233.91,240.8c-1.9-4.34-6.32-9.06-9.47-12.71-5.22-6.04-11.24-11.69-16.49-17.74l6.33,10.15,19.63,20.3ZM167.35,238.81c-10.46,10.81-20.63,22.52-29.04,34.99,12.37-10.93,22.23-24.3,33.54-36.21,4.52-4.76,14.2-9.24,13.33-15.84-6.26,5.43-12.09,11.12-17.83,17.05ZM235.19,240.81c-1.49,2.8,8.68,12.6,9.48,12.67,1.09.1,1.87-1.26.64-3.15-1.96-3.01-7.26-7.01-10.12-9.53ZM251.64,261.13c-3.81,1.22,4.42,14.63,4.66,17.31,1.22,13.23-14.37,27.44-19.86,38.57,13.02-1.18,26.18-5.8,39.24-2.53-3.39-7.79-18.14-49.12-22.78-52.07,3.9-1.27-2.07-7.44-3.78-7.62-.32,2.33.96,4.76,2.52,6.35ZM279.49,323.37c-.16-5.79-15.26-4.21-19.66-3.85-4.61.38-12.98,1.23-15.78,5.11,11.87-2.87,23.38-3.24,35.44-1.27Z"/>
    <path d="M108.56,394.53c-.1,2.26-6.08,1.61-6.09,4.41,0,.44,2.26,2.28,2.37,5.02.61,15.92-14.75,44.72-19.69,60.43l-.69-14.67,1.96-19.63-32.28,48.26c7.66-26.76,11.56-64.61,36.67-80.68-8.34,18.39-21.62,39.89-27.22,59.07-.37,1.26-1.76,4.07.64,3.82,7.62-21.56,20.2-40.94,30.34-61.32l13.98-4.71Z"/>
    <path d="M265.22,223.27c6.25-1.36,14.3,4.33,19.74,7.6,13.72,8.25,26.37,20.8,38.81,30.91-15.95-6.2-45.71-16.51-57.61-28.57-3.33-3.37-1.62-9.81-8.85-3.87.18-2.37,6.17-5.7,7.9-6.08Z"/>
    <path d="M84.5,620.64l-47.46,30.49-13.28,12.07c12.53-22.34,36.32-36.44,60.74-42.56Z"/>
    <path d="M75.64,391.98c-8.16,19.31-27.41,28.51-45.55,36.21,2.53-7.33,40.58-40.74,45.55-36.21Z"/>
    <path d="M138.95,132.84l10.78,21.55c-7.91-8.51-17.89-16.6-24.67-26.05-3.57-4.97-4.35-9.16-7.62-13.29,3.2-.4,5.36-.11,8.33,1.15,11.18,4.75,24.15,22.53,35.95,27.43l-32.89-29.24c19.77,2.9,31.72,25.7,44.28,39.4l-34.16-20.96Z"/>
    <path d="M225.7,452.97c-10.15,14.22-25.5,23.91-41.13,31.11,7.07-9.15,9.71-18.29,21.13-23.25,6.29-2.73,14.88-2.47,20.01-7.86Z"/>
    <path d="M206.06,193.82c17.2-2.69,34.01,6.21,46.82,17.15-15.12-6.16-35.08-4.54-46.82-17.15Z"/>
    <path d="M183.26,211.61l-56.94,10.8c16.15-11.67,37.64-15.75,56.94-10.8Z"/>
    <polygon points="254.81 229.37 255.44 230.01 254.81 230.64 254.81 229.37"/>
    <polygon points="252.27 230.64 252.91 231.28 252.27 231.91 252.27 230.64"/>
    <polygon points="85.14 525.35 85.77 525.99 85.14 526.62 85.14 525.35"/>
    <polygon points="247.21 527.89 247.84 528.53 247.21 529.16 247.21 527.89"/>
    <polygon points="86.41 619.35 87.04 619.99 86.41 620.62 86.41 619.35"/>
    <polygon points="367.49 638.41 368.13 639.04 367.49 639.68 367.49 638.41"/>
    <path d="M47.16,64.24c14.82,1.78,36.13,11.58,39.27,27.92-16.37-6.65-33.54-12.27-49.24-20.45-3.55-1.85-8.12-4.64-10.92-7.46,6.66.57,14.39-.78,20.89,0Z"/>
  </g>
  <g>
    <path d="M269.37,563.46l20.91-5.06c10.49-.89,20.49-.31,30.99-.03,1.53-9.25,8.51-41.54,13.84-47.47,1.32-1.47,3.66-.57,3.89-.8,1.41-1.43-3.17-10.05-6.41-9.61l-56.01,18.75-8.49,14.99c-3.59-1.02.47-11,.01-11.41l-18.98,5.06c3.48-3.38,16.42-4.77,18.89-8.34,2.05-2.97,7.24-31.49,9.6-38.64,1.29-3.92,4.3-15.15,8.22-15.88,1.42-1.54,1.58-.09,1.25,1.23-1.61,6.27-16.78,46.95-15.16,48.93,1.93,2.36,2.72-1.66,3.11-2.52,6.6-14.35,10.58-31.99,15.89-47,2.2-.3,1.19,2.89,1.25,4.42.66,17.75-8.06,30.51-13.91,46.38l65.82-23.49c-11.9-12.74-32.31-15.2-45.49-25.5-2.49-1.95-9.23-10.7-10.63-10.58-12.44,8.09-24.47,18.18-33.73,29.77-1.82,2.27-10.73,13.94-11.16,15.48-2.45,8.73,4.8,10.27-10.41,9.26l8.51-90.69c-11.95-19.82-32-41.99-26.21-66.83,1.27-1.28,7.4,18.21,8.24,20.3,4.46,11.13,9.02,22.7,15.19,33.02l-17.07-54.02c-.04-5.65,5.59,2.85,7.1,3.09,1.63.26,3.54-2.62,5.52-2.42-19.35-10.56-2.61-16.39,10.77-16.47,4.71-.03,15.04,3.64,18.84,2.6,2.24-.61.33-8.49,3.81-7.6.76.19,9.29,3.32,9.63,3.71,1.47,1.66-2.84,5.65-2.55,6.94.48,2.09,22.8,7.88,25.33,12.1h-29.75c-1.88,0-4.18,6.4-1.99,9.61,1.3,1.9,13.78,9.23,17.14,12.03,10.08,8.39,19.14,18.22,29.77,26.01-7.2-1.49-53.41-21.89-55.68-19.71-1.85,4.71-5.06,35.48-6.35,36.83-.74.77-21.08-1.54,1.25,5.73-5.64,11.81-7.4,28.53-8.82,41.94-.46,4.3-2.56,25.09-1.95,27.3.95,3.45,1.49.69,2.26-.29,3.82-4.83,7.06-10.6,11.14-15.21,7.47-8.44,32.56-31.89,43.56-31.56,14.47.43,46.33,29.39,47.7,45.6,19.53-1.08,39.25,4.73,54.26,17.34-22.42,1.5-44.06-5.71-65.83-9.52l8.5,12.19-5.96,52.58c2.65-.76,2.64-4.1,3.19-6.31,3.51-14.17,4.67-30.04,6.94-44.49l3.89,15.89c2.91,8.99-14.91,52.25-13.9,55.67.33,1.12,14.74,12.17,17.63,15.42,9.84,11.04,17.87,26.14,17.68,41.31l-9.1-20.7c-6.28-9.31-13.13-19.78-23.78-24.4,10.61,10.24,22.24,24,24.67,38.75-12.66-19.49-30.03-35.18-47.43-50.26-2.34-2.03-5.8-1.36-6.38-5.61,7.29-3.1,14.28,1.38,21.52,2.52v-17.78c0-.6-11.15-1.54-11.81-1.34-2.14.62-.82,5.24-3.37,5.15-.25-1,.3-6.34-.01-6.34h-49.38ZM257.96,355.14c-9.49-1.43-11-.78-1.88,3.77l1.88-3.77ZM251.52,378.19c-.55-.97-16.74-8.87-18.86-11.62l10.12,41.92c3.47.38,2-.14,2.51-1.9.96-3.3,6.94-27.14,6.23-28.4ZM336.46,541.87c-2.88,3.73-8.74,11.78-10.15,15.87-1.09,3.14,2.04,4.13,4.81,4.23,7.45.28,2.46-14.47,5.35-20.1ZM340.27,568.55c-2.9-2.78-3.3,5.64-2.51,7.6s2.84-7.3,2.51-7.6Z"/>
    <path d="M112.38,104.88c8.71-11.24,18.48-23.06,32.91-26.66,1.87,1.54-27.84,34.81-31.62,36.55-2.42,10.93,1.13,22.48.14,33.77,5.29,2.73,10.43,3.95,15.87,6.94,16.97,9.33,33.02,22.85,47.26,35.77-18.45-5.96-37.19-12.48-53.57-23.08-3.53-2.29-7.93-10.29-8.46-2.97-.16,2.24.43,11.67,0,12.1-.31.31-8.56.31-8.88,0-.72-.72.46-17.91-2.51-20.32l-29.13,53.33c-1.28-15.5,2.84-30.85,9.04-44.91,3.84-8.7,9.67-23.6,21.33-18.6l-2.53-49.54c-2.64,1.97-7.89-.86-9.73-2.92-5.06-5.69-10.48-19.14-16.89-26.88-5.82-7.02-13.32-13.15-20.19-19.11,9.42,2.48,17.11,9.05,25.19,14.09l21.62,20.85-3.79-50.8,13.37,1.22.56,71.17ZM115.52,151.92c-1.77.01-1.53,2.01-.89,3.38,2.2,4.75,37.28,22.11,44.55,25.18-5.14-3.89-40.84-28.58-43.66-28.56Z"/>
    <path d="M63.62,361.48c16.09,1.92,32.13,10.9,44.93,20.32l-25.96-64.76,34.82,73.65-5.05-60.96h13.92s2.55,96.53,2.55,96.53l20.26-31.75c1.73-.33,1.25.49,1.3,1.92.24,8.16-5.29,29.06-9.5,36.22-1.57,2.68-5.86,9.32-9.53,8.22l14.57-34.91c-3.92,8.72-14.3,23-16.38,31.65-1.83,7.62,3.55,29.16,1.84,34.79-.79,2.61-9.44,2.62-10.22,0l-2.46-67.13c-.3-2.36-2.38-8.63-3.8-10.25-2-2.28-3.51-.22-4.72-.85-.37-.19-.51-1.7-1.37-2.09-21.22-9.72-45.26-15.07-63.58-30.6,5.87.5,12.63-.69,18.36,0Z"/>
    <path d="M188.34,281.46l-6.17,52.55c11.59,7.09,20.14-.65,24.55,16.01,6.35,23.97-2.38,49.21-13.96,69.91,2.57-19.35-5.14-38.37-3.22-57.87.44-4.45,6.44-18.74,5.86-19.66-.68-1.08-12.46-6.74-14.08-3.83l-4.37,58.49c-1.73-.29-8.46.42-8.88,0-4.14-4.13,8.61-103.11,6.33-116.88l13.94,1.28Z"/>
    <path d="M126.29,575.53c-.42-1.29-13.48-6.34-16.95-9.67-9.71-9.31-14.44-27.13-23.54-37.35,15.13,11.19,25.79,27.08,39.21,40.03-.48-7.77-9.03-12.79-13.19-19.14-10.34-15.76-11.8-35.6-17.17-53.26l9.5,11.41,20.86,47.02-5.05-76.21h13.92s2.54,141,2.54,141c-1.33-.36-10.14.5-10.14,0,0-7.89,1.56-39.09,0-43.83Z"/>
    <path d="M117.44,181.1c1.5,1.51-.28,36.53-.06,42.61,1.24,33.61,5.04,67.57,5.83,101.02-14.86,7.4-8.2-16.62-10.84-25.5-9.29.54-19.62-3.23-26.59-9.53,5.86-.48,12.86,1.39,18.58,1.7,1.48.08,2.51.18,1.66-1.68-1.48-3.26-7.31-9.46-9.74-14.37-5.55-11.21-8.99-23.39-13.05-35.18l27.85,41.27-6.32-100.34c2.13.34,12.19-.5,12.67-.01Z"/>
    <path d="M175.67,515.83c-.97,3.12-9.53,2-10.18-.22l.05-114.73h13.93c1.66,4.48-2.31,4.71-2.64,6.9-.67,4.53-.96,13.88-1.22,19.08-.73,14.54.63,29.33.06,43.87,1.48,2.01,12.18-14.03,13.27-15.25,6.61-7.41,14.37-14.79,22.14-20.96-10.8,15.05-17.97,33.36-29.68,47.7-1.09,1.33-5.75,3.81-5.75,4.4,0,5.89,1.19,25.39,0,29.22Z"/>
    <path d="M127.56,672.07c-.36-1.26-14.36-15.5-16.98-19.81-2.74-4.53-5.54-9.84-5.8-15.13l22.76,26.68c-2.9-10.97-12.99-20.14-18.97-29.86,6.17-4.41,16.31,20.29,18.98,17.15-1.03-3.59-.52-15.82-1.84-17.83-1.27-1.94-18.18-5.72-21.56-7.59-4.56,22.92-32.1,32.42-38.65,53.37-5.42-5.57-1.36-17.22,1.04-23.73,2.62-7.11,17.08-31.31,23.98-33.09,10.36-2.67,25.93,5.08,35.75,8.56l-1.25-7.61c3.92,2.49,13.39-2.01,13.4,2.59.03,8.96-4.04,12.09,8.11,15.18-.15-14.16,3.63-38.48,13.93-48.9,2.3-2.33,6.46-3.61,7-4.4,2.15-3.13-.65-9.53-.72-13.33-.33-18.07.68-36.15-2.48-54.03l15.18,1.28c-3.1,2.43-3.66,10.01-3.84,14.54-.15,3.71-1.68,13.94,3.21,12.15,1.15-.42,11.66-16.6,14.58-19.71,6.36-6.77,16.13-14.18,24.02-19.08-6.73,8.87-14.47,17.18-19.98,26.94-4.85,8.59-8.83,24.9-13.62,30.79-4.16,5.11-10.02,3.06-6.96,14.54.46,1.72,9.21,1.88,11.48,2.68,20.19,7.1,28.49,37.48,41.77,52.73v-24.77c0-.59-2.71-3.84-.63-4.45h12.02c.73,1.77-1.26,3.78-1.26,4.45v51.45l18.5-29.08c6.57-6.8,11.2-16.17,19.46-21.11l-31.6,54.66.61,1.87c6.36-7.16,14.04-13.2,23.4-15.89-7.88,5.8-13.21,16.93-20.15,22.93-2.41,2.08-8.81,4.29-9.59,5.66-3.69,6.46,5.62,13.72-9.49,11.45-1.97-1.97.76-49.52-1.92-55.87-1.35-3.2-24.5-24.34-29.11-29.23-6.01-6.38-13.26-17.06-19.23-22.57-4.16-3.84-5.65-.79-3.32,3.48,2.58,4.72,14.02,14.06,18.1,19.74,13.95,19.43,15.84,44.15,24.06,66.04-14.06-12.17-22.57-31.81-29.7-48.94-3.09-7.42-6.4-22.87-9.49-28.34-.75-1.34-3.46-1.19-3.82-.85-2.11,2.01,2.35,3.93,2.62,5.63,1.44,9.16-1.57,21.41,1.17,31.2-2-.32-10.95.47-11.41,0-.68-.68,1.75-19.56-2.51-15.25-1.31,1.33-9.67,23.58-12.47,27.12l16.24,14.79-2.52-22.85h15.19c-3.76,37.36,2.01,75.53,3.81,113.05h-11.41s-3.82-79.37-3.82-79.37c-.14-11.08-10.8-16.15-18.34-22.22-8.51,19.89-3.39,2.02-7.66-5.04-1.63-2.7-5.55-3.64-8.15-5.15,1.74,8.28-2.29,19.73-1.21,27.21.91,6.32,8.5,15.02,10.07,21.68-3.19-.22-10.14-10.82-10.14-2.53v65.42c0,.44-8.86.44-8.86,0v-79.39Z"/>
    <path d="M315.49,292.37c.16.32,1.41.57,1.88,1.55,1.9,4.01,13.91,34.29,12.76,35.81-19.22-20.77-42.15-44.27-49.35-72.41,16.06,15.81,23.82,38,38.59,54.63,3.53,2.93-.84-3.76-1.05-4.06-11.51-16.86-20.1-35.91-32.46-52.49,15.1,5.42,22.89,23.33,29.63,36.97Z"/>
    <path d="M90.8,134.16c.41,8.54-8.33,10.29-14.5,12.67-17.56,6.76-38.94,10.84-57.62,12.67,3.39-3.13,8.53-6.04,12.63-8.27,17-9.2,39.94-22.01,59.5-17.07Z"/>
    <path d="M294.81,438.84c-3.38-5.41,9.96-13.81,13.84-15.71,15.92-7.79,38.3-10.51,55.65-14.02-13.42,9.73-30.09,19.44-45.57,25.4-3.96,1.52-21.2,8.68-23.92,4.33Z"/>
    <path d="M22.48,606.64l19.64-3.77c11.13-1.13,41.43-3.18,49.4,5.01,8.78,9.03-13.98,7.83-17.75,7.65-16.74-.81-34.87-5.58-51.29-8.89Z"/>
    <path d="M244.04,560.92c.72.21,2.69.45,2.56-.74-1.14-7.63,1.75-13.81,3.79-20.85l4.4,21.58c5.49-3.24,6.01-9.55,10.71-14.66,11.28-12.24,37.5-22.07,53.23-27.24-16.13,12.88-31.06,30.08-49.73,39.64-4.2,2.15-12.66,1.38-14.83,7.97,6.02,7.53,9.05.66,15.69.76,6.6.1,25.59,8.96,31.56,12.83,7.38,4.78,18.41,13.48,19.24,22.61-6.25-6.29-17.35-9.91-25.96-9.51,8.51,4.15,10.2,6.69,14.13,15.04,7.98,16.9,11.54,32.85,13.7,51.65l-7.93-10.51c-4.9-11.29-10.02-22.54-13.91-34.24-1.54-4.63-2.98-16.96-4.64-19.48-5.16-7.82-32.92-6.39-37.41-17.09-1.65-3.93.62-9-5.81-10.78-2.35-.65-12.27,5.47-12.59,6.64-1.06,3.89,1.41,28.2.02,29.58-.36.36-9.78.36-10.14,0-.54-.54.4-12.85.02-15.26-6.43.69-40.76-4.97-41.79-10.81-.79-4.5,11.4-3.33,14.53-3.13,9.12.6,18.3,4.66,27.24,6.32l1.26-43.18-40.51,23.49c3.42-13.88,8.79-20.29,20.69-27.51,3.79-2.3,19.07-7.95,19.66-8.86,3.46-5.39-7.37-12.47,12.84-9.97l-1.25,7.6,7.56-.64c-1.39,2.54-5.48,3.96-6.86,5.8-3.03,4.05-4.83,27.33-.71,31.68-.71-.22-2.7-.45-2.55.74l.03,9.41,7.57-4.44c-1.6-.93-2.7-3.56-3.78-4.45ZM230.11,583.81c-2.7-2.47-24.23-4.99-29.11-5.09l27.48,7.37c2.2,1.22,2.01-1.93,1.63-2.28Z"/>
    <path d="M244.04,560.92c-.72-.21-.88-.86-1.27-1.27.8.25.91.98,1.27,1.27Z"/>
    <path d="M231.38,707.64c-.12-1.46-2.93-9.22-2.53-9.51h13.93s-2.52,53.35-2.52,53.35c-1.22-.31-8.87.44-8.87,0,0-13.94,1.09-30.21,0-43.83Z"/>
    <path d="M321.27,219.23c-1.19,1.74-7.45,2.36-9.51,2.5-8.64.61-31.19.98-38.63-1.85s-2.84-7.2,2.81-8.69c14.59-3.86,31.44,4.47,45.34,8.04Z"/>
    <path d="M46.51,214.12c-2.69-2.26.04-10.59.93-13.68,6.2-21.64,22.2-40.83,40.25-53.61-14.75,21.53-33.69,41.7-41.18,67.29Z"/>
    <path d="M378.24,568.54l-13.03-25.65c-2.3-7.93-2.45-15.67-2.15-23.87,2.97-3.41,9.99,16.53,10.45,18.08,2.96,9.95,4.62,21.03,4.72,31.44Z"/>
    <path d="M332.04,444.05c16.93,1.71,38.2,11.21,49.39,24.11-9.95-7.43-22.38-10.11-33.87-14.28l-42.75-9.83c8.77.64,18.6-.87,27.22,0Z"/>
    <path d="M50.96,98.53c-1.05.06-6.38,3.5-6.96.01,12.21-1.74,24.98-3.66,37.4-2.61,19.44,1.65,8.83,7.94-3.81,8.99-11.6.96-23.32-.95-34.85-1.33.29-1.1,7.79-2.53,8.22-2.53h26.59c.24,0,2.02-1.76,1.9-2.54-9.44.4-19.06-.55-28.49,0Z"/>
    <path d="M171.87,217.95c-8.55,10.95-22.63,14.61-35.45,17.76,9.88-8.27,22.31-16.45,35.45-17.76Z"/>
    <path d="M99.7,132.83c-10.61,1.41-14.76-11.26-22.79-16.5,8.55,2.26,24.44,4.91,22.79,16.5Z"/>
    <path d="M289.31,439.96c-.6.66-1.95,1.02-2.86,1.01-9.91-.06.63-22.37,5.68-24.86-2.1,5.36.27,20.42-2.83,23.85Z"/>
    <path d="M88.93,590.17c4.42,1.36,21.36,18.89,12.63,21.55-6.16,1.88-9.76-17.88-12.63-21.55Z"/>
    <path d="M252.91,262.4c-.09.03-.92-.92-1.27-1.27.25-.08.87,1.02,1.27,1.27Z"/>
    <path d="M208.6,163.33l-6.32,24.13c25.02-17.41,62.65-2.45,89.87,3.83l-87.99-2.57c-3-.92-4.85,9.73-4.43,10.16.23.24,4.37.61,6.42,1.83,2.93,1.75,6.13,4.24,8.79,6.42,5,4.09,24.83,27.27,26.61,28.03,2.49,1.06,6.16-1.92,8.21-3.22.74,3.11-5.56,3.02-5.78,4.49-.44,2.9,3.82,7.43,5.79,9.44,3.57-.04,1.19-5.63,2.55-8.84,4.96-11.73,15.4,5.35,17.67,10.15,9.57,20.18,10.29,44.51,10.95,66.5.89,2.32,22.2,6.54,23.27,13.48-2.43-2.19-21.38-8.47-22.16-7.59-4.6,5.19,12.71,6.14,13.91,8.87-28.15-3.64-55.89,4.83-83.55,8.9-4.69-4.41,17.66-17.93,20.91-18.97-2.25-21.41,2.87-43.07,10.8-62.84-3.53-1.35-11.87-10.78-14.59-10.88-5.55-.22-27.96,16.21-36.12,16.47l34.16-18.41-29.74-29.85c-3.04,13.34-7.47,30.42-8.22,43.93-.25,4.57.07,2.94,2.52,5.59-6.64.39-1.8,12.45-4.97,14.72-1.75,1.26-9.9-.13-10.28-1.52-1.69-6.19,2.47-7.22,2.56-7.72,2-10.2,1.72-21.81,3.21-32.13l-51.28,45.71c9.88-23.73,28.37-49.28,49.45-64.08,1.91-1.34,5.59-1.63,6.39-2.77,1.33-1.9,7.68-39.86,8.58-45.72.41-2.68.11-5.42.17-8.1l12.66,2.54ZM233.91,240.8c-1.9-4.34-6.32-9.06-9.47-12.71-5.22-6.04-11.24-11.69-16.49-17.74l6.33,10.15,19.63,20.3ZM167.35,238.81c-10.46,10.81-20.63,22.52-29.04,34.99,12.37-10.93,22.23-24.3,33.54-36.21,4.52-4.76,14.2-9.24,13.33-15.84-6.26,5.43-12.09,11.12-17.83,17.05ZM235.19,240.81c-1.49,2.8,8.68,12.6,9.48,12.67,1.09.1,1.87-1.26.64-3.15-1.96-3.01-7.26-7.01-10.12-9.53ZM251.64,261.13c-3.81,1.22,4.42,14.63,4.66,17.31,1.22,13.23-14.37,27.44-19.86,38.57,13.02-1.18,26.18-5.8,39.24-2.53-3.39-7.79-18.14-49.12-22.78-52.07,3.9-1.27-2.07-7.44-3.78-7.62-.32,2.33.96,4.76,2.52,6.35ZM279.49,323.37c-.16-5.79-15.26-4.21-19.66-3.85-4.61.38-12.98,1.23-15.78,5.11,11.87-2.87,23.38-3.24,35.44-1.27Z"/>
    <path d="M108.56,394.53c-.1,2.26-6.08,1.61-6.09,4.41,0,.44,2.26,2.28,2.37,5.02.61,15.92-14.75,44.72-19.69,60.43l-.69-14.67,1.96-19.63-32.28,48.26c7.66-26.76,11.56-64.61,36.67-80.68-8.34,18.39-21.62,39.89-27.22,59.07-.37,1.26-1.76,4.07.64,3.82,7.62-21.56,20.2-40.94,30.34-61.32l13.98-4.71Z"/>
    <path d="M265.22,223.27c6.25-1.36,14.3,4.33,19.74,7.6,13.72,8.25,26.37,20.8,38.81,30.91-15.95-6.2-45.71-16.51-57.61-28.57-3.33-3.37-1.62-9.81-8.85-3.87.18-2.37,6.17-5.7,7.9-6.08Z"/>
    <path d="M84.5,620.64l-47.46,30.49-13.28,12.07c12.53-22.34,36.32-36.44,60.74-42.56Z"/>
    <path d="M75.64,391.98c-8.16,19.31-27.41,28.51-45.55,36.21,2.53-7.33,40.58-40.74,45.55-36.21Z"/>
    <path d="M138.95,132.84l10.78,21.55c-7.91-8.51-17.89-16.6-24.67-26.05-3.57-4.97-4.35-9.16-7.62-13.29,3.2-.4,5.36-.11,8.33,1.15,11.18,4.75,24.15,22.53,35.95,27.43l-32.89-29.24c19.77,2.9,31.72,25.7,44.28,39.4l-34.16-20.96Z"/>
    <path d="M225.7,452.97c-10.15,14.22-25.5,23.91-41.13,31.11,7.07-9.15,9.71-18.29,21.13-23.25,6.29-2.73,14.88-2.47,20.01-7.86Z"/>
    <path d="M206.06,193.82c17.2-2.69,34.01,6.21,46.82,17.15-15.12-6.16-35.08-4.54-46.82-17.15Z"/>
    <path d="M183.26,211.61l-56.94,10.8c16.15-11.67,37.64-15.75,56.94-10.8Z"/>
    <polygon points="254.81 229.37 255.44 230.01 254.81 230.64 254.81 229.37"/>
    <polygon points="252.27 230.64 252.91 231.28 252.27 231.91 252.27 230.64"/>
    <polygon points="85.14 525.35 85.77 525.99 85.14 526.62 85.14 525.35"/>
    <polygon points="247.21 527.89 247.84 528.53 247.21 529.16 247.21 527.89"/>
    <polygon points="86.41 619.35 87.04 619.99 86.41 620.62 86.41 619.35"/>
    <polygon points="367.49 638.41 368.13 639.04 367.49 639.68 367.49 638.41"/>
    <path d="M47.16,64.24c14.82,1.78,36.13,11.58,39.27,27.92-16.37-6.65-33.54-12.27-49.24-20.45-3.55-1.85-8.12-4.64-10.92-7.46,6.66.57,14.39-.78,20.89,0Z"/>
  </g>
</svg>