<?xml version="1.0" encoding="UTF-8"?>
<svg id="Layer_2" data-name="Layer 2" xmlns="http://www.w3.org/2000/svg" viewBox="0 0 487.8 724.87">
  <g>
    <path d="M182.06,670.75l-20.91-5.06c-10.49-.89-20.49-.31-30.99-.03-1.53-9.25-8.51-41.54-13.84-47.47-1.32-1.47-3.66-.57-3.89-.8-1.41-1.43,3.17-10.05,6.41-9.61l56.01,18.75,8.49,14.99c3.59-1.02-.47-11-.01-11.41l18.98,5.06c-3.48-3.38-16.42-4.77-18.89-8.34-2.05-2.97-7.24-31.49-9.6-38.64-1.29-3.92-4.3-15.15-8.22-15.88-1.42-1.54-1.58-.09-1.25,1.23,1.61,6.27,16.78,46.95,15.16,48.93-1.93,2.36-2.72-1.66-3.11-2.52-6.6-14.35-10.58-31.99-15.89-47-2.2-.3-1.19,2.89-1.25,4.42-.66,17.75,8.06,30.51,13.91,46.38l-65.82-23.49c11.9-12.74,32.31-15.2,45.49-25.5,2.49-1.95,9.23-10.7,10.63-10.58,12.44,8.09,24.47,18.18,33.73,29.77,1.82,2.27,10.73,13.94,11.16,15.48,2.45,8.73-4.8,10.27,10.41,9.26l-8.51-90.69c11.95-19.82,32-41.99,26.21-66.83-1.27-1.28-7.4,18.21-8.24,20.3-4.46,11.13-9.02,22.7-15.19,33.02l17.07-54.02c.04-5.65-5.59,2.85-7.1,3.09-1.63.26-3.54-2.62-5.52-2.42,19.35-10.56,2.61-16.39-10.77-16.47-4.71-.03-15.04,3.64-18.84,2.6-2.24-.61-.33-8.49-3.81-7.6-.76.19-9.29,3.32-9.63,3.71-1.47,1.66,2.84,5.65,2.55,6.94-.48,2.09-22.8,7.88-25.33,12.1h29.75c1.88,0,4.18,6.4,1.99,9.61-1.3,1.9-13.78,9.23-17.14,12.03-10.08,8.39-19.14,18.22-29.77,26.01,7.2-1.49,53.41-21.89,55.68-19.71,1.85,4.71,5.06,35.48,6.35,36.83.74.77,21.08-1.54-1.25,5.73,5.64,11.81,7.4,28.53,8.82,41.94.46,4.3,2.56,25.09,1.95,27.3-.95,3.45-1.49.69-2.26-.29-3.82-4.83-7.06-10.6-11.14-15.21-7.47-8.44-32.56-31.89-43.56-31.56-14.47.43-46.33,29.39-47.7,45.6-19.53-1.08-39.25,4.73-54.26,17.34,22.42,1.5,44.06-5.71,65.83-9.52l-8.5,12.19,5.96,52.58c-2.65-.76-2.64-4.1-3.19-6.31-3.51-14.17-4.67-30.04-6.94-44.49l-3.89,15.89c-2.91,8.99,14.91,52.25,13.9,55.67-.33,1.12-14.74,12.17-17.63,15.42-9.84,11.04-17.87,26.14-17.68,41.31l9.1-20.7c6.28-9.31,13.13-19.78,23.78-24.4-10.61,10.24-22.24,24-24.67,38.75,12.66-19.49,30.03-35.18,47.43-50.26,2.34-2.03,5.8-1.36,6.38-5.61-7.29-3.1-14.28,1.38-21.52,2.52v-17.78c0-.6,11.15-1.54,11.81-1.34,2.14.62.82,5.24,3.37,5.15.25-1-.3-6.34.01-6.34h49.38ZM193.46,462.43c9.49-1.43,11-.78,1.88,3.77l-1.88-3.77ZM199.91,485.47c.55-.97,16.74-8.87,18.86-11.62l-10.12,41.92c-3.47.38-2-.14-2.51-1.9-.96-3.3-6.94-27.14-6.23-28.4ZM114.97,649.15c2.88,3.73,8.74,11.78,10.15,15.87,1.09,3.14-2.04,4.13-4.81,4.23-7.45.28-2.46-14.47-5.35-20.1ZM111.16,675.84c2.9-2.78,3.3,5.64,2.51,7.6s-2.84-7.3-2.51-7.6Z"/>
    <path d="M364.07,84.35c-7.49-12.09-15.96-24.87-29.93-29.97-2.02,1.33,24.03,37.54,27.62,39.66,1.27,11.12-3.48,22.24-3.68,33.57-5.55,2.16-10.79,2.83-16.51,5.24-17.86,7.5-35.23,19.26-50.75,30.62,18.97-4,38.29-8.51,55.7-17.34,3.75-1.9,8.96-9.4,8.72-2.06-.07,2.25-1.66,11.56-1.28,12.03.28.35,8.48,1.21,8.83.93.8-.64,1.42-17.86,4.62-19.95l23.38,56.09c2.9-15.28.41-30.98-4.28-45.61-2.9-9.06-7.14-24.48-19.27-20.74l7.71-49c2.42,2.23,7.94-.03,9.98-1.89,5.63-5.13,12.42-17.94,19.62-24.96,6.52-6.37,14.63-11.68,22.08-16.89-9.62,1.48-17.96,7.2-26.53,11.37l-23.69,18.47,9.09-50.12-13.43-.18-8.02,70.72ZM356.02,130.8c1.76.2,1.31,2.15.53,3.46-2.69,4.49-39.39,18.08-46.94,20.37,5.52-3.33,43.61-24.14,46.42-23.83Z"/>
    <path d="M406.41,342.69c-15.89,3.17-31.19,13.36-43.22,23.75l20.85-66.58-29,76.13.3-61.17-13.88,1.08,4.95,96.44-22.67-30.08c-1.75-.19-1.21.59-1.14,2.01.4,8.15,7.53,28.56,12.29,35.38,1.78,2.55,6.56,8.84,10.14,7.46l-17.23-33.68c4.59,8.39,16.04,21.82,18.78,30.28,2.41,7.45-1.28,29.35.86,34.83.99,2.54,9.62,1.88,10.19-.79l-2.76-67.12c.11-2.38,1.71-8.79,2.99-10.52,1.81-2.43,3.48-.5,4.64-1.22.35-.22.38-1.74,1.2-2.19,20.4-11.34,43.95-18.54,61.01-35.44-5.81.95-12.65.3-18.3,1.43Z"/>
    <path d="M272.72,269.28l6.17,52.55c-11.59,7.09-20.14-.65-24.55,16.01-6.35,23.97,2.38,49.21,13.96,69.91-2.57-19.35,5.14-38.37,3.22-57.87-.44-4.45-6.44-18.74-5.86-19.66.68-1.08,12.46-6.74,14.08-3.83l4.37,58.49c1.73-.29,8.46.42,8.88,0,4.14-4.13-8.61-103.11-6.33-116.88l-13.94,1.28Z"/>
    <path d="M360.54,560.96c.32-1.31,12.95-7.36,16.15-10.95,8.96-10.03,12.29-28.17,20.57-39.06-14.22,12.33-23.61,29-35.98,42.95-.12-7.78,8.01-13.45,11.67-20.11,9.08-16.52,9-36.41,12.98-54.44l-8.59,12.11-17.14,48.5-.88-76.37-13.88,1.08,8.41,140.77c1.3-.47,10.14-.29,10.1-.79-.61-7.86-4.59-38.85-3.4-43.69Z"/>
    <path d="M349.63,162.56c-1.47,1.54.97,36.52.86,42.6-.61,33.63-3.77,67.65-3.93,101.11,14.99,7.12,7.89-16.77,10.35-25.7,9.3.37,19.56-3.59,26.41-10.02-5.87-.37-12.83,1.64-18.55,2.05-1.48.11-2.5.23-1.69-1.65,1.42-3.28,7.13-9.6,9.47-14.55,5.34-11.32,8.55-23.55,12.38-35.42l-27.07,41.78,4.43-100.44c-2.12.38-12.2-.27-12.67.22Z"/>
    <path d="M285.38,503.64c.97,3.12,9.53,2,10.18-.22l-.05-114.73h-13.93c-1.66,4.48,2.31,4.71,2.64,6.9.67,4.53.96,13.88,1.22,19.08.73,14.54-.63,29.33-.06,43.87-1.48,2.01-12.18-14.03-13.27-15.25-6.61-7.41-14.37-14.79-22.14-20.96,10.8,15.05,17.97,33.36,29.68,47.7,1.09,1.33,5.75,3.81,5.75,4.4,0,5.89-1.19,25.39,0,29.22Z"/>
    <path d="M344.39,656.55c.26-1.28,13.12-16.56,15.39-21.07,2.38-4.73,4.76-10.24,4.61-15.53l-20.62,28.36c2.04-11.17,11.39-21.09,16.59-31.24-6.49-3.91-14.68,21.49-17.59,18.57.75-3.66-.71-15.81.45-17.92s17.68-7.11,20.9-9.24c6.32,22.5,34.52,29.83,42.68,50.2,4.97-5.97.02-17.28-2.88-23.58-3.17-6.88-19.46-29.89-26.48-31.13-10.54-1.86-25.46,7.08-34.98,11.31l.65-7.69c-3.71,2.78-13.5-.96-13.16,3.63.66,8.93,4.97,11.74-6.91,15.76-.95-14.13-6.6-38.08-17.69-47.67-2.48-2.15-6.72-3.1-7.32-3.84-2.38-2.96-.1-9.55-.32-13.35-1.08-18.04-3.49-35.98-1.72-54.06l-15.03,2.45c3.28,2.18,4.43,9.7,4.96,14.2.43,3.68,2.76,13.77-2.26,12.36-1.18-.33-12.91-15.64-16.06-18.52-6.87-6.26-17.18-12.89-25.42-17.16,7.39,8.32,15.76,16.01,22.01,25.31,5.5,8.18,10.73,24.14,15.97,29.64,4.54,4.77,10.23,2.27,8.07,13.95-.32,1.75-9.04,2.59-11.24,3.57-19.58,8.65-25.49,39.57-37.55,55.81l-1.92-24.7c-.05-.59,2.41-4.03.28-4.49l-11.98.95c-.59,1.81,1.55,3.66,1.6,4.33l3.99,51.29-20.7-27.56c-7.08-6.27-12.42-15.25-21.04-19.54l35.75,52.05-.46,1.91c-6.89-6.64-15.03-12.07-24.57-14.02,8.31,5.18,14.49,15.85,21.87,21.29,2.56,1.89,9.11,3.59,10,4.9,4.18,6.15-4.54,14.12,10.35,10.68,1.82-2.12-4.6-49.31-2.42-55.85,1.1-3.29,22.54-26.17,26.75-31.4,5.5-6.83,11.9-18.04,17.42-23.99,3.85-4.15,5.57-1.22,3.58,3.21-2.21,4.91-12.88,15.11-16.51,21.09-12.4,20.45-12.37,45.24-18.86,67.71,13.08-13.23,20.04-33.47,25.81-51.1,2.5-7.64,4.6-23.3,7.26-28.99.65-1.39,3.36-1.45,3.74-1.14,2.26,1.84-2.04,4.1-2.18,5.82-.73,9.24,3.23,21.22,1.25,31.19,1.97-.48,10.95-.38,11.37-.88.62-.73-3.27-19.36,1.32-15.4,1.41,1.22,11.47,22.76,14.54,26.07l-15.04,16,.74-22.98-15.14,1.18c6.64,36.95,3.85,75.46,4.98,113l11.37-.88-2.36-79.43c-.72-11.06,9.51-16.94,16.56-23.58,10.03,19.17,3.54,1.75,7.24-5.62,1.42-2.82,5.25-4.06,7.72-5.77-1.09,8.39,3.81,19.5,3.32,27.04-.42,6.37-7.31,15.63-8.36,22.4,3.16-.47,9.27-11.58,9.91-3.31l5.08,65.22c.03.44,8.87-.24,8.84-.69l-6.16-79.15Z"/>
    <path d="M145.57,280.18c-.16.32-1.41.57-1.88,1.55-1.9,4.01-13.91,34.29-12.76,35.81,19.22-20.77,42.15-44.27,49.35-72.41-16.06,15.81-23.82,38-38.59,54.63-3.53,2.93.84-3.76,1.05-4.06,11.51-16.86,20.1-35.91,32.46-52.49-15.1,5.42-22.89,23.33-29.63,36.97Z"/>
    <path d="M376.48,110.9c.25,8.55,9.1,9.62,15.44,11.51,18.03,5.38,39.67,7.78,58.43,8.16-3.63-2.86-8.97-5.36-13.23-7.26-17.67-7.86-41.53-18.85-60.64-12.4Z"/>
    <path d="M466.45,583.91l-19.87-2.24c-11.18-.27-41.56.05-48.86,8.83-8.05,9.68,14.55,6.72,18.29,6.25,16.62-2.11,34.33-8.27,50.45-12.84Z"/>
    <path d="M217.01,548.74c.72-.21.88-.86,1.27-1.27-.8.25-.91.98-1.27,1.27Z"/>
    <path d="M241.93,701.45c.12-1.46,2.93-9.22,2.53-9.51h-13.93s2.52,53.35,2.52,53.35c1.22-.31,8.87.44,8.87,0,0-13.94-1.09-30.21,0-43.83Z"/>
    <path d="M178.76,663.92c.13-2.37,3.2-14.91,2.76-15.38h-15.21s2.76,86.24,2.76,86.24c1.34-.5,9.69.71,9.69-.01,0-22.54-1.19-48.83,0-70.85Z"/>
    <path d="M218.03,645.58c.13-3.01,3.2-18.94,2.76-19.54h-15.21s2.76,109.58,2.76,109.58c1.34-.64,9.69.9,9.69-.01,0-28.64-1.19-62.05,0-90.03Z"/>
    <path d="M139.79,207.04c1.19,1.74,7.45,2.36,9.51,2.5,8.64.61,31.19.98,38.63-1.85s2.84-7.2-2.81-8.69c-14.59-3.86-31.44,4.47-45.34,8.04Z"/>
    <path d="M426.84,187.18c2.5-2.47-.87-10.56-1.99-13.57-7.86-21.1-25.31-38.98-44.29-50.32,16.38,20.32,36.83,38.96,46.28,63.89Z"/>
    <path d="M413.44,72.29c1.05-.02,6.64,2.99,6.94-.53-12.31-.79-25.19-1.71-37.48.3-19.25,3.15-8.19,8.6,4.49,8.66,11.64.06,23.17-2.76,34.65-4.03-.37-1.08-7.97-1.91-8.39-1.88l-26.51,2.06c-.24.02-2.15-1.6-2.09-2.39,9.44-.33,18.96-2.03,28.4-2.21Z"/>
    <path d="M289.18,205.77c8.55,10.95,22.63,14.61,35.45,17.76-9.88-8.27-22.31-16.45-35.45-17.76Z"/>
    <path d="M367.5,110.26c10.69.58,13.84-12.37,21.44-18.22-8.35,2.92-23.98,6.79-21.44,18.22Z"/>
    <path d="M398.93,572.65c-4.31,1.7-19.83,20.49-10.92,22.47,6.29,1.39,8.34-18.58,10.92-22.47Z"/>
    <path d="M208.15,250.22c.09.03.92-.92,1.27-1.27-.25-.08-.87,1.02-1.27,1.27Z"/>
    <path d="M252.46,151.14l6.32,24.13c-25.02-17.41-62.65-2.45-89.87,3.83l87.99-2.57c3-.92,4.85,9.73,4.43,10.16-.23.24-4.37.61-6.42,1.83-2.93,1.75-6.13,4.24-8.79,6.42-5,4.09-24.83,27.27-26.61,28.03-2.49,1.06-6.16-1.92-8.21-3.22-.74,3.11,5.56,3.02,5.78,4.49.44,2.9-3.82,7.43-5.79,9.44-3.57-.04-1.19-5.63-2.55-8.84-4.96-11.73-15.4,5.35-17.67,10.15-9.57,20.18-10.29,44.51-10.95,66.5-.89,2.32-22.2,6.54-23.27,13.48,2.43-2.19,21.38-8.47,22.16-7.59,4.6,5.19-12.71,6.14-13.91,8.87,28.15-3.64,55.89,4.83,83.55,8.9,4.69-4.41-17.66-17.93-20.91-18.97,2.25-21.41-2.87-43.07-10.8-62.84,3.53-1.35,11.87-10.78,14.59-10.88,5.55-.22,27.96,16.21,36.12,16.47l-34.16-18.41,29.74-29.85c3.04,13.34,7.47,30.42,8.22,43.93.25,4.57-.07,2.94-2.52,5.59,6.64.39,1.8,12.45,4.97,14.72,1.75,1.26,9.9-.13,10.28-1.52,1.69-6.19-2.47-7.22-2.56-7.72-2-10.2-1.72-21.81-3.21-32.13l51.28,45.71c-9.88-23.73-28.37-49.28-49.45-64.08-1.91-1.34-5.59-1.63-6.39-2.77-1.33-1.9-7.68-39.86-8.58-45.72-.41-2.68-.11-5.42-.17-8.1l-12.66,2.54ZM227.15,228.61c1.9-4.34,6.32-9.06,9.47-12.71,5.22-6.04,11.24-11.69,16.49-17.74l-6.33,10.15-19.63,20.3ZM293.71,226.63c10.46,10.81,20.63,22.52,29.04,34.99-12.37-10.93-22.23-24.3-33.54-36.21-4.52-4.76-14.2-9.24-13.33-15.84,6.26,5.43,12.09,11.12,17.83,17.05ZM225.86,228.62c1.49,2.8-8.68,12.6-9.48,12.67-1.09.1-1.87-1.26-.64-3.15,1.96-3.01,7.26-7.01,10.12-9.53ZM209.42,248.95c3.81,1.22-4.42,14.63-4.66,17.31-1.22,13.23,14.37,27.44,19.86,38.57-13.02-1.18-26.18-5.8-39.24-2.53,3.39-7.79,18.14-49.12,22.78-52.07-3.9-1.27,2.07-7.44,3.78-7.62.32,2.33-.96,4.76-2.52,6.35ZM181.57,311.18c.16-5.79,15.26-4.21,19.66-3.85,4.61.38,12.98,1.23,15.78,5.11-11.87-2.87-23.38-3.24-35.44-1.27Z"/>
    <path d="M364.17,379.12c.27,2.24,6.19,1.13,6.41,3.93.03.44-2.08,2.45-1.97,5.19.63,15.92,18.18,43.44,24.32,58.72l-.45-14.68-3.47-19.42,35.93,45.61c-9.71-26.09-16.54-63.52-42.83-77.59,9.74,17.68,24.65,38.09,31.72,56.78.47,1.23,2.07,3.92-.34,3.86-9.27-20.91-23.32-39.25-35.01-58.78l-14.3-3.62Z"/>
    <path d="M195.83,211.08c-6.25-1.36-14.3,4.33-19.74,7.6-13.72,8.25-26.37,20.8-38.81,30.91,15.95-6.2,45.71-16.51,57.61-28.57,3.33-3.37,1.62-9.81,8.85-3.87-.18-2.37-6.17-5.7-7.9-6.08Z"/>
    <path d="M405.71,602.68l49.68,26.71,14.17,11c-14.23-21.3-39.04-33.51-63.86-37.72Z"/>
    <path d="M396.79,374.03c9.63,18.61,29.54,26.3,48.22,32.57-3.09-7.11-43.62-37.46-48.22-32.57Z"/>
    <path d="M332.95,102.93l-23.68-4.48c10.35,5.29,20.85,12.68,31.79,16.62,5.76,2.07,10,1.68,14.87,3.7-.49-3.18-1.36-5.19-3.38-7.7-7.63-9.46-28.27-17.08-36.21-27.09l37.11,23.65c-8.18-18.23-33.39-23.49-49.99-31.84l29.49,27.13Z"/>
    <path d="M235.36,440.79c10.15,14.22,25.5,23.91,41.13,31.11-7.07-9.15-9.71-18.29-21.13-23.25-6.29-2.73-14.88-2.47-20.01-7.86Z"/>
    <path d="M255,181.63c-17.2-2.69-34.01,6.21-46.82,17.15,15.12-6.16,35.08-4.54,46.82-17.15Z"/>
    <path d="M277.8,199.42l56.94,10.8c-16.15-11.67-37.64-15.75-56.94-10.8Z"/>
    <polygon points="206.25 217.19 205.62 217.82 206.25 218.46 206.25 217.19"/>
    <polygon points="208.78 218.46 208.15 219.09 208.78 219.73 208.78 218.46"/>
    <polygon points="397.67 507.74 397.09 508.42 397.77 509 397.67 507.74"/>
    <polygon points="213.85 515.71 213.21 516.34 213.85 516.98 213.85 515.71"/>
    <polygon points="403.7 601.55 403.12 602.24 403.8 602.82 403.7 601.55"/>
    <polygon points="93.56 626.22 92.93 626.86 93.56 627.49 93.56 626.22"/>
    <path d="M414.56,37.8c-14.63,2.93-35.12,14.35-36.98,30.88,15.8-7.9,32.49-14.84,47.5-24.21,3.39-2.12,7.73-5.26,10.31-8.29-6.6,1.08-14.41.34-20.83,1.62Z"/>
  </g>
  <g>
    <path d="M182.06,670.75l-20.91-5.06c-10.49-.89-20.49-.31-30.99-.03-1.53-9.25-8.51-41.54-13.84-47.47-1.32-1.47-3.66-.57-3.89-.8-1.41-1.43,3.17-10.05,6.41-9.61l56.01,18.75,8.49,14.99c3.59-1.02-.47-11-.01-11.41l18.98,5.06c-3.48-3.38-16.42-4.77-18.89-8.34-2.05-2.97-7.24-31.49-9.6-38.64-1.29-3.92-4.3-15.15-8.22-15.88-1.42-1.54-1.58-.09-1.25,1.23,1.61,6.27,16.78,46.95,15.16,48.93-1.93,2.36-2.72-1.66-3.11-2.52-6.6-14.35-10.58-31.99-15.89-47-2.2-.3-1.19,2.89-1.25,4.42-.66,17.75,8.06,30.51,13.91,46.38l-65.82-23.49c11.9-12.74,32.31-15.2,45.49-25.5,2.49-1.95,9.23-10.7,10.63-10.58,12.44,8.09,24.47,18.18,33.73,29.77,1.82,2.27,10.73,13.94,11.16,15.48,2.45,8.73-4.8,10.27,10.41,9.26l-8.51-90.69c11.95-19.82,32-41.99,26.21-66.83-1.27-1.28-7.4,18.21-8.24,20.3-4.46,11.13-9.02,22.7-15.19,33.02l17.07-54.02c.04-5.65-5.59,2.85-7.1,3.09-1.63.26-3.54-2.62-5.52-2.42,19.35-10.56,2.61-16.39-10.77-16.47-4.71-.03-15.04,3.64-18.84,2.6-2.24-.61-.33-8.49-3.81-7.6-.76.19-9.29,3.32-9.63,3.71-1.47,1.66,2.84,5.65,2.55,6.94-.48,2.09-22.8,7.88-25.33,12.1h29.75c1.88,0,4.18,6.4,1.99,9.61-1.3,1.9-13.78,9.23-17.14,12.03-10.08,8.39-19.14,18.22-29.77,26.01,7.2-1.49,53.41-21.89,55.68-19.71,1.85,4.71,5.06,35.48,6.35,36.83.74.77,21.08-1.54-1.25,5.73,5.64,11.81,7.4,28.53,8.82,41.94.46,4.3,2.56,25.09,1.95,27.3-.95,3.45-1.49.69-2.26-.29-3.82-4.83-7.06-10.6-11.14-15.21-7.47-8.44-32.56-31.89-43.56-31.56-14.47.43-46.33,29.39-47.7,45.6-19.53-1.08-39.25,4.73-54.26,17.34,22.42,1.5,44.06-5.71,65.83-9.52l-8.5,12.19,5.96,52.58c-2.65-.76-2.64-4.1-3.19-6.31-3.51-14.17-4.67-30.04-6.94-44.49l-3.89,15.89c-2.91,8.99,14.91,52.25,13.9,55.67-.33,1.12-14.74,12.17-17.63,15.42-9.84,11.04-17.87,26.14-17.68,41.31l9.1-20.7c6.28-9.31,13.13-19.78,23.78-24.4-10.61,10.24-22.24,24-24.67,38.75,12.66-19.49,30.03-35.18,47.43-50.26,2.34-2.03,5.8-1.36,6.38-5.61-7.29-3.1-14.28,1.38-21.52,2.52v-17.78c0-.6,11.15-1.54,11.81-1.34,2.14.62.82,5.24,3.37,5.15.25-1-.3-6.34.01-6.34h49.38ZM193.46,462.43c9.49-1.43,11-.78,1.88,3.77l-1.88-3.77ZM199.91,485.47c.55-.97,16.74-8.87,18.86-11.62l-10.12,41.92c-3.47.38-2-.14-2.51-1.9-.96-3.3-6.94-27.14-6.23-28.4ZM114.97,649.15c2.88,3.73,8.74,11.78,10.15,15.87,1.09,3.14-2.04,4.13-4.81,4.23-7.45.28-2.46-14.47-5.35-20.1ZM111.16,675.84c2.9-2.78,3.3,5.64,2.51,7.6s-2.84-7.3-2.51-7.6Z"/>
    <path d="M364.07,84.35c-7.49-12.09-15.96-24.87-29.93-29.97-2.02,1.33,24.03,37.54,27.62,39.66,1.27,11.12-3.48,22.24-3.68,33.57-5.55,2.16-10.79,2.83-16.51,5.24-17.86,7.5-35.23,19.26-50.75,30.62,18.97-4,38.29-8.51,55.7-17.34,3.75-1.9,8.96-9.4,8.72-2.06-.07,2.25-1.66,11.56-1.28,12.03.28.35,8.48,1.21,8.83.93.8-.64,1.42-17.86,4.62-19.95l23.38,56.09c2.9-15.28.41-30.98-4.28-45.61-2.9-9.06-7.14-24.48-19.27-20.74l7.71-49c2.42,2.23,7.94-.03,9.98-1.89,5.63-5.13,12.42-17.94,19.62-24.96,6.52-6.37,14.63-11.68,22.08-16.89-9.62,1.48-17.96,7.2-26.53,11.37l-23.69,18.47,9.09-50.12-13.43-.18-8.02,70.72ZM356.02,130.8c1.76.2,1.31,2.15.53,3.46-2.69,4.49-39.39,18.08-46.94,20.37,5.52-3.33,43.61-24.14,46.42-23.83Z"/>
    <path d="M406.41,342.69c-15.89,3.17-31.19,13.36-43.22,23.75l20.85-66.58-29,76.13.3-61.17-13.88,1.08,4.95,96.44-22.67-30.08c-1.75-.19-1.21.59-1.14,2.01.4,8.15,7.53,28.56,12.29,35.38,1.78,2.55,6.56,8.84,10.14,7.46l-17.23-33.68c4.59,8.39,16.04,21.82,18.78,30.28,2.41,7.45-1.28,29.35.86,34.83.99,2.54,9.62,1.88,10.19-.79l-2.76-67.12c.11-2.38,1.71-8.79,2.99-10.52,1.81-2.43,3.48-.5,4.64-1.22.35-.22.38-1.74,1.2-2.19,20.4-11.34,43.95-18.54,61.01-35.44-5.81.95-12.65.3-18.3,1.43Z"/>
    <path d="M272.72,269.28l6.17,52.55c-11.59,7.09-20.14-.65-24.55,16.01-6.35,23.97,2.38,49.21,13.96,69.91-2.57-19.35,5.14-38.37,3.22-57.87-.44-4.45-6.44-18.74-5.86-19.66.68-1.08,12.46-6.74,14.08-3.83l4.37,58.49c1.73-.29,8.46.42,8.88,0,4.14-4.13-8.61-103.11-6.33-116.88l-13.94,1.28Z"/>
    <path d="M360.54,560.96c.32-1.31,12.95-7.36,16.15-10.95,8.96-10.03,12.29-28.17,20.57-39.06-14.22,12.33-23.61,29-35.98,42.95-.12-7.78,8.01-13.45,11.67-20.11,9.08-16.52,9-36.41,12.98-54.44l-8.59,12.11-17.14,48.5-.88-76.37-13.88,1.08,8.41,140.77c1.3-.47,10.14-.29,10.1-.79-.61-7.86-4.59-38.85-3.4-43.69Z"/>
    <path d="M349.63,162.56c-1.47,1.54.97,36.52.86,42.6-.61,33.63-3.77,67.65-3.93,101.11,14.99,7.12,7.89-16.77,10.35-25.7,9.3.37,19.56-3.59,26.41-10.02-5.87-.37-12.83,1.64-18.55,2.05-1.48.11-2.5.23-1.69-1.65,1.42-3.28,7.13-9.6,9.47-14.55,5.34-11.32,8.55-23.55,12.38-35.42l-27.07,41.78,4.43-100.44c-2.12.38-12.2-.27-12.67.22Z"/>
    <path d="M285.38,503.64c.97,3.12,9.53,2,10.18-.22l-.05-114.73h-13.93c-1.66,4.48,2.31,4.71,2.64,6.9.67,4.53.96,13.88,1.22,19.08.73,14.54-.63,29.33-.06,43.87-1.48,2.01-12.18-14.03-13.27-15.25-6.61-7.41-14.37-14.79-22.14-20.96,10.8,15.05,17.97,33.36,29.68,47.7,1.09,1.33,5.75,3.81,5.75,4.4,0,5.89-1.19,25.39,0,29.22Z"/>
    <path d="M344.39,656.55c.26-1.28,13.12-16.56,15.39-21.07,2.38-4.73,4.76-10.24,4.61-15.53l-20.62,28.36c2.04-11.17,11.39-21.09,16.59-31.24-6.49-3.91-14.68,21.49-17.59,18.57.75-3.66-.71-15.81.45-17.92s17.68-7.11,20.9-9.24c6.32,22.5,34.52,29.83,42.68,50.2,4.97-5.97.02-17.28-2.88-23.58-3.17-6.88-19.46-29.89-26.48-31.13-10.54-1.86-25.46,7.08-34.98,11.31l.65-7.69c-3.71,2.78-13.5-.96-13.16,3.63.66,8.93,4.97,11.74-6.91,15.76-.95-14.13-6.6-38.08-17.69-47.67-2.48-2.15-6.72-3.1-7.32-3.84-2.38-2.96-.1-9.55-.32-13.35-1.08-18.04-3.49-35.98-1.72-54.06l-15.03,2.45c3.28,2.18,4.43,9.7,4.96,14.2.43,3.68,2.76,13.77-2.26,12.36-1.18-.33-12.91-15.64-16.06-18.52-6.87-6.26-17.18-12.89-25.42-17.16,7.39,8.32,15.76,16.01,22.01,25.31,5.5,8.18,10.73,24.14,15.97,29.64,4.54,4.77,10.23,2.27,8.07,13.95-.32,1.75-9.04,2.59-11.24,3.57-19.58,8.65-25.49,39.57-37.55,55.81l-1.92-24.7c-.05-.59,2.41-4.03.28-4.49l-11.98.95c-.59,1.81,1.55,3.66,1.6,4.33l3.99,51.29-20.7-27.56c-7.08-6.27-12.42-15.25-21.04-19.54l35.75,52.05-.46,1.91c-6.89-6.64-15.03-12.07-24.57-14.02,8.31,5.18,14.49,15.85,21.87,21.29,2.56,1.89,9.11,3.59,10,4.9,4.18,6.15-4.54,14.12,10.35,10.68,1.82-2.12-4.6-49.31-2.42-55.85,1.1-3.29,22.54-26.17,26.75-31.4,5.5-6.83,11.9-18.04,17.42-23.99,3.85-4.15,5.57-1.22,3.58,3.21-2.21,4.91-12.88,15.11-16.51,21.09-12.4,20.45-12.37,45.24-18.86,67.71,13.08-13.23,20.04-33.47,25.81-51.1,2.5-7.64,4.6-23.3,7.26-28.99.65-1.39,3.36-1.45,3.74-1.14,2.26,1.84-2.04,4.1-2.18,5.82-.73,9.24,3.23,21.22,1.25,31.19,1.97-.48,10.95-.38,11.37-.88.62-.73-3.27-19.36,1.32-15.4,1.41,1.22,11.47,22.76,14.54,26.07l-15.04,16,.74-22.98-15.14,1.18c6.64,36.95,3.85,75.46,4.98,113l11.37-.88-2.36-79.43c-.72-11.06,9.51-16.94,16.56-23.58,10.03,19.17,3.54,1.75,7.24-5.62,1.42-2.82,5.25-4.06,7.72-5.77-1.09,8.39,3.81,19.5,3.32,27.04-.42,6.37-7.31,15.63-8.36,22.4,3.16-.47,9.27-11.58,9.91-3.31l5.08,65.22c.03.44,8.87-.24,8.84-.69l-6.16-79.15Z"/>
    <path d="M145.57,280.18c-.16.32-1.41.57-1.88,1.55-1.9,4.01-13.91,34.29-12.76,35.81,19.22-20.77,42.15-44.27,49.35-72.41-16.06,15.81-23.82,38-38.59,54.63-3.53,2.93.84-3.76,1.05-4.06,11.51-16.86,20.1-35.91,32.46-52.49-15.1,5.42-22.89,23.33-29.63,36.97Z"/>
    <path d="M376.48,110.9c.25,8.55,9.1,9.62,15.44,11.51,18.03,5.38,39.67,7.78,58.43,8.16-3.63-2.86-8.97-5.36-13.23-7.26-17.67-7.86-41.53-18.85-60.64-12.4Z"/>
    <path d="M466.45,583.91l-19.87-2.24c-11.18-.27-41.56.05-48.86,8.83-8.05,9.68,14.55,6.72,18.29,6.25,16.62-2.11,34.33-8.27,50.45-12.84Z"/>
    <path d="M217.01,548.74c.72-.21.88-.86,1.27-1.27-.8.25-.91.98-1.27,1.27Z"/>
    <path d="M241.93,701.45c.12-1.46,2.93-9.22,2.53-9.51h-13.93s2.52,53.35,2.52,53.35c1.22-.31,8.87.44,8.87,0,0-13.94-1.09-30.21,0-43.83Z"/>
    <path d="M178.76,663.92c.13-2.37,3.2-14.91,2.76-15.38h-15.21s2.76,86.24,2.76,86.24c1.34-.5,9.69.71,9.69-.01,0-22.54-1.19-48.83,0-70.85Z"/>
    <path d="M218.03,645.58c.13-3.01,3.2-18.94,2.76-19.54h-15.21s2.76,109.58,2.76,109.58c1.34-.64,9.69.9,9.69-.01,0-28.64-1.19-62.05,0-90.03Z"/>
    <path d="M139.79,207.04c1.19,1.74,7.45,2.36,9.51,2.5,8.64.61,31.19.98,38.63-1.85s2.84-7.2-2.81-8.69c-14.59-3.86-31.44,4.47-45.34,8.04Z"/>
    <path d="M426.84,187.18c2.5-2.47-.87-10.56-1.99-13.57-7.86-21.1-25.31-38.98-44.29-50.32,16.38,20.32,36.83,38.96,46.28,63.89Z"/>
    <path d="M413.44,72.29c1.05-.02,6.64,2.99,6.94-.53-12.31-.79-25.19-1.71-37.48.3-19.25,3.15-8.19,8.6,4.49,8.66,11.64.06,23.17-2.76,34.65-4.03-.37-1.08-7.97-1.91-8.39-1.88l-26.51,2.06c-.24.02-2.15-1.6-2.09-2.39,9.44-.33,18.96-2.03,28.4-2.21Z"/>
    <path d="M289.18,205.77c8.55,10.95,22.63,14.61,35.45,17.76-9.88-8.27-22.31-16.45-35.45-17.76Z"/>
    <path d="M367.5,110.26c10.69.58,13.84-12.37,21.44-18.22-8.35,2.92-23.98,6.79-21.44,18.22Z"/>
    <path d="M398.93,572.65c-4.31,1.7-19.83,20.49-10.92,22.47,6.29,1.39,8.34-18.58,10.92-22.47Z"/>
    <path d="M208.15,250.22c.09.03.92-.92,1.27-1.27-.25-.08-.87,1.02-1.27,1.27Z"/>
    <path d="M252.46,151.14l6.32,24.13c-25.02-17.41-62.65-2.45-89.87,3.83l87.99-2.57c3-.92,4.85,9.73,4.43,10.16-.23.24-4.37.61-6.42,1.83-2.93,1.75-6.13,4.24-8.79,6.42-5,4.09-24.83,27.27-26.61,28.03-2.49,1.06-6.16-1.92-8.21-3.22-.74,3.11,5.56,3.02,5.78,4.49.44,2.9-3.82,7.43-5.79,9.44-3.57-.04-1.19-5.63-2.55-8.84-4.96-11.73-15.4,5.35-17.67,10.15-9.57,20.18-10.29,44.51-10.95,66.5-.89,2.32-22.2,6.54-23.27,13.48,2.43-2.19,21.38-8.47,22.16-7.59,4.6,5.19-12.71,6.14-13.91,8.87,28.15-3.64,55.89,4.83,83.55,8.9,4.69-4.41-17.66-17.93-20.91-18.97,2.25-21.41-2.87-43.07-10.8-62.84,3.53-1.35,11.87-10.78,14.59-10.88,5.55-.22,27.96,16.21,36.12,16.47l-34.16-18.41,29.74-29.85c3.04,13.34,7.47,30.42,8.22,43.93.25,4.57-.07,2.94-2.52,5.59,6.64.39,1.8,12.45,4.97,14.72,1.75,1.26,9.9-.13,10.28-1.52,1.69-6.19-2.47-7.22-2.56-7.72-2-10.2-1.72-21.81-3.21-32.13l51.28,45.71c-9.88-23.73-28.37-49.28-49.45-64.08-1.91-1.34-5.59-1.63-6.39-2.77-1.33-1.9-7.68-39.86-8.58-45.72-.41-2.68-.11-5.42-.17-8.1l-12.66,2.54ZM227.15,228.61c1.9-4.34,6.32-9.06,9.47-12.71,5.22-6.04,11.24-11.69,16.49-17.74l-6.33,10.15-19.63,20.3ZM293.71,226.63c10.46,10.81,20.63,22.52,29.04,34.99-12.37-10.93-22.23-24.3-33.54-36.21-4.52-4.76-14.2-9.24-13.33-15.84,6.26,5.43,12.09,11.12,17.83,17.05ZM225.86,228.62c1.49,2.8-8.68,12.6-9.48,12.67-1.09.1-1.87-1.26-.64-3.15,1.96-3.01,7.26-7.01,10.12-9.53ZM209.42,248.95c3.81,1.22-4.42,14.63-4.66,17.31-1.22,13.23,14.37,27.44,19.86,38.57-13.02-1.18-26.18-5.8-39.24-2.53,3.39-7.79,18.14-49.12,22.78-52.07-3.9-1.27,2.07-7.44,3.78-7.62.32,2.33-.96,4.76-2.52,6.35ZM181.57,311.18c.16-5.79,15.26-4.21,19.66-3.85,4.61.38,12.98,1.23,15.78,5.11-11.87-2.87-23.38-3.24-35.44-1.27Z"/>
    <path d="M364.17,379.12c.27,2.24,6.19,1.13,6.41,3.93.03.44-2.08,2.45-1.97,5.19.63,15.92,18.18,43.44,24.32,58.72l-.45-14.68-3.47-19.42,35.93,45.61c-9.71-26.09-16.54-63.52-42.83-77.59,9.74,17.68,24.65,38.09,31.72,56.78.47,1.23,2.07,3.92-.34,3.86-9.27-20.91-23.32-39.25-35.01-58.78l-14.3-3.62Z"/>
    <path d="M195.83,211.08c-6.25-1.36-14.3,4.33-19.74,7.6-13.72,8.25-26.37,20.8-38.81,30.91,15.95-6.2,45.71-16.51,57.61-28.57,3.33-3.37,1.62-9.81,8.85-3.87-.18-2.37-6.17-5.7-7.9-6.08Z"/>
    <path d="M405.71,602.68l49.68,26.71,14.17,11c-14.23-21.3-39.04-33.51-63.86-37.72Z"/>
    <path d="M396.79,374.03c9.63,18.61,29.54,26.3,48.22,32.57-3.09-7.11-43.62-37.46-48.22-32.57Z"/>
    <path d="M332.95,102.93l-23.68-4.48c10.35,5.29,20.85,12.68,31.79,16.62,5.76,2.07,10,1.68,14.87,3.7-.49-3.18-1.36-5.19-3.38-7.7-7.63-9.46-28.27-17.08-36.21-27.09l37.11,23.65c-8.18-18.23-33.39-23.49-49.99-31.84l29.49,27.13Z"/>
    <path d="M235.36,440.79c10.15,14.22,25.5,23.91,41.13,31.11-7.07-9.15-9.71-18.29-21.13-23.25-6.29-2.73-14.88-2.47-20.01-7.86Z"/>
    <path d="M255,181.63c-17.2-2.69-34.01,6.21-46.82,17.15,15.12-6.16,35.08-4.54,46.82-17.15Z"/>
    <path d="M277.8,199.42l56.94,10.8c-16.15-11.67-37.64-15.75-56.94-10.8Z"/>
    <polygon points="206.25 217.19 205.62 217.82 206.25 218.46 206.25 217.19"/>
    <polygon points="208.78 218.46 208.15 219.09 208.78 219.73 208.78 218.46"/>
    <polygon points="397.67 507.74 397.09 508.42 397.77 509 397.67 507.74"/>
    <polygon points="213.85 515.71 213.21 516.34 213.85 516.98 213.85 515.71"/>
    <polygon points="403.7 601.55 403.12 602.24 403.8 602.82 403.7 601.55"/>
    <polygon points="93.56 626.22 92.93 626.86 93.56 627.49 93.56 626.22"/>
    <path d="M414.56,37.8c-14.63,2.93-35.12,14.35-36.98,30.88,15.8-7.9,32.49-14.84,47.5-24.21,3.39-2.12,7.73-5.26,10.31-8.29-6.6,1.08-14.41.34-20.83,1.62Z"/>
  </g>
</svg>