<?xml version="1.0" encoding="UTF-8"?>
<svg id="Layer_1" data-name="Layer 1" xmlns="http://www.w3.org/2000/svg" viewBox="0 0 73.47 153.13">
  <path d="M57.95,36.62H15.53c-1.66,0-3-1.34-3-3s1.34-3,3-3h42.42c1.66,0,3,1.34,3,3s-1.34,3-3,3Z"/>
  <path d="M57.95,67.25H15.53c-1.66,0-3-1.34-3-3s1.34-3,3-3h42.42c1.66,0,3,1.34,3,3s-1.34,3-3,3Z"/>
  <path d="M57.95,97.87H15.53c-1.66,0-3-1.34-3-3s1.34-3,3-3h42.42c1.66,0,3,1.34,3,3s-1.34,3-3,3Z"/>
  <path d="M57.95,128.5H15.53c-1.66,0-3-1.34-3-3s1.34-3,3-3h42.42c1.66,0,3,1.34,3,3s-1.34,3-3,3Z"/>
</svg>