<?xml version="1.0" encoding="UTF-8"?>
<svg id="Layer_2" data-name="Layer 2" xmlns="http://www.w3.org/2000/svg" viewBox="0 0 1793.7 2133.9">
  <g>
    <g>
      <path d="M301.77,65.76l20.91-5.06c10.49-.89,20.49-.31,30.99-.03,1.53-9.25,8.51-41.54,13.84-47.47,1.32-1.47,3.66-.57,3.89-.8,1.41-1.43-3.17-10.05-6.41-9.61l-56.01,18.75-8.49,14.99c-3.59-1.02.47-11,.01-11.41l-18.98,5.06c3.48-3.38,16.42-4.77,18.89-8.34,2.05-2.97,7.24-31.49,9.6-38.64,1.29-3.92,4.3-15.15,8.22-15.88,1.42-1.54,1.58-.09,1.25,1.23-1.61,6.27-16.78,46.95-15.16,48.93,1.93,2.36,2.72-1.66,3.11-2.52,6.6-14.35,10.58-31.99,15.89-47,2.2-.3,1.19,2.89,1.25,4.42.66,17.75-8.06,30.51-13.91,46.38l65.82-23.49c-11.9-12.74-32.31-15.2-45.49-25.5-2.49-1.95-9.23-10.7-10.63-10.58-12.44,8.09-24.47,18.18-33.73,29.77-1.82,2.27-10.73,13.94-11.16,15.48-2.45,8.73,4.8,10.27-10.41,9.26l8.51-90.69c-11.95-19.82-32-41.99-26.21-66.83,1.27-1.28,7.4,18.21,8.24,20.3,4.46,11.13,9.02,22.7,15.19,33.02l-17.07-54.02c-.04-5.65,5.59,2.85,7.1,3.09,1.63.26,3.54-2.62,5.52-2.42-19.35-10.56-2.61-16.39,10.77-16.47,4.71-.03,15.04,3.64,18.84,2.6,2.24-.61.33-8.49,3.81-7.6.76.19,9.29,3.32,9.63,3.71,1.47,1.66-2.84,5.65-2.55,6.94.48,2.09,22.8,7.88,25.33,12.1h-29.75c-1.88,0-4.18,6.4-1.99,9.61,1.3,1.9,13.78,9.23,17.14,12.03,10.08,8.39,19.14,18.22,29.77,26.01-7.2-1.49-53.41-21.89-55.68-19.71-1.85,4.71-5.06,35.48-6.35,36.83-.74.77-21.08-1.54,1.25,5.73-5.64,11.81-7.4,28.53-8.82,41.94-.46,4.3-2.56,25.09-1.95,27.3.95,3.45,1.49.69,2.26-.29,3.82-4.83,7.06-10.6,11.14-15.21,7.47-8.44,32.56-31.89,43.56-31.56,14.47.43,46.33,29.39,47.7,45.6,19.53-1.08,39.25,4.73,54.26,17.34-22.42,1.5-44.06-5.71-65.83-9.52l8.5,12.19-5.96,52.58c2.65-.76,2.64-4.1,3.19-6.31,3.51-14.17,4.67-30.04,6.94-44.49l3.89,15.89c2.91,8.99-14.91,52.25-13.9,55.67.33,1.12,14.74,12.17,17.63,15.42,9.84,11.04,17.87,26.14,17.68,41.31l-9.1-20.7c-6.28-9.31-13.13-19.78-23.78-24.4,10.61,10.24,22.24,24,24.67,38.75-12.66-19.49-30.03-35.18-47.43-50.26-2.34-2.03-5.8-1.36-6.38-5.61,7.29-3.1,14.28,1.38,21.52,2.52v-17.78c0-.6-11.15-1.54-11.81-1.34-2.14.62-.82,5.24-3.37,5.15-.25-1,.3-6.34-.01-6.34h-49.38ZM290.36-142.56c-9.49-1.43-11-.78-1.88,3.77l1.88-3.77ZM283.92-119.51c-.55-.97-16.74-8.87-18.86-11.62l10.12,41.92c3.47.38,2-.14,2.51-1.9.96-3.3,6.94-27.14,6.23-28.4ZM368.86,44.17c-2.88,3.73-8.74,11.78-10.15,15.87-1.09,3.14,2.04,4.13,4.81,4.23,7.45.28,2.46-14.47,5.35-20.1ZM372.67,70.85c-2.9-2.78-3.3,5.64-2.51,7.6s2.84-7.3,2.51-7.6Z"/>
      <path d="M158.69,77.83c-.42-1.29-13.48-6.34-16.95-9.67-9.71-9.31-14.44-27.13-23.54-37.35,15.13,11.19,25.79,27.08,39.21,40.03-.48-7.77-9.03-12.79-13.19-19.14-10.34-15.76-11.8-35.6-17.17-53.26l9.5,11.41,20.86,47.02-5.05-76.21h13.92s2.54,141,2.54,141c-1.33-.36-10.14.5-10.14,0,0-7.89,1.56-39.09,0-43.83Z"/>
      <path d="M208.07,18.13c-.97,3.12-9.53,2-10.18-.22l.05-114.73h13.93c1.66,4.48-2.31,4.71-2.64,6.9-.67,4.53-.96,13.88-1.22,19.08-.73,14.54.63,29.33.06,43.87,1.48,2.01,12.18-14.03,13.27-15.25,6.61-7.41,14.37-14.79,22.14-20.96-10.8,15.05-17.97,33.36-29.68,47.7-1.09,1.33-5.75,3.81-5.75,4.4,0,5.89,1.19,25.39,0,29.22Z"/>
      <path d="M159.96,174.37c-.36-1.26-14.36-15.5-16.98-19.81-2.74-4.53-5.54-9.84-5.8-15.13l22.76,26.68c-2.9-10.97-12.99-20.14-18.97-29.86,6.17-4.41,16.31,20.29,18.98,17.15-1.03-3.59-.52-15.82-1.84-17.83-1.27-1.94-18.18-5.72-21.56-7.59-4.56,22.92-32.1,32.42-38.65,53.37-5.42-5.57-1.36-17.22,1.04-23.73,2.62-7.11,17.08-31.31,23.98-33.09,10.36-2.67,25.93,5.08,35.75,8.56l-1.25-7.61c3.92,2.49,13.39-2.01,13.4,2.59.03,8.96-4.04,12.09,8.11,15.18-.15-14.16,3.63-38.48,13.93-48.9,2.3-2.33,6.46-3.61,7-4.4,2.15-3.13-.65-9.53-.72-13.33-.33-18.07.68-36.15-2.48-54.03l15.18,1.28c-3.1,2.43-3.66,10.01-3.84,14.54-.15,3.71-1.68,13.94,3.21,12.15,1.15-.42,11.66-16.6,14.58-19.71,6.36-6.77,16.13-14.18,24.02-19.08-6.73,8.87-14.47,17.18-19.98,26.94-4.85,8.59-8.83,24.9-13.62,30.79-4.16,5.11-10.02,3.06-6.96,14.54.46,1.72,9.21,1.88,11.48,2.68,20.19,7.1,28.49,37.48,41.77,52.73v-24.77c0-.59-2.71-3.84-.63-4.45h12.02c.73,1.77-1.26,3.78-1.26,4.45v51.45l18.5-29.08c6.57-6.8,11.2-16.17,19.46-21.11l-31.6,54.66.61,1.87c6.36-7.16,14.04-13.2,23.4-15.89-7.88,5.8-13.21,16.93-20.15,22.93-2.41,2.08-8.81,4.29-9.59,5.66-3.69,6.46,5.62,13.72-9.49,11.45-1.97-1.97.76-49.52-1.92-55.87-1.35-3.2-24.5-24.34-29.11-29.23-6.01-6.38-13.26-17.06-19.23-22.57-4.16-3.84-5.65-.79-3.32,3.48,2.58,4.72,14.02,14.06,18.1,19.74,13.95,19.43,15.84,44.15,24.06,66.04-14.06-12.17-22.57-31.81-29.7-48.94-3.09-7.42-6.4-22.87-9.49-28.34-.75-1.34-3.46-1.19-3.82-.85-2.11,2.01,2.35,3.93,2.62,5.63,1.44,9.16-1.57,21.41,1.17,31.2-2-.32-10.95.47-11.41,0-.68-.68,1.75-19.56-2.51-15.25-1.31,1.33-9.67,23.58-12.47,27.12l16.24,14.79-2.52-22.85h15.19c-3.76,37.36,2.01,75.53,3.81,113.05h-11.41s-3.82-79.37-3.82-79.37c-.14-11.08-10.8-16.15-18.34-22.22-8.51,19.89-3.39,2.02-7.66-5.04-1.63-2.7-5.55-3.64-8.15-5.15,1.74,8.28-2.29,19.73-1.21,27.21.91,6.32,8.5,15.02,10.07,21.68-3.19-.22-10.14-10.82-10.14-2.53v65.42c0,.44-8.86.44-8.86,0v-79.39Z"/>
      <path d="M54.88,108.94l19.64-3.77c11.13-1.13,41.43-3.18,49.4,5.01,8.78,9.03-13.98,7.83-17.75,7.65-16.74-.81-34.87-5.58-51.29-8.89Z"/>
      <path d="M276.44,63.22c.72.21,2.69.45,2.56-.74-1.14-7.63,1.75-13.81,3.79-20.85l4.4,21.58c5.49-3.24,6.01-9.55,10.71-14.66,11.28-12.24,37.5-22.07,53.23-27.24-16.13,12.88-31.06,30.08-49.73,39.64-4.2,2.15-12.66,1.38-14.83,7.97,6.02,7.53,9.05.66,15.69.76,6.6.1,25.59,8.96,31.56,12.83,7.38,4.78,18.41,13.48,19.24,22.61-6.25-6.29-17.35-9.91-25.96-9.51,8.51,4.15,10.2,6.69,14.13,15.04,7.98,16.9,11.54,32.85,13.7,51.65l-7.93-10.51c-4.9-11.29-10.02-22.54-13.91-34.24-1.54-4.63-2.98-16.96-4.64-19.48-5.16-7.82-32.92-6.39-37.41-17.09-1.65-3.93.62-9-5.81-10.78-2.35-.65-12.27,5.47-12.59,6.64-1.06,3.89,1.41,28.2.02,29.58-.36.36-9.78.36-10.14,0-.54-.54.4-12.85.02-15.26-6.43.69-40.76-4.97-41.79-10.81-.79-4.5,11.4-3.33,14.53-3.13,9.12.6,18.3,4.66,27.24,6.32l1.26-43.18-40.51,23.49c3.42-13.88,8.79-20.29,20.69-27.51,3.79-2.3,19.07-7.95,19.66-8.86,3.46-5.39-7.37-12.47,12.84-9.97l-1.25,7.6,7.56-.64c-1.39,2.54-5.48,3.96-6.86,5.8-3.03,4.05-4.83,27.33-.71,31.68-.71-.22-2.7-.45-2.55.74l.03,9.41,7.57-4.44c-1.6-.93-2.7-3.56-3.78-4.45ZM262.51,86.11c-2.7-2.47-24.23-4.99-29.11-5.09l27.48,7.37c2.2,1.22,2.01-1.93,1.63-2.28Z"/>
      <path d="M276.44,63.22c-.72-.21-.88-.86-1.27-1.27.8.25.91.98,1.27,1.27Z"/>
      <path d="M263.78,209.94c-.12-1.46-2.93-9.22-2.53-9.51h13.93s-2.52,53.35-2.52,53.35c-1.22-.31-8.87.44-8.87,0,0-13.94,1.09-30.21,0-43.83Z"/>
      <path d="M410.64,70.84l-13.03-25.65c-2.3-7.93-2.45-15.67-2.15-23.87,2.97-3.41,9.99,16.53,10.45,18.08,2.96,9.95,4.62,21.03,4.72,31.44Z"/>
      <path d="M121.33,92.47c4.42,1.36,21.36,18.89,12.63,21.55-6.16,1.88-9.76-17.88-12.63-21.55Z"/>
      <path d="M116.9,122.94l-47.46,30.49-13.28,12.07c12.53-22.34,36.32-36.44,60.74-42.56Z"/>
      <polygon points="117.54 27.65 118.17 28.29 117.54 28.92 117.54 27.65"/>
      <polygon points="279.61 30.19 280.24 30.83 279.61 31.46 279.61 30.19"/>
      <polygon points="118.81 121.65 119.44 122.29 118.81 122.92 118.81 121.65"/>
      <polygon points="399.89 140.71 400.53 141.34 399.89 141.98 399.89 140.71"/>
    </g>
    <g>
      <path d="M301.77,65.76l20.91-5.06c10.49-.89,20.49-.31,30.99-.03,1.53-9.25,8.51-41.54,13.84-47.47,1.32-1.47,3.66-.57,3.89-.8,1.41-1.43-3.17-10.05-6.41-9.61l-56.01,18.75-8.49,14.99c-3.59-1.02.47-11,.01-11.41l-18.98,5.06c3.48-3.38,16.42-4.77,18.89-8.34,2.05-2.97,7.24-31.49,9.6-38.64,1.29-3.92,4.3-15.15,8.22-15.88,1.42-1.54,1.58-.09,1.25,1.23-1.61,6.27-16.78,46.95-15.16,48.93,1.93,2.36,2.72-1.66,3.11-2.52,6.6-14.35,10.58-31.99,15.89-47,2.2-.3,1.19,2.89,1.25,4.42.66,17.75-8.06,30.51-13.91,46.38l65.82-23.49c-11.9-12.74-32.31-15.2-45.49-25.5-2.49-1.95-9.23-10.7-10.63-10.58-12.44,8.09-24.47,18.18-33.73,29.77-1.82,2.27-10.73,13.94-11.16,15.48-2.45,8.73,4.8,10.27-10.41,9.26l8.51-90.69c-11.95-19.82-32-41.99-26.21-66.83,1.27-1.28,7.4,18.21,8.24,20.3,4.46,11.13,9.02,22.7,15.19,33.02l-17.07-54.02c-.04-5.65,5.59,2.85,7.1,3.09,1.63.26,3.54-2.62,5.52-2.42-19.35-10.56-2.61-16.39,10.77-16.47,4.71-.03,15.04,3.64,18.84,2.6,2.24-.61.33-8.49,3.81-7.6.76.19,9.29,3.32,9.63,3.71,1.47,1.66-2.84,5.65-2.55,6.94.48,2.09,22.8,7.88,25.33,12.1h-29.75c-1.88,0-4.18,6.4-1.99,9.61,1.3,1.9,13.78,9.23,17.14,12.03,10.08,8.39,19.14,18.22,29.77,26.01-7.2-1.49-53.41-21.89-55.68-19.71-1.85,4.71-5.06,35.48-6.35,36.83-.74.77-21.08-1.54,1.25,5.73-5.64,11.81-7.4,28.53-8.82,41.94-.46,4.3-2.56,25.09-1.95,27.3.95,3.45,1.49.69,2.26-.29,3.82-4.83,7.06-10.6,11.14-15.21,7.47-8.44,32.56-31.89,43.56-31.56,14.47.43,46.33,29.39,47.7,45.6,19.53-1.08,39.25,4.73,54.26,17.34-22.42,1.5-44.06-5.71-65.83-9.52l8.5,12.19-5.96,52.58c2.65-.76,2.64-4.1,3.19-6.31,3.51-14.17,4.67-30.04,6.94-44.49l3.89,15.89c2.91,8.99-14.91,52.25-13.9,55.67.33,1.12,14.74,12.17,17.63,15.42,9.84,11.04,17.87,26.14,17.68,41.31l-9.1-20.7c-6.28-9.31-13.13-19.78-23.78-24.4,10.61,10.24,22.24,24,24.67,38.75-12.66-19.49-30.03-35.18-47.43-50.26-2.34-2.03-5.8-1.36-6.38-5.61,7.29-3.1,14.28,1.38,21.52,2.52v-17.78c0-.6-11.15-1.54-11.81-1.34-2.14.62-.82,5.24-3.37,5.15-.25-1,.3-6.34-.01-6.34h-49.38ZM290.36-142.56c-9.49-1.43-11-.78-1.88,3.77l1.88-3.77ZM283.92-119.51c-.55-.97-16.74-8.87-18.86-11.62l10.12,41.92c3.47.38,2-.14,2.51-1.9.96-3.3,6.94-27.14,6.23-28.4ZM368.86,44.17c-2.88,3.73-8.74,11.78-10.15,15.87-1.09,3.14,2.04,4.13,4.81,4.23,7.45.28,2.46-14.47,5.35-20.1ZM372.67,70.85c-2.9-2.78-3.3,5.64-2.51,7.6s2.84-7.3,2.51-7.6Z"/>
      <path d="M158.69,77.83c-.42-1.29-13.48-6.34-16.95-9.67-9.71-9.31-14.44-27.13-23.54-37.35,15.13,11.19,25.79,27.08,39.21,40.03-.48-7.77-9.03-12.79-13.19-19.14-10.34-15.76-11.8-35.6-17.17-53.26l9.5,11.41,20.86,47.02-5.05-76.21h13.92s2.54,141,2.54,141c-1.33-.36-10.14.5-10.14,0,0-7.89,1.56-39.09,0-43.83Z"/>
      <path d="M208.07,18.13c-.97,3.12-9.53,2-10.18-.22l.05-114.73h13.93c1.66,4.48-2.31,4.71-2.64,6.9-.67,4.53-.96,13.88-1.22,19.08-.73,14.54.63,29.33.06,43.87,1.48,2.01,12.18-14.03,13.27-15.25,6.61-7.41,14.37-14.79,22.14-20.96-10.8,15.05-17.97,33.36-29.68,47.7-1.09,1.33-5.75,3.81-5.75,4.4,0,5.89,1.19,25.39,0,29.22Z"/>
      <path d="M159.96,174.37c-.36-1.26-14.36-15.5-16.98-19.81-2.74-4.53-5.54-9.84-5.8-15.13l22.76,26.68c-2.9-10.97-12.99-20.14-18.97-29.86,6.17-4.41,16.31,20.29,18.98,17.15-1.03-3.59-.52-15.82-1.84-17.83-1.27-1.94-18.18-5.72-21.56-7.59-4.56,22.92-32.1,32.42-38.65,53.37-5.42-5.57-1.36-17.22,1.04-23.73,2.62-7.11,17.08-31.31,23.98-33.09,10.36-2.67,25.93,5.08,35.75,8.56l-1.25-7.61c3.92,2.49,13.39-2.01,13.4,2.59.03,8.96-4.04,12.09,8.11,15.18-.15-14.16,3.63-38.48,13.93-48.9,2.3-2.33,6.46-3.61,7-4.4,2.15-3.13-.65-9.53-.72-13.33-.33-18.07.68-36.15-2.48-54.03l15.18,1.28c-3.1,2.43-3.66,10.01-3.84,14.54-.15,3.71-1.68,13.94,3.21,12.15,1.15-.42,11.66-16.6,14.58-19.71,6.36-6.77,16.13-14.18,24.02-19.08-6.73,8.87-14.47,17.18-19.98,26.94-4.85,8.59-8.83,24.9-13.62,30.79-4.16,5.11-10.02,3.06-6.96,14.54.46,1.72,9.21,1.88,11.48,2.68,20.19,7.1,28.49,37.48,41.77,52.73v-24.77c0-.59-2.71-3.84-.63-4.45h12.02c.73,1.77-1.26,3.78-1.26,4.45v51.45l18.5-29.08c6.57-6.8,11.2-16.17,19.46-21.11l-31.6,54.66.61,1.87c6.36-7.16,14.04-13.2,23.4-15.89-7.88,5.8-13.21,16.93-20.15,22.93-2.41,2.08-8.81,4.29-9.59,5.66-3.69,6.46,5.62,13.72-9.49,11.45-1.97-1.97.76-49.52-1.92-55.87-1.35-3.2-24.5-24.34-29.11-29.23-6.01-6.38-13.26-17.06-19.23-22.57-4.16-3.84-5.65-.79-3.32,3.48,2.58,4.72,14.02,14.06,18.1,19.74,13.95,19.43,15.84,44.15,24.06,66.04-14.06-12.17-22.57-31.81-29.7-48.94-3.09-7.42-6.4-22.87-9.49-28.34-.75-1.34-3.46-1.19-3.82-.85-2.11,2.01,2.35,3.93,2.62,5.63,1.44,9.16-1.57,21.41,1.17,31.2-2-.32-10.95.47-11.41,0-.68-.68,1.75-19.56-2.51-15.25-1.31,1.33-9.67,23.58-12.47,27.12l16.24,14.79-2.52-22.85h15.19c-3.76,37.36,2.01,75.53,3.81,113.05h-11.41s-3.82-79.37-3.82-79.37c-.14-11.08-10.8-16.15-18.34-22.22-8.51,19.89-3.39,2.02-7.66-5.04-1.63-2.7-5.55-3.64-8.15-5.15,1.74,8.28-2.29,19.73-1.21,27.21.91,6.32,8.5,15.02,10.07,21.68-3.19-.22-10.14-10.82-10.14-2.53v65.42c0,.44-8.86.44-8.86,0v-79.39Z"/>
      <path d="M54.88,108.94l19.64-3.77c11.13-1.13,41.43-3.18,49.4,5.01,8.78,9.03-13.98,7.83-17.75,7.65-16.74-.81-34.87-5.58-51.29-8.89Z"/>
      <path d="M276.44,63.22c.72.21,2.69.45,2.56-.74-1.14-7.63,1.75-13.81,3.79-20.85l4.4,21.58c5.49-3.24,6.01-9.55,10.71-14.66,11.28-12.24,37.5-22.07,53.23-27.24-16.13,12.88-31.06,30.08-49.73,39.64-4.2,2.15-12.66,1.38-14.83,7.97,6.02,7.53,9.05.66,15.69.76,6.6.1,25.59,8.96,31.56,12.83,7.38,4.78,18.41,13.48,19.24,22.61-6.25-6.29-17.35-9.91-25.96-9.51,8.51,4.15,10.2,6.69,14.13,15.04,7.98,16.9,11.54,32.85,13.7,51.65l-7.93-10.51c-4.9-11.29-10.02-22.54-13.91-34.24-1.54-4.63-2.98-16.96-4.64-19.48-5.16-7.82-32.92-6.39-37.41-17.09-1.65-3.93.62-9-5.81-10.78-2.35-.65-12.27,5.47-12.59,6.64-1.06,3.89,1.41,28.2.02,29.58-.36.36-9.78.36-10.14,0-.54-.54.4-12.85.02-15.26-6.43.69-40.76-4.97-41.79-10.81-.79-4.5,11.4-3.33,14.53-3.13,9.12.6,18.3,4.66,27.24,6.32l1.26-43.18-40.51,23.49c3.42-13.88,8.79-20.29,20.69-27.51,3.79-2.3,19.07-7.95,19.66-8.86,3.46-5.39-7.37-12.47,12.84-9.97l-1.25,7.6,7.56-.64c-1.39,2.54-5.48,3.96-6.86,5.8-3.03,4.05-4.83,27.33-.71,31.68-.71-.22-2.7-.45-2.55.74l.03,9.41,7.57-4.44c-1.6-.93-2.7-3.56-3.78-4.45ZM262.51,86.11c-2.7-2.47-24.23-4.99-29.11-5.09l27.48,7.37c2.2,1.22,2.01-1.93,1.63-2.28Z"/>
      <path d="M276.44,63.22c-.72-.21-.88-.86-1.27-1.27.8.25.91.98,1.27,1.27Z"/>
      <path d="M263.78,209.94c-.12-1.46-2.93-9.22-2.53-9.51h13.93s-2.52,53.35-2.52,53.35c-1.22-.31-8.87.44-8.87,0,0-13.94,1.09-30.21,0-43.83Z"/>
      <path d="M410.64,70.84l-13.03-25.65c-2.3-7.93-2.45-15.67-2.15-23.87,2.97-3.41,9.99,16.53,10.45,18.08,2.96,9.95,4.62,21.03,4.72,31.44Z"/>
      <path d="M121.33,92.47c4.42,1.36,21.36,18.89,12.63,21.55-6.16,1.88-9.76-17.88-12.63-21.55Z"/>
      <path d="M116.9,122.94l-47.46,30.49-13.28,12.07c12.53-22.34,36.32-36.44,60.74-42.56Z"/>
      <polygon points="117.54 27.65 118.17 28.29 117.54 28.92 117.54 27.65"/>
      <polygon points="279.61 30.19 280.24 30.83 279.61 31.46 279.61 30.19"/>
      <polygon points="118.81 121.65 119.44 122.29 118.81 122.92 118.81 121.65"/>
      <polygon points="399.89 140.71 400.53 141.34 399.89 141.98 399.89 140.71"/>
    </g>
  </g>
  <g>
    <g>
      <path d="M1474.46,173.05l-20.91-5.06c-10.49-.89-20.49-.31-30.99-.03-1.53-9.25-8.51-41.54-13.84-47.47-1.32-1.47-3.66-.57-3.89-.8-1.41-1.43,3.17-10.05,6.41-9.61l56.01,18.75,8.49,14.99c3.59-1.02-.47-11-.01-11.41l18.98,5.06c-3.48-3.38-16.42-4.77-18.89-8.34-2.05-2.97-7.24-31.49-9.6-38.64-1.29-3.92-4.3-15.15-8.22-15.88-1.42-1.54-1.58-.09-1.25,1.23,1.61,6.27,16.78,46.95,15.16,48.93-1.93,2.36-2.72-1.66-3.11-2.52-6.6-14.35-10.58-31.99-15.89-47-2.2-.3-1.19,2.89-1.25,4.42-.66,17.75,8.06,30.51,13.91,46.38l-65.82-23.49c11.9-12.74,32.31-15.2,45.49-25.5,2.49-1.95,9.23-10.7,10.63-10.58,12.44,8.09,24.47,18.18,33.73,29.77,1.82,2.27,10.73,13.94,11.16,15.48,2.45,8.73-4.8,10.27,10.41,9.26l-8.51-90.69c11.95-19.82,32-41.99,26.21-66.83-1.27-1.28-7.4,18.21-8.24,20.3-4.46,11.13-9.02,22.7-15.19,33.02l17.07-54.02c.04-5.65-5.59,2.85-7.1,3.09-1.63.26-3.54-2.62-5.52-2.42,19.35-10.56,2.61-16.39-10.77-16.47-4.71-.03-15.04,3.64-18.84,2.6-2.24-.61-.33-8.49-3.81-7.6-.76.19-9.29,3.32-9.63,3.71-1.47,1.66,2.84,5.65,2.55,6.94-.48,2.09-22.8,7.88-25.33,12.1h29.75c1.88,0,4.18,6.4,1.99,9.61-1.3,1.9-13.78,9.23-17.14,12.03-10.08,8.39-19.14,18.22-29.77,26.01,7.2-1.49,53.41-21.89,55.68-19.71,1.85,4.71,5.06,35.48,6.35,36.83.74.77,21.08-1.54-1.25,5.73,5.64,11.81,7.4,28.53,8.82,41.94.46,4.3,2.56,25.09,1.95,27.3-.95,3.45-1.49.69-2.26-.29-3.82-4.83-7.06-10.6-11.14-15.21-7.47-8.44-32.56-31.89-43.56-31.56-14.47.43-46.33,29.39-47.7,45.6-19.53-1.08-39.25,4.73-54.26,17.34,22.42,1.5,44.06-5.71,65.83-9.52l-8.5,12.19,5.96,52.58c-2.65-.76-2.64-4.1-3.19-6.31-3.51-14.17-4.67-30.04-6.94-44.49l-3.89,15.89c-2.91,8.99,14.91,52.25,13.9,55.67-.33,1.12-14.74,12.17-17.63,15.42-9.84,11.04-17.87,26.14-17.68,41.31l9.1-20.7c6.28-9.31,13.13-19.78,23.78-24.4-10.61,10.24-22.24,24-24.67,38.75,12.66-19.49,30.03-35.18,47.43-50.26,2.34-2.03,5.8-1.36,6.38-5.61-7.29-3.1-14.28,1.38-21.52,2.52v-17.78c0-.6,11.15-1.54,11.81-1.34,2.14.62.82,5.24,3.37,5.15.25-1-.3-6.34.01-6.34h49.38ZM1485.86-35.27c9.49-1.43,11-.78,1.88,3.77l-1.88-3.77ZM1492.31-12.23c.55-.97,16.74-8.87,18.86-11.62l-10.12,41.92c-3.47.38-2-.14-2.51-1.9-.96-3.3-6.94-27.14-6.23-28.4ZM1407.37,151.45c2.88,3.73,8.74,11.78,10.15,15.87,1.09,3.14-2.04,4.13-4.81,4.23-7.45.28-2.46-14.47-5.35-20.1ZM1403.56,178.14c2.9-2.78,3.3,5.64,2.51,7.6s-2.84-7.3-2.51-7.6Z"/>
      <path d="M1652.94,63.26c.32-1.31,12.95-7.36,16.15-10.95,8.96-10.03,12.29-28.17,20.57-39.06-14.22,12.33-23.61,29-35.98,42.95-.12-7.78,8.01-13.45,11.67-20.11,9.08-16.52,9-36.41,12.98-54.44l-8.59,12.11-17.14,48.5-.88-76.37-13.88,1.08,8.41,140.77c1.3-.47,10.14-.29,10.1-.79-.61-7.86-4.59-38.85-3.4-43.69Z"/>
      <path d="M1577.78,5.94c.97,3.12,9.53,2,10.18-.22l-.05-114.73h-13.93c-1.66,4.48,2.31,4.71,2.64,6.9.67,4.53.96,13.88,1.22,19.08.73,14.54-.63,29.33-.06,43.87-1.48,2.01-12.18-14.03-13.27-15.25-6.61-7.41-14.37-14.79-22.14-20.96,10.8,15.05,17.97,33.36,29.68,47.7,1.09,1.33,5.75,3.81,5.75,4.4,0,5.89-1.19,25.39,0,29.22Z"/>
      <path d="M1636.79,158.85c.26-1.28,13.12-16.56,15.39-21.07,2.38-4.73,4.76-10.24,4.61-15.53l-20.62,28.36c2.04-11.17,11.39-21.09,16.59-31.24-6.49-3.91-14.68,21.49-17.59,18.57.75-3.66-.71-15.81.45-17.92s17.68-7.11,20.9-9.24c6.32,22.5,34.52,29.83,42.68,50.2,4.97-5.97.02-17.28-2.88-23.58-3.17-6.88-19.46-29.89-26.48-31.13-10.54-1.86-25.46,7.08-34.98,11.31l.65-7.69c-3.71,2.78-13.5-.96-13.16,3.63.66,8.93,4.97,11.74-6.91,15.76-.95-14.13-6.6-38.08-17.69-47.67-2.48-2.15-6.72-3.1-7.32-3.84-2.38-2.96-.1-9.55-.32-13.35-1.08-18.04-3.49-35.98-1.72-54.06l-15.03,2.45c3.28,2.18,4.43,9.7,4.96,14.2.43,3.68,2.76,13.77-2.26,12.36-1.18-.33-12.91-15.64-16.06-18.52-6.87-6.26-17.18-12.89-25.42-17.16,7.39,8.32,15.76,16.01,22.01,25.31,5.5,8.18,10.73,24.14,15.97,29.64,4.54,4.77,10.23,2.27,8.07,13.95-.32,1.75-9.04,2.59-11.24,3.57-19.58,8.65-25.49,39.57-37.55,55.81l-1.92-24.7c-.05-.59,2.41-4.03.28-4.49l-11.98.95c-.59,1.81,1.55,3.66,1.6,4.33l3.99,51.29-20.7-27.56c-7.08-6.27-12.42-15.25-21.04-19.54l35.75,52.05-.46,1.91c-6.89-6.64-15.03-12.07-24.57-14.02,8.31,5.18,14.49,15.85,21.87,21.29,2.56,1.89,9.11,3.59,10,4.9,4.18,6.15-4.54,14.12,10.35,10.68,1.82-2.12-4.6-49.31-2.42-55.85,1.1-3.29,22.54-26.17,26.75-31.4,5.5-6.83,11.9-18.04,17.42-23.99,3.85-4.15,5.57-1.22,3.58,3.21-2.21,4.91-12.88,15.11-16.51,21.09-12.4,20.45-12.37,45.24-18.86,67.71,13.08-13.23,20.04-33.47,25.81-51.1,2.5-7.64,4.6-23.3,7.26-28.99.65-1.39,3.36-1.45,3.74-1.14,2.26,1.84-2.04,4.1-2.18,5.82-.73,9.24,3.23,21.22,1.25,31.19,1.97-.48,10.95-.38,11.37-.88.62-.73-3.27-19.36,1.32-15.4,1.41,1.22,11.47,22.76,14.54,26.07l-15.04,16,.74-22.98-15.14,1.18c6.64,36.95,3.85,75.46,4.98,113l11.37-.88-2.36-79.43c-.72-11.06,9.51-16.94,16.56-23.58,10.03,19.17,3.54,1.75,7.24-5.62,1.42-2.82,5.25-4.06,7.72-5.77-1.09,8.39,3.81,19.5,3.32,27.04-.42,6.37-7.31,15.63-8.36,22.4,3.16-.47,9.27-11.58,9.91-3.31l5.08,65.22c.03.44,8.87-.24,8.84-.69l-6.16-79.15Z"/>
      <path d="M1758.85,86.21l-19.87-2.24c-11.18-.27-41.56.05-48.86,8.83-8.05,9.68,14.55,6.72,18.29,6.25,16.62-2.11,34.33-8.27,50.45-12.84Z"/>
      <path d="M1509.41,51.04c.72-.21.88-.86,1.27-1.27-.8.25-.91.98-1.27,1.27Z"/>
      <path d="M1534.33,203.75c.12-1.46,2.93-9.22,2.53-9.51h-13.93s2.52,53.35,2.52,53.35c1.22-.31,8.87.44,8.87,0,0-13.94-1.09-30.21,0-43.83Z"/>
      <path d="M1471.16,166.22c.13-2.37,3.2-14.91,2.76-15.38h-15.21s2.76,86.24,2.76,86.24c1.34-.5,9.69.71,9.69-.01,0-22.54-1.19-48.83,0-70.85Z"/>
      <path d="M1510.43,147.88c.13-3.01,3.2-18.94,2.76-19.54h-15.21s2.76,109.58,2.76,109.58c1.34-.64,9.69.9,9.69-.01,0-28.64-1.19-62.05,0-90.03Z"/>
      <path d="M1691.33,74.95c-4.31,1.7-19.83,20.49-10.92,22.47,6.29,1.39,8.34-18.58,10.92-22.47Z"/>
      <path d="M1698.11,104.98l49.68,26.71,14.17,11c-14.23-21.3-39.04-33.51-63.86-37.72Z"/>
      <polygon points="1690.07 10.04 1689.49 10.72 1690.17 11.3 1690.07 10.04"/>
      <polygon points="1506.25 18.01 1505.61 18.64 1506.25 19.28 1506.25 18.01"/>
      <polygon points="1696.1 103.85 1695.52 104.54 1696.2 105.12 1696.1 103.85"/>
      <polygon points="1385.96 128.52 1385.33 129.16 1385.96 129.79 1385.96 128.52"/>
    </g>
    <g>
      <path d="M1474.46,173.05l-20.91-5.06c-10.49-.89-20.49-.31-30.99-.03-1.53-9.25-8.51-41.54-13.84-47.47-1.32-1.47-3.66-.57-3.89-.8-1.41-1.43,3.17-10.05,6.41-9.61l56.01,18.75,8.49,14.99c3.59-1.02-.47-11-.01-11.41l18.98,5.06c-3.48-3.38-16.42-4.77-18.89-8.34-2.05-2.97-7.24-31.49-9.6-38.64-1.29-3.92-4.3-15.15-8.22-15.88-1.42-1.54-1.58-.09-1.25,1.23,1.61,6.27,16.78,46.95,15.16,48.93-1.93,2.36-2.72-1.66-3.11-2.52-6.6-14.35-10.58-31.99-15.89-47-2.2-.3-1.19,2.89-1.25,4.42-.66,17.75,8.06,30.51,13.91,46.38l-65.82-23.49c11.9-12.74,32.31-15.2,45.49-25.5,2.49-1.95,9.23-10.7,10.63-10.58,12.44,8.09,24.47,18.18,33.73,29.77,1.82,2.27,10.73,13.94,11.16,15.48,2.45,8.73-4.8,10.27,10.41,9.26l-8.51-90.69c11.95-19.82,32-41.99,26.21-66.83-1.27-1.28-7.4,18.21-8.24,20.3-4.46,11.13-9.02,22.7-15.19,33.02l17.07-54.02c.04-5.65-5.59,2.85-7.1,3.09-1.63.26-3.54-2.62-5.52-2.42,19.35-10.56,2.61-16.39-10.77-16.47-4.71-.03-15.04,3.64-18.84,2.6-2.24-.61-.33-8.49-3.81-7.6-.76.19-9.29,3.32-9.63,3.71-1.47,1.66,2.84,5.65,2.55,6.94-.48,2.09-22.8,7.88-25.33,12.1h29.75c1.88,0,4.18,6.4,1.99,9.61-1.3,1.9-13.78,9.23-17.14,12.03-10.08,8.39-19.14,18.22-29.77,26.01,7.2-1.49,53.41-21.89,55.68-19.71,1.85,4.71,5.06,35.48,6.35,36.83.74.77,21.08-1.54-1.25,5.73,5.64,11.81,7.4,28.53,8.82,41.94.46,4.3,2.56,25.09,1.95,27.3-.95,3.45-1.49.69-2.26-.29-3.82-4.83-7.06-10.6-11.14-15.21-7.47-8.44-32.56-31.89-43.56-31.56-14.47.43-46.33,29.39-47.7,45.6-19.53-1.08-39.25,4.73-54.26,17.34,22.42,1.5,44.06-5.71,65.83-9.52l-8.5,12.19,5.96,52.58c-2.65-.76-2.64-4.1-3.19-6.31-3.51-14.17-4.67-30.04-6.94-44.49l-3.89,15.89c-2.91,8.99,14.91,52.25,13.9,55.67-.33,1.12-14.74,12.17-17.63,15.42-9.84,11.04-17.87,26.14-17.68,41.31l9.1-20.7c6.28-9.31,13.13-19.78,23.78-24.4-10.61,10.24-22.24,24-24.67,38.75,12.66-19.49,30.03-35.18,47.43-50.26,2.34-2.03,5.8-1.36,6.38-5.61-7.29-3.1-14.28,1.38-21.52,2.52v-17.78c0-.6,11.15-1.54,11.81-1.34,2.14.62.82,5.24,3.37,5.15.25-1-.3-6.34.01-6.34h49.38ZM1485.86-35.27c9.49-1.43,11-.78,1.88,3.77l-1.88-3.77ZM1492.31-12.23c.55-.97,16.74-8.87,18.86-11.62l-10.12,41.92c-3.47.38-2-.14-2.51-1.9-.96-3.3-6.94-27.14-6.23-28.4ZM1407.37,151.45c2.88,3.73,8.74,11.78,10.15,15.87,1.09,3.14-2.04,4.13-4.81,4.23-7.45.28-2.46-14.47-5.35-20.1ZM1403.56,178.14c2.9-2.78,3.3,5.64,2.51,7.6s-2.84-7.3-2.51-7.6Z"/>
      <path d="M1652.94,63.26c.32-1.31,12.95-7.36,16.15-10.95,8.96-10.03,12.29-28.17,20.57-39.06-14.22,12.33-23.61,29-35.98,42.95-.12-7.78,8.01-13.45,11.67-20.11,9.08-16.52,9-36.41,12.98-54.44l-8.59,12.11-17.14,48.5-.88-76.37-13.88,1.08,8.41,140.77c1.3-.47,10.14-.29,10.1-.79-.61-7.86-4.59-38.85-3.4-43.69Z"/>
      <path d="M1577.78,5.94c.97,3.12,9.53,2,10.18-.22l-.05-114.73h-13.93c-1.66,4.48,2.31,4.71,2.64,6.9.67,4.53.96,13.88,1.22,19.08.73,14.54-.63,29.33-.06,43.87-1.48,2.01-12.18-14.03-13.27-15.25-6.61-7.41-14.37-14.79-22.14-20.96,10.8,15.05,17.97,33.36,29.68,47.7,1.09,1.33,5.75,3.81,5.75,4.4,0,5.89-1.19,25.39,0,29.22Z"/>
      <path d="M1636.79,158.85c.26-1.28,13.12-16.56,15.39-21.07,2.38-4.73,4.76-10.24,4.61-15.53l-20.62,28.36c2.04-11.17,11.39-21.09,16.59-31.24-6.49-3.91-14.68,21.49-17.59,18.57.75-3.66-.71-15.81.45-17.92s17.68-7.11,20.9-9.24c6.32,22.5,34.52,29.83,42.68,50.2,4.97-5.97.02-17.28-2.88-23.58-3.17-6.88-19.46-29.89-26.48-31.13-10.54-1.86-25.46,7.08-34.98,11.31l.65-7.69c-3.71,2.78-13.5-.96-13.16,3.63.66,8.93,4.97,11.74-6.91,15.76-.95-14.13-6.6-38.08-17.69-47.67-2.48-2.15-6.72-3.1-7.32-3.84-2.38-2.96-.1-9.55-.32-13.35-1.08-18.04-3.49-35.98-1.72-54.06l-15.03,2.45c3.28,2.18,4.43,9.7,4.96,14.2.43,3.68,2.76,13.77-2.26,12.36-1.18-.33-12.91-15.64-16.06-18.52-6.87-6.26-17.18-12.89-25.42-17.16,7.39,8.32,15.76,16.01,22.01,25.31,5.5,8.18,10.73,24.14,15.97,29.64,4.54,4.77,10.23,2.27,8.07,13.95-.32,1.75-9.04,2.59-11.24,3.57-19.58,8.65-25.49,39.57-37.55,55.81l-1.92-24.7c-.05-.59,2.41-4.03.28-4.49l-11.98.95c-.59,1.81,1.55,3.66,1.6,4.33l3.99,51.29-20.7-27.56c-7.08-6.27-12.42-15.25-21.04-19.54l35.75,52.05-.46,1.91c-6.89-6.64-15.03-12.07-24.57-14.02,8.31,5.18,14.49,15.85,21.87,21.29,2.56,1.89,9.11,3.59,10,4.9,4.18,6.15-4.54,14.12,10.35,10.68,1.82-2.12-4.6-49.31-2.42-55.85,1.1-3.29,22.54-26.17,26.75-31.4,5.5-6.83,11.9-18.04,17.42-23.99,3.85-4.15,5.57-1.22,3.58,3.21-2.21,4.91-12.88,15.11-16.51,21.09-12.4,20.45-12.37,45.24-18.86,67.71,13.08-13.23,20.04-33.47,25.81-51.1,2.5-7.64,4.6-23.3,7.26-28.99.65-1.39,3.36-1.45,3.74-1.14,2.26,1.84-2.04,4.1-2.18,5.82-.73,9.24,3.23,21.22,1.25,31.19,1.97-.48,10.95-.38,11.37-.88.62-.73-3.27-19.36,1.32-15.4,1.41,1.22,11.47,22.76,14.54,26.07l-15.04,16,.74-22.98-15.14,1.18c6.64,36.95,3.85,75.46,4.98,113l11.37-.88-2.36-79.43c-.72-11.06,9.51-16.94,16.56-23.58,10.03,19.17,3.54,1.75,7.24-5.62,1.42-2.82,5.25-4.06,7.72-5.77-1.09,8.39,3.81,19.5,3.32,27.04-.42,6.37-7.31,15.63-8.36,22.4,3.16-.47,9.27-11.58,9.91-3.31l5.08,65.22c.03.44,8.87-.24,8.84-.69l-6.16-79.15Z"/>
      <path d="M1758.85,86.21l-19.87-2.24c-11.18-.27-41.56.05-48.86,8.83-8.05,9.68,14.55,6.72,18.29,6.25,16.62-2.11,34.33-8.27,50.45-12.84Z"/>
      <path d="M1509.41,51.04c.72-.21.88-.86,1.27-1.27-.8.25-.91.98-1.27,1.27Z"/>
      <path d="M1534.33,203.75c.12-1.46,2.93-9.22,2.53-9.51h-13.93s2.52,53.35,2.52,53.35c1.22-.31,8.87.44,8.87,0,0-13.94-1.09-30.21,0-43.83Z"/>
      <path d="M1471.16,166.22c.13-2.37,3.2-14.91,2.76-15.38h-15.21s2.76,86.24,2.76,86.24c1.34-.5,9.69.71,9.69-.01,0-22.54-1.19-48.83,0-70.85Z"/>
      <path d="M1510.43,147.88c.13-3.01,3.2-18.94,2.76-19.54h-15.21s2.76,109.58,2.76,109.58c1.34-.64,9.69.9,9.69-.01,0-28.64-1.19-62.05,0-90.03Z"/>
      <path d="M1691.33,74.95c-4.31,1.7-19.83,20.49-10.92,22.47,6.29,1.39,8.34-18.58,10.92-22.47Z"/>
      <path d="M1698.11,104.98l49.68,26.71,14.17,11c-14.23-21.3-39.04-33.51-63.86-37.72Z"/>
      <polygon points="1690.07 10.04 1689.49 10.72 1690.17 11.3 1690.07 10.04"/>
      <polygon points="1506.25 18.01 1505.61 18.64 1506.25 19.28 1506.25 18.01"/>
      <polygon points="1696.1 103.85 1695.52 104.54 1696.2 105.12 1696.1 103.85"/>
      <polygon points="1385.96 128.52 1385.33 129.16 1385.96 129.79 1385.96 128.52"/>
    </g>
  </g>
</svg>