<?xml version="1.0" encoding="UTF-8"?>
<svg id="Layer_1" data-name="Layer 1" xmlns="http://www.w3.org/2000/svg" viewBox="0 0 270.17 137.88">
  <defs>
    <style>
      .cls-1 {
        fill: #4d0909ff;
      }

      .cls-2 {
        fill: #3f0505ff;
      }
    </style>
  </defs>
  <g>
    <path class="cls-1" d="M135.08,31.91c-65.02,0-117.92-52.9-117.92-117.92s52.9-117.92,117.92-117.92,117.92,52.9,117.92,117.92S200.1,31.91,135.08,31.91Z"/>
    <path class="cls-2" d="M135.08-200.92c30.69,0,59.55,11.95,81.26,33.66,21.7,21.7,33.66,50.56,33.66,81.26s-11.95,59.55-33.66,81.26-50.56,33.66-81.26,33.66S75.53,16.96,53.83-4.74,20.17-55.31,20.17-86s11.95-59.55,33.66-81.26c21.7-21.7,50.56-33.66,81.26-33.66M135.08-206.92c-66.78,0-120.92,54.14-120.92,120.92s54.14,120.92,120.92,120.92,120.92-54.14,120.92-120.92-54.14-120.92-120.92-120.92h0Z"/>
  </g>
  <g>
    <path class="cls-1" d="M135.08,3.57c-49.39,0-89.58-40.18-89.58-89.58s40.18-89.58,89.58-89.58,89.58,40.18,89.58,89.58S184.48,3.57,135.08,3.57Z"/>
    <path class="cls-2" d="M135.08-172.58c47.74,0,86.58,38.84,86.58,86.58S182.82.57,135.08.57,48.51-38.26,48.51-86s38.84-86.58,86.58-86.58M135.08-178.58c-51.05,0-92.58,41.53-92.58,92.58S84.04,6.57,135.08,6.57s92.58-41.53,92.58-92.58-41.53-92.58-92.58-92.58h0Z"/>
  </g>
  <g>
    <path class="cls-1" d="M135.08,31.91c-65.02,0-117.92-52.9-117.92-117.92s52.9-117.92,117.92-117.92,117.92,52.9,117.92,117.92S200.1,31.91,135.08,31.91Z"/>
    <path class="cls-2" d="M135.08-200.92c30.69,0,59.55,11.95,81.26,33.66,21.7,21.7,33.66,50.56,33.66,81.26s-11.95,59.55-33.66,81.26-50.56,33.66-81.26,33.66S75.53,16.96,53.83-4.74,20.17-55.31,20.17-86s11.95-59.55,33.66-81.26c21.7-21.7,50.56-33.66,81.26-33.66M135.08-206.92c-66.78,0-120.92,54.14-120.92,120.92s54.14,120.92,120.92,120.92,120.92-54.14,120.92-120.92-54.14-120.92-120.92-120.92h0Z"/>
  </g>
  <g>
    <path class="cls-1" d="M135.08,3.57c-49.39,0-89.58-40.18-89.58-89.58s40.18-89.58,89.58-89.58,89.58,40.18,89.58,89.58S184.48,3.57,135.08,3.57Z"/>
    <path class="cls-2" d="M135.08-172.58c47.74,0,86.58,38.84,86.58,86.58S182.82.57,135.08.57,48.51-38.26,48.51-86s38.84-86.58,86.58-86.58M135.08-178.58c-51.05,0-92.58,41.53-92.58,92.58S84.04,6.57,135.08,6.57s92.58-41.53,92.58-92.58-41.53-92.58-92.58-92.58h0Z"/>
  </g>
  <g>
    <path class="cls-1" d="M0,100.87c-65.02,0-117.92-52.9-117.92-117.92S-65.02-134.96,0-134.96,117.91-82.06,117.91-17.04,65.02,100.87,0,100.87Z"/>
    <path class="cls-2" d="M0-131.96c30.69,0,59.55,11.95,81.26,33.66s33.66,50.56,33.66,81.26-11.95,59.55-33.66,81.26S30.69,97.87,0,97.87s-59.55-11.95-81.26-33.66c-21.7-21.7-33.66-50.56-33.66-81.26s11.95-59.55,33.66-81.26C-59.55-120-30.69-131.96,0-131.96M0-137.96c-66.78,0-120.92,54.14-120.92,120.92S-66.78,103.87,0,103.87,120.92,49.74,120.92-17.04,66.78-137.96,0-137.96H0Z"/>
  </g>
  <g>
    <path class="cls-1" d="M0,72.53c-49.39,0-89.58-40.18-89.58-89.58S-49.39-106.62,0-106.62,89.58-66.44,89.58-17.04,49.39,72.53,0,72.53Z"/>
    <path class="cls-2" d="M0-103.62c47.74,0,86.58,38.84,86.58,86.58S47.74,69.53,0,69.53-86.58,30.7-86.58-17.04-47.74-103.62,0-103.62M0-109.62c-51.05,0-92.58,41.53-92.58,92.58S-51.05,75.53,0,75.53,92.58,34,92.58-17.04,51.05-109.62,0-109.62H0Z"/>
  </g>
  <g>
    <path class="cls-1" d="M0,44.19c-33.77,0-61.24-27.47-61.24-61.24S-33.77-78.28,0-78.28s61.24,27.47,61.24,61.24S33.77,44.19,0,44.19Z"/>
    <path class="cls-2" d="M0-75.28c32.11,0,58.24,26.12,58.24,58.24S32.11,41.19,0,41.19-58.24,15.07-58.24-17.04-32.11-75.28,0-75.28M0-81.28c-35.42,0-64.24,28.82-64.24,64.24S-35.42,47.19,0,47.19,64.24,18.38,64.24-17.04,35.42-81.28,0-81.28H0Z"/>
  </g>
  <g>
    <path class="cls-1" d="M0,15.85c-18.14,0-32.9-14.76-32.9-32.9S-18.14-49.94,0-49.94s32.9,14.76,32.9,32.9S18.14,15.85,0,15.85Z"/>
    <path class="cls-2" d="M0-46.94c16.49,0,29.9,13.41,29.9,29.9S16.49,12.85,0,12.85-29.9-.56-29.9-17.04-16.49-46.94,0-46.94M0-52.94c-19.79,0-35.9,16.1-35.9,35.9S-19.79,18.85,0,18.85,35.9,2.75,35.9-17.04,19.79-52.94,0-52.94H0Z"/>
  </g>
  <g>
    <path class="cls-1" d="M270.17,100.87c-65.02,0-117.92-52.9-117.92-117.92s52.9-117.92,117.92-117.92,117.92,52.9,117.92,117.92-52.9,117.92-117.92,117.92Z"/>
    <path class="cls-2" d="M270.17-131.96c30.69,0,59.55,11.95,81.26,33.66s33.66,50.56,33.66,81.26-11.95,59.55-33.66,81.26-50.56,33.66-81.26,33.66-59.55-11.95-81.26-33.66-33.66-50.56-33.66-81.26,11.95-59.55,33.66-81.26,50.56-33.66,81.26-33.66M270.17-137.96c-66.78,0-120.92,54.14-120.92,120.92s54.14,120.92,120.92,120.92,120.92-54.14,120.92-120.92-54.14-120.92-120.92-120.92h0Z"/>
  </g>
  <g>
    <path class="cls-1" d="M270.17,72.53c-49.39,0-89.58-40.18-89.58-89.58s40.18-89.58,89.58-89.58,89.58,40.18,89.58,89.58-40.18,89.58-89.58,89.58Z"/>
    <path class="cls-2" d="M270.17-103.62c47.74,0,86.58,38.84,86.58,86.58s-38.84,86.58-86.58,86.58S183.59,30.7,183.59-17.04s38.84-86.58,86.58-86.58M270.17-109.62c-51.05,0-92.58,41.53-92.58,92.58s41.53,92.58,92.58,92.58,92.58-41.53,92.58-92.58-41.53-92.58-92.58-92.58h0Z"/>
  </g>
  <g>
    <path class="cls-1" d="M270.17,44.19c-33.77,0-61.24-27.47-61.24-61.24s27.47-61.24,61.24-61.24,61.24,27.47,61.24,61.24-27.47,61.24-61.24,61.24Z"/>
    <path class="cls-2" d="M270.17-75.28c32.11,0,58.24,26.12,58.24,58.24s-26.12,58.24-58.24,58.24-58.24-26.12-58.24-58.24,26.12-58.24,58.24-58.24M270.17-81.28c-35.42,0-64.24,28.82-64.24,64.24s28.82,64.24,64.24,64.24,64.24-28.82,64.24-64.24-28.82-64.24-64.24-64.24h0Z"/>
  </g>
  <g>
    <path class="cls-1" d="M270.17,15.85c-18.14,0-32.9-14.76-32.9-32.9s14.76-32.9,32.9-32.9,32.9,14.76,32.9,32.9-14.76,32.9-32.9,32.9Z"/>
    <path class="cls-2" d="M270.17-46.94c16.49,0,29.9,13.41,29.9,29.9s-13.41,29.9-29.9,29.9-29.9-13.41-29.9-29.9,13.41-29.9,29.9-29.9M270.17-52.94c-19.79,0-35.9,16.1-35.9,35.9s16.1,35.9,35.9,35.9,35.9-16.1,35.9-35.9-16.1-35.9-35.9-35.9h0Z"/>
  </g>
  <g>
    <path class="cls-1" d="M0,100.87c-65.02,0-117.92-52.9-117.92-117.92S-65.02-134.96,0-134.96,117.91-82.06,117.91-17.04,65.02,100.87,0,100.87Z"/>
    <path class="cls-2" d="M0-131.96c30.69,0,59.55,11.95,81.26,33.66s33.66,50.56,33.66,81.26-11.95,59.55-33.66,81.26S30.69,97.87,0,97.87s-59.55-11.95-81.26-33.66c-21.7-21.7-33.66-50.56-33.66-81.26s11.95-59.55,33.66-81.26C-59.55-120-30.69-131.96,0-131.96M0-137.96c-66.78,0-120.92,54.14-120.92,120.92S-66.78,103.87,0,103.87,120.92,49.74,120.92-17.04,66.78-137.96,0-137.96H0Z"/>
  </g>
  <g>
    <path class="cls-1" d="M0,72.53c-49.39,0-89.58-40.18-89.58-89.58S-49.39-106.62,0-106.62,89.58-66.44,89.58-17.04,49.39,72.53,0,72.53Z"/>
    <path class="cls-2" d="M0-103.62c47.74,0,86.58,38.84,86.58,86.58S47.74,69.53,0,69.53-86.58,30.7-86.58-17.04-47.74-103.62,0-103.62M0-109.62c-51.05,0-92.58,41.53-92.58,92.58S-51.05,75.53,0,75.53,92.58,34,92.58-17.04,51.05-109.62,0-109.62H0Z"/>
  </g>
  <g>
    <path class="cls-1" d="M0,44.19c-33.77,0-61.24-27.47-61.24-61.24S-33.77-78.28,0-78.28s61.24,27.47,61.24,61.24S33.77,44.19,0,44.19Z"/>
    <path class="cls-2" d="M0-75.28c32.11,0,58.24,26.12,58.24,58.24S32.11,41.19,0,41.19-58.24,15.07-58.24-17.04-32.11-75.28,0-75.28M0-81.28c-35.42,0-64.24,28.82-64.24,64.24S-35.42,47.19,0,47.19,64.24,18.38,64.24-17.04,35.42-81.28,0-81.28H0Z"/>
  </g>
  <g>
    <path class="cls-1" d="M0,15.85c-18.14,0-32.9-14.76-32.9-32.9S-18.14-49.94,0-49.94s32.9,14.76,32.9,32.9S18.14,15.85,0,15.85Z"/>
    <path class="cls-2" d="M0-46.94c16.49,0,29.9,13.41,29.9,29.9S16.49,12.85,0,12.85-29.9-.56-29.9-17.04-16.49-46.94,0-46.94M0-52.94c-19.79,0-35.9,16.1-35.9,35.9S-19.79,18.85,0,18.85,35.9,2.75,35.9-17.04,19.79-52.94,0-52.94H0Z"/>
  </g>
  <g>
    <path class="cls-1" d="M270.17,100.87c-65.02,0-117.92-52.9-117.92-117.92s52.9-117.92,117.92-117.92,117.92,52.9,117.92,117.92-52.9,117.92-117.92,117.92Z"/>
    <path class="cls-2" d="M270.17-131.96c30.69,0,59.55,11.95,81.26,33.66s33.66,50.56,33.66,81.26-11.95,59.55-33.66,81.26-50.56,33.66-81.26,33.66-59.55-11.95-81.26-33.66-33.66-50.56-33.66-81.26,11.95-59.55,33.66-81.26,50.56-33.66,81.26-33.66M270.17-137.96c-66.78,0-120.92,54.14-120.92,120.92s54.14,120.92,120.92,120.92,120.92-54.14,120.92-120.92-54.14-120.92-120.92-120.92h0Z"/>
  </g>
  <g>
    <path class="cls-1" d="M270.17,72.53c-49.39,0-89.58-40.18-89.58-89.58s40.18-89.58,89.58-89.58,89.58,40.18,89.58,89.58-40.18,89.58-89.58,89.58Z"/>
    <path class="cls-2" d="M270.17-103.62c47.74,0,86.58,38.84,86.58,86.58s-38.84,86.58-86.58,86.58S183.59,30.7,183.59-17.04s38.84-86.58,86.58-86.58M270.17-109.62c-51.05,0-92.58,41.53-92.58,92.58s41.53,92.58,92.58,92.58,92.58-41.53,92.58-92.58-41.53-92.58-92.58-92.58h0Z"/>
  </g>
  <g>
    <path class="cls-1" d="M270.17,44.19c-33.77,0-61.24-27.47-61.24-61.24s27.47-61.24,61.24-61.24,61.24,27.47,61.24,61.24-27.47,61.24-61.24,61.24Z"/>
    <path class="cls-2" d="M270.17-75.28c32.11,0,58.24,26.12,58.24,58.24s-26.12,58.24-58.24,58.24-58.24-26.12-58.24-58.24,26.12-58.24,58.24-58.24M270.17-81.28c-35.42,0-64.24,28.82-64.24,64.24s28.82,64.24,64.24,64.24,64.24-28.82,64.24-64.24-28.82-64.24-64.24-64.24h0Z"/>
  </g>
  <g>
    <path class="cls-1" d="M270.17,15.85c-18.14,0-32.9-14.76-32.9-32.9s14.76-32.9,32.9-32.9,32.9,14.76,32.9,32.9-14.76,32.9-32.9,32.9Z"/>
    <path class="cls-2" d="M270.17-46.94c16.49,0,29.9,13.41,29.9,29.9s-13.41,29.9-29.9,29.9-29.9-13.41-29.9-29.9,13.41-29.9,29.9-29.9M270.17-52.94c-19.79,0-35.9,16.1-35.9,35.9s16.1,35.9,35.9,35.9,35.9-16.1,35.9-35.9-16.1-35.9-35.9-35.9h0Z"/>
  </g>
  <g>
    <path class="cls-1" d="M0,100.87c-65.02,0-117.92-52.9-117.92-117.92S-65.02-134.96,0-134.96,117.91-82.06,117.91-17.04,65.02,100.87,0,100.87Z"/>
    <path class="cls-2" d="M0-131.96c30.69,0,59.55,11.95,81.26,33.66s33.66,50.56,33.66,81.26-11.95,59.55-33.66,81.26S30.69,97.87,0,97.87s-59.55-11.95-81.26-33.66c-21.7-21.7-33.66-50.56-33.66-81.26s11.95-59.55,33.66-81.26C-59.55-120-30.69-131.96,0-131.96M0-137.96c-66.78,0-120.92,54.14-120.92,120.92S-66.78,103.87,0,103.87,120.92,49.74,120.92-17.04,66.78-137.96,0-137.96H0Z"/>
  </g>
  <g>
    <path class="cls-1" d="M0,72.53c-49.39,0-89.58-40.18-89.58-89.58S-49.39-106.62,0-106.62,89.58-66.44,89.58-17.04,49.39,72.53,0,72.53Z"/>
    <path class="cls-2" d="M0-103.62c47.74,0,86.58,38.84,86.58,86.58S47.74,69.53,0,69.53-86.58,30.7-86.58-17.04-47.74-103.62,0-103.62M0-109.62c-51.05,0-92.58,41.53-92.58,92.58S-51.05,75.53,0,75.53,92.58,34,92.58-17.04,51.05-109.62,0-109.62H0Z"/>
  </g>
  <g>
    <path class="cls-1" d="M0,44.19c-33.77,0-61.24-27.47-61.24-61.24S-33.77-78.28,0-78.28s61.24,27.47,61.24,61.24S33.77,44.19,0,44.19Z"/>
    <path class="cls-2" d="M0-75.28c32.11,0,58.24,26.12,58.24,58.24S32.11,41.19,0,41.19-58.24,15.07-58.24-17.04-32.11-75.28,0-75.28M0-81.28c-35.42,0-64.24,28.82-64.24,64.24S-35.42,47.19,0,47.19,64.24,18.38,64.24-17.04,35.42-81.28,0-81.28H0Z"/>
  </g>
  <g>
    <path class="cls-1" d="M0,15.85c-18.14,0-32.9-14.76-32.9-32.9S-18.14-49.94,0-49.94s32.9,14.76,32.9,32.9S18.14,15.85,0,15.85Z"/>
    <path class="cls-2" d="M0-46.94c16.49,0,29.9,13.41,29.9,29.9S16.49,12.85,0,12.85-29.9-.56-29.9-17.04-16.49-46.94,0-46.94M0-52.94c-19.79,0-35.9,16.1-35.9,35.9S-19.79,18.85,0,18.85,35.9,2.75,35.9-17.04,19.79-52.94,0-52.94H0Z"/>
  </g>
  <g>
    <path class="cls-1" d="M135.08,169.83c-65.02,0-117.92-52.9-117.92-117.92s52.9-117.92,117.92-117.92S253-13.1,253,51.92s-52.9,117.92-117.92,117.92Z"/>
    <path class="cls-2" d="M135.08-63c30.69,0,59.55,11.95,81.26,33.66s33.66,50.56,33.66,81.26-11.95,59.55-33.66,81.26c-21.7,21.7-50.56,33.66-81.26,33.66s-59.55-11.95-81.26-33.66c-21.7-21.7-33.66-50.56-33.66-81.26S32.12-7.64,53.83-29.34s50.56-33.66,81.26-33.66M135.08-69C68.31-69,14.17-14.86,14.17,51.92s54.14,120.92,120.92,120.92,120.92-54.14,120.92-120.92-54.14-120.92-120.92-120.92h0Z"/>
  </g>
  <g>
    <path class="cls-1" d="M135.08,141.49c-49.39,0-89.58-40.18-89.58-89.58s40.18-89.58,89.58-89.58S224.66,2.52,224.66,51.92s-40.18,89.58-89.58,89.58Z"/>
    <path class="cls-2" d="M135.08-34.66c47.74,0,86.58,38.84,86.58,86.58s-38.84,86.58-86.58,86.58S48.51,99.65,48.51,51.92s38.84-86.58,86.58-86.58M135.08-40.66C84.04-40.66,42.51.87,42.51,51.92s41.53,92.58,92.58,92.58,92.58-41.53,92.58-92.58-41.53-92.58-92.58-92.58h0Z"/>
  </g>
  <g>
    <path class="cls-1" d="M135.08,113.15c-33.77,0-61.24-27.47-61.24-61.24s27.47-61.24,61.24-61.24,61.24,27.47,61.24,61.24-27.47,61.24-61.24,61.24Z"/>
    <path class="cls-2" d="M135.08-6.32c32.11,0,58.24,26.12,58.24,58.24s-26.12,58.24-58.24,58.24-58.24-26.12-58.24-58.24S102.97-6.32,135.08-6.32M135.08-12.32c-35.42,0-64.24,28.82-64.24,64.24s28.82,64.24,64.24,64.24,64.24-28.82,64.24-64.24S170.5-12.32,135.08-12.32h0Z"/>
  </g>
  <g>
    <path class="cls-1" d="M0,238.79c-65.02,0-117.92-52.9-117.92-117.92S-65.02,2.96,0,2.96s117.92,52.9,117.92,117.92S65.02,238.79,0,238.79Z"/>
    <path class="cls-2" d="M0,5.96c30.69,0,59.55,11.95,81.26,33.66s33.66,50.56,33.66,81.26-11.95,59.55-33.66,81.26S30.69,235.79,0,235.79s-59.55-11.95-81.26-33.66c-21.7-21.7-33.66-50.56-33.66-81.26s11.95-59.55,33.66-81.26C-59.55,17.91-30.69,5.96,0,5.96M0-.04C-66.78-.04-120.92,54.1-120.92,120.88S-66.78,241.79,0,241.79s120.92-54.14,120.92-120.92S66.78-.04,0-.04H0Z"/>
  </g>
  <g>
    <path class="cls-1" d="M135.08,169.83c-65.02,0-117.92-52.9-117.92-117.92s52.9-117.92,117.92-117.92S253-13.1,253,51.92s-52.9,117.92-117.92,117.92Z"/>
    <path class="cls-2" d="M135.08-63c30.69,0,59.55,11.95,81.26,33.66,21.7,21.7,33.66,50.56,33.66,81.26s-11.95,59.55-33.66,81.26-50.56,33.66-81.26,33.66-59.55-11.95-81.26-33.66S20.17,82.61,20.17,51.92,32.12-7.64,53.83-29.34c21.7-21.7,50.56-33.66,81.26-33.66M135.08-69C68.31-69,14.17-14.86,14.17,51.92s54.14,120.92,120.92,120.92,120.92-54.14,120.92-120.92-54.14-120.92-120.92-120.92h0Z"/>
  </g>
  <g>
    <path class="cls-1" d="M135.08,141.49c-49.39,0-89.58-40.18-89.58-89.58s40.18-89.58,89.58-89.58S224.66,2.52,224.66,51.92s-40.18,89.58-89.58,89.58Z"/>
    <path class="cls-2" d="M135.08-34.66c47.74,0,86.58,38.84,86.58,86.58s-38.84,86.58-86.58,86.58S48.51,99.65,48.51,51.92s38.84-86.58,86.58-86.58M135.08-40.66C84.04-40.66,42.51.87,42.51,51.92s41.53,92.58,92.58,92.58,92.58-41.53,92.58-92.58-41.53-92.58-92.58-92.58h0Z"/>
  </g>
  <g>
    <path class="cls-1" d="M135.08,113.15c-33.77,0-61.24-27.47-61.24-61.24s27.47-61.24,61.24-61.24,61.24,27.47,61.24,61.24-27.47,61.24-61.24,61.24Z"/>
    <path class="cls-2" d="M135.08-6.32c32.11,0,58.24,26.12,58.24,58.24s-26.12,58.24-58.24,58.24-58.24-26.12-58.24-58.24S102.97-6.32,135.08-6.32M135.08-12.32c-35.42,0-64.24,28.82-64.24,64.24s28.82,64.24,64.24,64.24,64.24-28.82,64.24-64.24S170.5-12.32,135.08-12.32h0Z"/>
  </g>
  <g>
    <path class="cls-1" d="M135.08,84.81c-18.14,0-32.9-14.76-32.9-32.9s14.76-32.9,32.9-32.9,32.9,14.76,32.9,32.9-14.76,32.9-32.9,32.9Z"/>
    <path class="cls-2" d="M135.08,22.02c16.49,0,29.9,13.41,29.9,29.9s-13.41,29.9-29.9,29.9-29.9-13.41-29.9-29.9,13.41-29.9,29.9-29.9M135.08,16.02c-19.79,0-35.9,16.1-35.9,35.9s16.1,35.9,35.9,35.9,35.9-16.1,35.9-35.9-16.1-35.9-35.9-35.9h0Z"/>
  </g>
  <g>
    <path class="cls-1" d="M135.08,169.83c-65.02,0-117.92-52.9-117.92-117.92s52.9-117.92,117.92-117.92S253-13.1,253,51.92s-52.9,117.92-117.92,117.92Z"/>
    <path class="cls-2" d="M135.08-63c30.69,0,59.55,11.95,81.26,33.66,21.7,21.7,33.66,50.56,33.66,81.26s-11.95,59.55-33.66,81.26-50.56,33.66-81.26,33.66-59.55-11.95-81.26-33.66S20.17,82.61,20.17,51.92,32.12-7.64,53.83-29.34c21.7-21.7,50.56-33.66,81.26-33.66M135.08-69C68.31-69,14.17-14.86,14.17,51.92s54.14,120.92,120.92,120.92,120.92-54.14,120.92-120.92-54.14-120.92-120.92-120.92h0Z"/>
  </g>
  <g>
    <path class="cls-1" d="M135.08,141.49c-49.39,0-89.58-40.18-89.58-89.58s40.18-89.58,89.58-89.58S224.66,2.52,224.66,51.92s-40.18,89.58-89.58,89.58Z"/>
    <path class="cls-2" d="M135.08-34.66c47.74,0,86.58,38.84,86.58,86.58s-38.84,86.58-86.58,86.58S48.51,99.65,48.51,51.92s38.84-86.58,86.58-86.58M135.08-40.66C84.04-40.66,42.51.87,42.51,51.92s41.53,92.58,92.58,92.58,92.58-41.53,92.58-92.58-41.53-92.58-92.58-92.58h0Z"/>
  </g>
  <g>
    <path class="cls-1" d="M135.08,113.15c-33.77,0-61.24-27.47-61.24-61.24s27.47-61.24,61.24-61.24,61.24,27.47,61.24,61.24-27.47,61.24-61.24,61.24Z"/>
    <path class="cls-2" d="M135.08-6.32c32.11,0,58.24,26.12,58.24,58.24s-26.12,58.24-58.24,58.24-58.24-26.12-58.24-58.24S102.97-6.32,135.08-6.32M135.08-12.32c-35.42,0-64.24,28.82-64.24,64.24s28.82,64.24,64.24,64.24,64.24-28.82,64.24-64.24S170.5-12.32,135.08-12.32h0Z"/>
  </g>
  <g>
    <path class="cls-1" d="M135.08,84.81c-18.14,0-32.9-14.76-32.9-32.9s14.76-32.9,32.9-32.9,32.9,14.76,32.9,32.9-14.76,32.9-32.9,32.9Z"/>
    <path class="cls-2" d="M135.08,22.02c16.49,0,29.9,13.41,29.9,29.9s-13.41,29.9-29.9,29.9-29.9-13.41-29.9-29.9,13.41-29.9,29.9-29.9M135.08,16.02c-19.79,0-35.9,16.1-35.9,35.9s16.1,35.9,35.9,35.9,35.9-16.1,35.9-35.9-16.1-35.9-35.9-35.9h0Z"/>
  </g>
  <g>
    <path class="cls-1" d="M0,238.79c-65.02,0-117.92-52.9-117.92-117.92S-65.02,2.96,0,2.96s117.92,52.9,117.92,117.92S65.02,238.79,0,238.79Z"/>
    <path class="cls-2" d="M0,5.96c30.69,0,59.55,11.95,81.26,33.66s33.66,50.56,33.66,81.26-11.95,59.55-33.66,81.26S30.69,235.79,0,235.79s-59.55-11.95-81.26-33.66c-21.7-21.7-33.66-50.56-33.66-81.26s11.95-59.55,33.66-81.26C-59.55,17.91-30.69,5.96,0,5.96M0-.04C-66.78-.04-120.92,54.1-120.92,120.88S-66.78,241.79,0,241.79s120.92-54.14,120.92-120.92S66.78-.04,0-.04H0Z"/>
  </g>
  <g>
    <path class="cls-1" d="M0,210.45c-49.39,0-89.58-40.18-89.58-89.58S-49.39,31.3,0,31.3s89.58,40.18,89.58,89.58S49.39,210.45,0,210.45Z"/>
    <path class="cls-2" d="M0,34.3c47.74,0,86.58,38.84,86.58,86.58S47.74,207.45,0,207.45s-86.58-38.84-86.58-86.58S-47.74,34.3,0,34.3M0,28.3c-51.05,0-92.58,41.53-92.58,92.58S-51.05,213.45,0,213.45s92.58-41.53,92.58-92.58S51.05,28.3,0,28.3H0Z"/>
  </g>
  <g>
    <path class="cls-1" d="M0,182.11c-33.77,0-61.24-27.47-61.24-61.24S-33.77,59.64,0,59.64s61.24,27.47,61.24,61.24S33.77,182.11,0,182.11Z"/>
    <path class="cls-2" d="M0,62.64c32.11,0,58.24,26.12,58.24,58.24S32.11,179.11,0,179.11s-58.24-26.12-58.24-58.24S-32.11,62.64,0,62.64M0,56.64c-35.42,0-64.24,28.82-64.24,64.24S-35.42,185.11,0,185.11s64.24-28.82,64.24-64.24S35.42,56.64,0,56.64H0Z"/>
  </g>
  <g>
    <path class="cls-1" d="M0,153.77c-18.14,0-32.9-14.76-32.9-32.9S-18.14,87.98,0,87.98s32.9,14.76,32.9,32.9S18.14,153.77,0,153.77Z"/>
    <path class="cls-2" d="M0,90.98c16.49,0,29.9,13.41,29.9,29.9S16.49,150.77,0,150.77s-29.9-13.41-29.9-29.9S-16.49,90.98,0,90.98M0,84.98c-19.79,0-35.9,16.1-35.9,35.9S-19.79,156.77,0,156.77s35.9-16.1,35.9-35.9S19.79,84.98,0,84.98H0Z"/>
  </g>
  <g>
    <path class="cls-1" d="M270.17,238.79c-65.02,0-117.92-52.9-117.92-117.92S205.15,2.96,270.17,2.96s117.92,52.9,117.92,117.92-52.9,117.92-117.92,117.92Z"/>
    <path class="cls-2" d="M270.17,5.96c30.69,0,59.55,11.95,81.26,33.66s33.66,50.56,33.66,81.26-11.95,59.55-33.66,81.26-50.56,33.66-81.26,33.66-59.55-11.95-81.26-33.66-33.66-50.56-33.66-81.26,11.95-59.55,33.66-81.26S239.47,5.96,270.17,5.96M270.17-.04C203.39-.04,149.25,54.1,149.25,120.88s54.14,120.92,120.92,120.92,120.92-54.14,120.92-120.92S336.95-.04,270.17-.04h0Z"/>
  </g>
  <g>
    <path class="cls-1" d="M270.17,210.45c-49.39,0-89.58-40.18-89.58-89.58s40.18-89.58,89.58-89.58,89.58,40.18,89.58,89.58-40.18,89.58-89.58,89.58Z"/>
    <path class="cls-2" d="M270.17,34.3c47.74,0,86.58,38.84,86.58,86.58s-38.84,86.58-86.58,86.58-86.58-38.84-86.58-86.58,38.84-86.58,86.58-86.58M270.17,28.3c-51.05,0-92.58,41.53-92.58,92.58s41.53,92.58,92.58,92.58,92.58-41.53,92.58-92.58-41.53-92.58-92.58-92.58h0Z"/>
  </g>
  <g>
    <path class="cls-1" d="M270.17,182.11c-33.77,0-61.24-27.47-61.24-61.24s27.47-61.24,61.24-61.24,61.24,27.47,61.24,61.24-27.47,61.24-61.24,61.24Z"/>
    <path class="cls-2" d="M270.17,62.64c32.11,0,58.24,26.12,58.24,58.24s-26.12,58.24-58.24,58.24-58.24-26.12-58.24-58.24,26.12-58.24,58.24-58.24M270.17,56.64c-35.42,0-64.24,28.82-64.24,64.24s28.82,64.24,64.24,64.24,64.24-28.82,64.24-64.24-28.82-64.24-64.24-64.24h0Z"/>
  </g>
  <g>
    <path class="cls-1" d="M270.17,153.77c-18.14,0-32.9-14.76-32.9-32.9s14.76-32.9,32.9-32.9,32.9,14.76,32.9,32.9-14.76,32.9-32.9,32.9Z"/>
    <path class="cls-2" d="M270.17,90.98c16.49,0,29.9,13.41,29.9,29.9s-13.41,29.9-29.9,29.9-29.9-13.41-29.9-29.9,13.41-29.9,29.9-29.9M270.17,84.98c-19.79,0-35.9,16.1-35.9,35.9s16.1,35.9,35.9,35.9,35.9-16.1,35.9-35.9-16.1-35.9-35.9-35.9h0Z"/>
  </g>
  <g>
    <path class="cls-1" d="M0,238.79c-65.02,0-117.92-52.9-117.92-117.92S-65.02,2.96,0,2.96s117.92,52.9,117.92,117.92S65.02,238.79,0,238.79Z"/>
    <path class="cls-2" d="M0,5.96c30.69,0,59.55,11.95,81.26,33.66s33.66,50.56,33.66,81.26-11.95,59.55-33.66,81.26S30.69,235.79,0,235.79s-59.55-11.95-81.26-33.66c-21.7-21.7-33.66-50.56-33.66-81.26s11.95-59.55,33.66-81.26C-59.55,17.91-30.69,5.96,0,5.96M0-.04C-66.78-.04-120.92,54.1-120.92,120.88S-66.78,241.79,0,241.79s120.92-54.14,120.92-120.92S66.78-.04,0-.04H0Z"/>
  </g>
  <g>
    <path class="cls-1" d="M0,210.45c-49.39,0-89.58-40.18-89.58-89.58S-49.39,31.3,0,31.3s89.58,40.18,89.58,89.58S49.39,210.45,0,210.45Z"/>
    <path class="cls-2" d="M0,34.3c47.74,0,86.58,38.84,86.58,86.58S47.74,207.45,0,207.45s-86.58-38.84-86.58-86.58S-47.74,34.3,0,34.3M0,28.3c-51.05,0-92.58,41.53-92.58,92.58S-51.05,213.45,0,213.45s92.58-41.53,92.58-92.58S51.05,28.3,0,28.3H0Z"/>
  </g>
  <g>
    <path class="cls-1" d="M0,182.11c-33.77,0-61.24-27.47-61.24-61.24S-33.77,59.64,0,59.64s61.24,27.47,61.24,61.24S33.77,182.11,0,182.11Z"/>
    <path class="cls-2" d="M0,62.64c32.11,0,58.24,26.12,58.24,58.24S32.11,179.11,0,179.11s-58.24-26.12-58.24-58.24S-32.11,62.64,0,62.64M0,56.64c-35.42,0-64.24,28.82-64.24,64.24S-35.42,185.11,0,185.11s64.24-28.82,64.24-64.24S35.42,56.64,0,56.64H0Z"/>
  </g>
  <g>
    <path class="cls-1" d="M0,153.77c-18.14,0-32.9-14.76-32.9-32.9S-18.14,87.98,0,87.98s32.9,14.76,32.9,32.9S18.14,153.77,0,153.77Z"/>
    <path class="cls-2" d="M0,90.98c16.49,0,29.9,13.41,29.9,29.9S16.49,150.77,0,150.77s-29.9-13.41-29.9-29.9S-16.49,90.98,0,90.98M0,84.98c-19.79,0-35.9,16.1-35.9,35.9S-19.79,156.77,0,156.77s35.9-16.1,35.9-35.9S19.79,84.98,0,84.98H0Z"/>
  </g>
  <g>
    <path class="cls-1" d="M270.17,238.79c-65.02,0-117.92-52.9-117.92-117.92S205.15,2.96,270.17,2.96s117.92,52.9,117.92,117.92-52.9,117.92-117.92,117.92Z"/>
    <path class="cls-2" d="M270.17,5.96c30.69,0,59.55,11.95,81.26,33.66s33.66,50.56,33.66,81.26-11.95,59.55-33.66,81.26-50.56,33.66-81.26,33.66-59.55-11.95-81.26-33.66-33.66-50.56-33.66-81.26,11.95-59.55,33.66-81.26S239.47,5.96,270.17,5.96M270.17-.04C203.39-.04,149.25,54.1,149.25,120.88s54.14,120.92,120.92,120.92,120.92-54.14,120.92-120.92S336.95-.04,270.17-.04h0Z"/>
  </g>
  <g>
    <path class="cls-1" d="M270.17,210.45c-49.39,0-89.58-40.18-89.58-89.58s40.18-89.58,89.58-89.58,89.58,40.18,89.58,89.58-40.18,89.58-89.58,89.58Z"/>
    <path class="cls-2" d="M270.17,34.3c47.74,0,86.58,38.84,86.58,86.58s-38.84,86.58-86.58,86.58-86.58-38.84-86.58-86.58,38.84-86.58,86.58-86.58M270.17,28.3c-51.05,0-92.58,41.53-92.58,92.58s41.53,92.58,92.58,92.58,92.58-41.53,92.58-92.58-41.53-92.58-92.58-92.58h0Z"/>
  </g>
  <g>
    <path class="cls-1" d="M270.17,182.11c-33.77,0-61.24-27.47-61.24-61.24s27.47-61.24,61.24-61.24,61.24,27.47,61.24,61.24-27.47,61.24-61.24,61.24Z"/>
    <path class="cls-2" d="M270.17,62.64c32.11,0,58.24,26.12,58.24,58.24s-26.12,58.24-58.24,58.24-58.24-26.12-58.24-58.24,26.12-58.24,58.24-58.24M270.17,56.64c-35.42,0-64.24,28.82-64.24,64.24s28.82,64.24,64.24,64.24,64.24-28.82,64.24-64.24-28.82-64.24-64.24-64.24h0Z"/>
  </g>
  <g>
    <path class="cls-1" d="M270.17,153.77c-18.14,0-32.9-14.76-32.9-32.9s14.76-32.9,32.9-32.9,32.9,14.76,32.9,32.9-14.76,32.9-32.9,32.9Z"/>
    <path class="cls-2" d="M270.17,90.98c16.49,0,29.9,13.41,29.9,29.9s-13.41,29.9-29.9,29.9-29.9-13.41-29.9-29.9,13.41-29.9,29.9-29.9M270.17,84.98c-19.79,0-35.9,16.1-35.9,35.9s16.1,35.9,35.9,35.9,35.9-16.1,35.9-35.9-16.1-35.9-35.9-35.9h0Z"/>
  </g>
  <g>
    <path class="cls-1" d="M0,238.79c-65.02,0-117.92-52.9-117.92-117.92S-65.02,2.96,0,2.96s117.92,52.9,117.92,117.92S65.02,238.79,0,238.79Z"/>
    <path class="cls-2" d="M0,5.96c30.69,0,59.55,11.95,81.26,33.66s33.66,50.56,33.66,81.26-11.95,59.55-33.66,81.26S30.69,235.79,0,235.79s-59.55-11.95-81.26-33.66c-21.7-21.7-33.66-50.56-33.66-81.26s11.95-59.55,33.66-81.26C-59.55,17.91-30.69,5.96,0,5.96M0-.04C-66.78-.04-120.92,54.1-120.92,120.88S-66.78,241.79,0,241.79s120.92-54.14,120.92-120.92S66.78-.04,0-.04H0Z"/>
  </g>
  <g>
    <path class="cls-1" d="M0,210.45c-49.39,0-89.58-40.18-89.58-89.58S-49.39,31.3,0,31.3s89.58,40.18,89.58,89.58S49.39,210.45,0,210.45Z"/>
    <path class="cls-2" d="M0,34.3c47.74,0,86.58,38.84,86.58,86.58S47.74,207.45,0,207.45s-86.58-38.84-86.58-86.58S-47.74,34.3,0,34.3M0,28.3c-51.05,0-92.58,41.53-92.58,92.58S-51.05,213.45,0,213.45s92.58-41.53,92.58-92.58S51.05,28.3,0,28.3H0Z"/>
  </g>
  <g>
    <path class="cls-1" d="M0,182.11c-33.77,0-61.24-27.47-61.24-61.24S-33.77,59.64,0,59.64s61.24,27.47,61.24,61.24S33.77,182.11,0,182.11Z"/>
    <path class="cls-2" d="M0,62.64c32.11,0,58.24,26.12,58.24,58.24S32.11,179.11,0,179.11s-58.24-26.12-58.24-58.24S-32.11,62.64,0,62.64M0,56.64c-35.42,0-64.24,28.82-64.24,64.24S-35.42,185.11,0,185.11s64.24-28.82,64.24-64.24S35.42,56.64,0,56.64H0Z"/>
  </g>
  <g>
    <path class="cls-1" d="M0,153.77c-18.14,0-32.9-14.76-32.9-32.9S-18.14,87.98,0,87.98s32.9,14.76,32.9,32.9S18.14,153.77,0,153.77Z"/>
    <path class="cls-2" d="M0,90.98c16.49,0,29.9,13.41,29.9,29.9S16.49,150.77,0,150.77s-29.9-13.41-29.9-29.9S-16.49,90.98,0,90.98M0,84.98c-19.79,0-35.9,16.1-35.9,35.9S-19.79,156.77,0,156.77s35.9-16.1,35.9-35.9S19.79,84.98,0,84.98H0Z"/>
  </g>
  <g>
    <path class="cls-1" d="M135.08,307.75c-65.02,0-117.92-52.9-117.92-117.92s52.9-117.92,117.92-117.92,117.92,52.9,117.92,117.92-52.9,117.92-117.92,117.92Z"/>
    <path class="cls-2" d="M135.08,74.92c30.69,0,59.55,11.95,81.26,33.66s33.66,50.56,33.66,81.26-11.95,59.55-33.66,81.26c-21.7,21.7-50.56,33.66-81.26,33.66s-59.55-11.95-81.26-33.66c-21.7-21.7-33.66-50.56-33.66-81.26s11.95-59.55,33.66-81.26,50.56-33.66,81.26-33.66M135.08,68.92c-66.78,0-120.92,54.14-120.92,120.92s54.14,120.92,120.92,120.92,120.92-54.14,120.92-120.92-54.14-120.92-120.92-120.92h0Z"/>
  </g>
  <g>
    <path class="cls-1" d="M135.08,279.41c-49.39,0-89.58-40.18-89.58-89.58s40.18-89.58,89.58-89.58,89.58,40.18,89.58,89.58-40.18,89.58-89.58,89.58Z"/>
    <path class="cls-2" d="M135.08,103.26c47.74,0,86.58,38.84,86.58,86.58s-38.84,86.58-86.58,86.58-86.58-38.84-86.58-86.58,38.84-86.58,86.58-86.58M135.08,97.26c-51.05,0-92.58,41.53-92.58,92.58s41.53,92.58,92.58,92.58,92.58-41.53,92.58-92.58-41.53-92.58-92.58-92.58h0Z"/>
  </g>
  <g>
    <path class="cls-1" d="M135.08,251.07c-33.77,0-61.24-27.47-61.24-61.24s27.47-61.24,61.24-61.24,61.24,27.47,61.24,61.24-27.47,61.24-61.24,61.24Z"/>
    <path class="cls-2" d="M135.08,131.6c32.11,0,58.24,26.12,58.24,58.24s-26.12,58.24-58.24,58.24-58.24-26.12-58.24-58.24,26.12-58.24,58.24-58.24M135.08,125.6c-35.42,0-64.24,28.82-64.24,64.24s28.82,64.24,64.24,64.24,64.24-28.82,64.24-64.24-28.82-64.24-64.24-64.24h0Z"/>
  </g>
</svg>